<svg xmlns="http://www.w3.org/2000/svg" xmlns:xlink="http://www.w3.org/1999/xlink" viewBox="0 0 1080 798.57"><defs><style>.cls-1{fill:none;}.cls-2{isolation:isolate;}.cls-3{fill:url(#Degradado_sin_nombre_18);}.cls-4{clip-path:url(#clip-path);}.cls-5{opacity:0.31;fill:url(#Degradado_sin_nombre_13);}.cls-18,.cls-22,.cls-31,.cls-44,.cls-47,.cls-5,.cls-7,.cls-9{mix-blend-mode:multiply;}.cls-46,.cls-6{fill:#fff;}.cls-7,.cls-8{fill:#e8efef;}.cls-10,.cls-9{fill:#c4d6d5;}.cls-11{fill:#e85f39;}.cls-12{fill:#107770;}.cls-13{fill:#cfe6e6;}.cls-14{fill:#f37249;}.cls-15{fill:url(#linear-gradient);}.cls-16{fill:#16998f;}.cls-17{fill:url(#linear-gradient-2);}.cls-18{fill:#d64136;opacity:0.35;}.cls-19{fill:#16b596;}.cls-20{fill:#07514c;}.cls-21{fill:#f4a269;}.cls-22,.cls-23{fill:#d87a55;}.cls-22{opacity:0.3;}.cls-24{fill:#d8714c;}.cls-25{fill:#feb19e;}.cls-26{fill:url(#linear-gradient-3);}.cls-27{fill:#f9988c;}.cls-28{fill:#332012;}.cls-29{fill:#ff856a;}.cls-30{fill:url(#linear-gradient-4);}.cls-31{fill:#107a7a;opacity:0.25;}.cls-32{fill:#15b8b5;}.cls-33{fill:url(#linear-gradient-5);}.cls-34{fill:url(#linear-gradient-6);}.cls-35{fill:#e25939;}.cls-36{fill:#d64f34;}.cls-37{fill:url(#linear-gradient-7);}.cls-38{fill:url(#linear-gradient-8);}.cls-39{fill:#ec653e;}.cls-40{fill:#f4764a;}.cls-41{fill:url(#linear-gradient-9);}.cls-42{fill:#0a4440;}.cls-43{fill:#0e5e5a;}.cls-44,.cls-47{opacity:0.6;}.cls-45{fill:#077773;}.cls-46{opacity:0.21;mix-blend-mode:overlay;}.cls-47{fill:#c7dee0;}.cls-48{fill:#106f6c;}.cls-49{fill:#14967d;}.cls-50{fill:#4c321c;}</style><linearGradient id="Degradado_sin_nombre_18" x1="-270.25" y1="1361.46" x2="541.4" y2="1361.46" gradientTransform="matrix(-0.8, -0.61, -0.61, 0.8, 1444.64, -641.94)" gradientUnits="userSpaceOnUse"><stop offset="0" stop-color="#e8ad05"/><stop offset="0.97" stop-color="#e88f05"/></linearGradient><clipPath id="clip-path"><path class="cls-1" d="M432.29,198.65C599.26,216.73,815,45.64,894.8,307S702.74,773.12,485.6,707.21,78,439.82,106.05,276.08C153.94-3.71,320.28,186.53,432.29,198.65Z"/></clipPath><linearGradient id="Degradado_sin_nombre_13" x1="-287.69" y1="1470.85" x2="593.6" y2="1470.85" gradientTransform="matrix(-0.8, -0.61, -0.61, 0.8, 1444.64, -641.94)" gradientUnits="userSpaceOnUse"><stop offset="0" stop-color="#e8ad05"/><stop offset="0.85" stop-color="#e8ad05"/></linearGradient><linearGradient id="linear-gradient" x1="834.88" y1="579.86" x2="831.92" y2="567.6" gradientUnits="userSpaceOnUse"><stop offset="0" stop-color="#c7e2e2"/><stop offset="1" stop-color="#e1efef"/></linearGradient><linearGradient id="linear-gradient-2" x1="825.02" y1="370.52" x2="797.54" y2="250.44" gradientUnits="userSpaceOnUse"><stop offset="0" stop-color="#e85e38"/><stop offset="1" stop-color="#f3734a"/></linearGradient><linearGradient id="linear-gradient-3" x1="867.37" y1="360.83" x2="839.89" y2="240.75" xlink:href="#linear-gradient-2"/><linearGradient id="linear-gradient-4" x1="210.36" y1="486.45" x2="243.34" y2="404.01" gradientUnits="userSpaceOnUse"><stop offset="0" stop-color="#0f847e"/><stop offset="1" stop-color="#159b91"/></linearGradient><linearGradient id="linear-gradient-5" x1="197.97" y1="481.5" x2="230.95" y2="399.05" xlink:href="#linear-gradient-4"/><linearGradient id="linear-gradient-6" x1="176.24" y1="568.65" x2="170.74" y2="548.14" xlink:href="#linear-gradient-4"/><linearGradient id="linear-gradient-7" x1="167.25" y1="569.61" x2="167.68" y2="552.7" xlink:href="#linear-gradient"/><linearGradient id="linear-gradient-8" x1="201.32" y1="568.07" x2="234.86" y2="568.07" xlink:href="#linear-gradient-4"/><linearGradient id="linear-gradient-9" x1="231.39" y1="579.33" x2="233.78" y2="573.13" xlink:href="#linear-gradient"/></defs><title>DESARROLLO</title><g class="cls-2"><g id="Capa_2" data-name="Capa 2"><path class="cls-3" d="M438.13,197.86c167,18.08,382.73-153,462.51,108.35S708.58,772.34,491.44,706.42,83.87,439,111.89,275.29C159.78-4.5,326.12,185.74,438.13,197.86Z"/><g class="cls-4"><path class="cls-5" d="M708.78,797.71s-23-172.06-221.13-249.81-263.71-190.6-56.11-421c0,0-253.18-142.55-347.81,42.42C-31.11,393.84,371.06,819.54,708.78,797.71Z"/></g><path class="cls-6" d="M310.77,159.82l-1.94-5.57-1.95,5.57c-1.63,4.68-5.52,8.64-10.79,11h0c5.27,2.34,9.16,6.3,10.79,11l1.95,5.56,1.94-5.56c1.63-4.69,5.52-8.65,10.79-11h0C316.29,168.46,312.4,164.5,310.77,159.82Z"/><path class="cls-6" d="M420.74,439.48l-1.94-5.56-1.95,5.56c-1.63,4.69-5.52,8.65-10.79,11h0c5.27,2.34,9.16,6.3,10.79,11L418.8,467l1.94-5.57c1.63-4.68,5.52-8.64,10.79-11h0C426.26,448.13,422.37,444.17,420.74,439.48Z"/><path class="cls-6" d="M643.68,648.52l-1.28-3.67-1.28,3.67a12.81,12.81,0,0,1-7.12,7.25h0a12.81,12.81,0,0,1,7.12,7.25l1.28,3.67,1.28-3.67a12.81,12.81,0,0,1,7.12-7.25h0A12.81,12.81,0,0,1,643.68,648.52Z"/><path class="cls-6" d="M208.72,286.57l-1.28-3.67-1.29,3.67a12.79,12.79,0,0,1-7.11,7.25h0a12.82,12.82,0,0,1,7.11,7.25l1.29,3.67,1.28-3.67a12.8,12.8,0,0,1,7.12-7.25h0A12.78,12.78,0,0,1,208.72,286.57Z"/></g><g id="Capa_1" data-name="Capa 1"><path class="cls-7" d="M883.92,527.32c-22-7.32-59.73-12.15-102.58-12.15-12.12,0-23.82.39-34.88,1.11-2.74-1.06-5.77-2.08-9.12-3.07-33.91-14-116.82-23.9-213.73-23.9-127.09,0-230.11,17-230.11,38,0,.11,0,.22,0,.34-15-.62-30.58-.95-46.59-.95-116.33,0-210.63,17.16-210.63,38.33s94.3,38.32,210.63,38.32q8.94,0,17.7-.14c13,8,34.13,15.15,61.38,21.12-5.41,3.14-8.54,6.83-8.54,10.77,0,11.41,26.07,20.66,58.24,20.66,28.55,0,52.28-7.29,57.26-16.9,29.18,2.18,60.63,3.37,93.43,3.37a1197.44,1197.44,0,0,0,128.36-6.57c21.9,4.1,50.2,6.57,81.14,6.57,69.43,0,125.72-12.44,125.72-27.78,0-2.5-1.51-4.91-4.3-7.21q10.83.3,22,.3c98.55,0,178.44-18,178.44-40.12C1057.81,545.61,980.37,527.86,883.92,527.32Z"/><path class="cls-8" d="M192.29,610.85c-20.48,0-37.09,4.62-37.09,10.33s16.61,10.32,37.09,10.32,37.09-4.62,37.09-10.32S212.78,610.85,192.29,610.85Z"/><ellipse class="cls-8" cx="272.16" cy="637.32" rx="17.16" ry="5.82"/><ellipse class="cls-8" cx="923.42" cy="625.06" rx="21.56" ry="6.44"/><ellipse class="cls-9" cx="826.5" cy="575.29" rx="103.73" ry="19.27"/><ellipse class="cls-9" cx="210.55" cy="568.93" rx="103.73" ry="19.27"/><ellipse class="cls-10" cx="912.73" cy="550.73" rx="23.28" ry="5.29"/><path class="cls-10" d="M750.4,608.7c0,2.18-5,3.94-11.28,3.94s-11.27-1.76-11.27-3.94,5-4,11.27-4S750.4,606.52,750.4,608.7Z"/><path class="cls-10" d="M705.86,588c0,4.71-18.34,8.53-41,8.53s-41-3.82-41-8.53,18.34-8.54,41-8.54S705.86,583.27,705.86,588Z"/><ellipse class="cls-10" cx="567.12" cy="585.14" rx="40.96" ry="8.54"/><path class="cls-10" d="M525.08,596.52c0,4.72-18.34,8.54-41,8.54s-41-3.82-41-8.54,18.34-8.53,41-8.53S525.08,591.81,525.08,596.52Z"/><ellipse class="cls-10" cx="416.17" cy="572.8" rx="40.96" ry="8.54"/><ellipse class="cls-10" cx="373.65" cy="562.3" rx="40.96" ry="8.54"/><ellipse class="cls-10" cx="539.4" cy="562.3" rx="134.56" ry="8.54"/><ellipse class="cls-10" cx="366.14" cy="600.64" rx="11.21" ry="4.11"/><ellipse class="cls-10" cx="696.63" cy="532.95" rx="16" ry="4.63"/><path class="cls-10" d="M325.11,547.14c0,1.39-3.86,2.52-8.63,2.52s-8.62-1.13-8.62-2.52,3.86-2.51,8.62-2.51S325.11,545.75,325.11,547.14Z"/><path class="cls-10" d="M532.15,611c0,1.56-2.51,2.82-5.6,2.82S521,612.51,521,611s2.51-2.82,5.6-2.82S532.15,609.39,532.15,611Z"/><ellipse class="cls-10" cx="625" cy="605.74" rx="13.24" ry="5.11"/><path class="cls-11" d="M809.25,575.68c-.14,2.32-.29,3.77-.29,3.77H765.29c.52-17,18.18-14.65,18.18-14.65l3-7.71H809A103.61,103.61,0,0,1,809.25,575.68Z"/><path class="cls-12" d="M772.94,367.66l8.95,188.2s16.48,5.71,30.84,0l10.93-157.59L809,351.42Z"/><path class="cls-13" d="M809.25,575.68c-.14,2.32-.29,3.77-.29,3.77H765.29c.52-17,18.18-14.65,18.18-14.65l4.66,10.88Z"/><path class="cls-14" d="M849.09,576.28c-.23,2.29-.43,3.76-.43,3.76H819.93c-2.26-13.21,7.41-13.68,7.41-13.68a17.34,17.34,0,0,0,1.7-11.49h19.15C849.54,561,849.52,571.35,849.09,576.28Z"/><path class="cls-15" d="M849.09,576.28c-.23,2.29-.43,3.76-.43,3.76H819.93c-6.33-18.33,25-18.42,22-3.77h7.14Z"/><path class="cls-16" d="M807.31,362.06,822.1,555.83a122.71,122.71,0,0,0,33.26-1.09l1.88-200.26Z"/><path class="cls-17" d="M860.76,359.66c-38.14,25.66-89.71,9.89-89.71,9.89l4.24-46.62-20.95-20.26c0-52.49,22.14-69.93,54.62-74.59s42.32,16.23,42.32,16.23l-1.81,43-.29,7.17,8.3,46.73Z"/><path class="cls-18" d="M857.48,341.17a55.69,55.69,0,0,1-14.14,10.24c-16.71,8-41.43,7.07-41.43,7.07l-1.68-61c35.29-5.89,32.33-34.37,32.33-34.37l16.91,24.14-.29,7.17Z"/><path class="cls-18" d="M774.59,297.5c.24-1.18.71-24.49-.23-35.79,0,0,.92,26.37-13.91,35.79Z"/><path class="cls-19" d="M771.91,266.66c-4.41-7.14,1.64-10.22,2.64-14C774.55,252.65,780.45,261.18,771.91,266.66Z"/><path class="cls-19" d="M765.21,271.77c-7.22,1.3-6.51-6.69-8.73-9.59C756.48,262.18,765.41,259.94,765.21,271.77Z"/><path class="cls-19" d="M772.13,289.67c6.22,4.7,8.13-3,11.11-4.58C783.24,285.09,775.76,278.71,772.13,289.67Z"/><path class="cls-20" d="M769.29,313.08a.48.48,0,0,1-.43-.52V292.38a128.43,128.43,0,0,1,2-22.7l1.59-8.79a.43.43,0,0,1,.5-.4.55.55,0,0,1,.33.63l-1.59,8.79a127.63,127.63,0,0,0-2,22.47v20.18A.48.48,0,0,1,769.29,313.08Z"/><path class="cls-20" d="M769.41,287.3a.47.47,0,0,1-.42-.49c-.66-12.66-7.87-19.55-7.94-19.62a.6.6,0,0,1-.09-.73.38.38,0,0,1,.6-.1c.08.07,7.59,7.25,8.28,20.39a.5.5,0,0,1-.4.55Z"/><path class="cls-20" d="M769.29,298.7a.47.47,0,0,1-.42-.41c0-.29-1.15-7.17,7.43-12a.39.39,0,0,1,.56.25.59.59,0,0,1-.21.7c-7.92,4.44-7,10.55-6.94,10.81a.54.54,0,0,1-.33.62Z"/><path class="cls-19" d="M741.5,270.59c5.41-7.14-2-10.22-3.24-14C738.26,256.58,731,265.1,741.5,270.59Z"/><path class="cls-19" d="M749.71,275.69c8.87,1.31,8-6.68,10.72-9.58C760.43,266.11,749.48,263.86,749.71,275.69Z"/><path class="cls-19" d="M741.23,293.59c-7.63,4.7-10-3-13.63-4.57C727.6,289,736.77,282.63,741.23,293.59Z"/><path class="cls-20" d="M744.71,317a.52.52,0,0,0,.52-.52V296.31a105.65,105.65,0,0,0-2.47-22.7l-2-8.79a.52.52,0,0,0-1,.22l2,8.79a104.88,104.88,0,0,1,2.45,22.48v20.18A.52.52,0,0,0,744.71,317Z"/><path class="cls-20" d="M744.56,291.23a.52.52,0,0,0,.52-.49,28.42,28.42,0,0,1,9.75-19.62.54.54,0,0,0,.1-.74.52.52,0,0,0-.73-.09A29.54,29.54,0,0,0,744,290.67a.53.53,0,0,0,.49.56Z"/><path class="cls-20" d="M744.71,302.62a.51.51,0,0,0,.51-.41c.06-.29,1.42-7.16-9.11-12a.52.52,0,0,0-.43.95c9.72,4.45,8.57,10.56,8.52,10.82a.51.51,0,0,0,.4.61Z"/><path class="cls-19" d="M816.63,269.31c5-7.14-1.88-10.22-3-14C813.61,255.3,806.86,263.82,816.63,269.31Z"/><path class="cls-19" d="M824.29,274.41c8.26,1.31,7.44-6.69,10-9.58C834.28,264.83,824.07,262.58,824.29,274.41Z"/><path class="cls-19" d="M816.38,292.31c-7.12,4.7-9.31-3-12.71-4.57C803.67,287.74,812.22,281.35,816.38,292.31Z"/><path class="cls-20" d="M819.62,315.73a.51.51,0,0,0,.49-.52V295a113,113,0,0,0-2.31-22.7L816,263.54a.49.49,0,0,0-.58-.4.52.52,0,0,0-.37.62l1.81,8.79A111.5,111.5,0,0,1,819.14,295v20.18A.5.5,0,0,0,819.62,315.73Z"/><path class="cls-20" d="M819.48,290a.5.5,0,0,0,.49-.49,29.05,29.05,0,0,1,9.08-19.63.54.54,0,0,0,.1-.73.47.47,0,0,0-.69-.09A30.17,30.17,0,0,0,819,289.39a.51.51,0,0,0,.45.56Z"/><path class="cls-20" d="M819.62,301.34a.49.49,0,0,0,.48-.41c.06-.29,1.32-7.16-8.49-12a.48.48,0,0,0-.65.26.54.54,0,0,0,.24.69c9.06,4.45,8,10.56,7.95,10.82a.51.51,0,0,0,.37.61Z"/><path class="cls-19" d="M782.26,292.44c5.41-7.14-2-10.22-3.25-14C779,278.43,771.77,287,782.26,292.44Z"/><path class="cls-19" d="M790.47,297.54c8.87,1.31,8-6.68,10.72-9.58C801.19,288,790.23,285.71,790.47,297.54Z"/><path class="cls-19" d="M782,315.45c-7.63,4.69-10-3-13.63-4.58C768.35,310.87,777.53,304.48,782,315.45Z"/><path class="cls-20" d="M785.47,338.86a.52.52,0,0,0,.52-.52V318.16a105,105,0,0,0-2.48-22.7l-1.94-8.79a.52.52,0,1,0-1,.22l1.94,8.79A104.26,104.26,0,0,1,785,318.16v20.18A.52.52,0,0,0,785.47,338.86Z"/><path class="cls-20" d="M785.32,313.08a.52.52,0,0,0,.52-.49A28.42,28.42,0,0,1,795.59,293a.54.54,0,0,0,.09-.74.51.51,0,0,0-.73-.09,29.6,29.6,0,0,0-10.15,20.39.52.52,0,0,0,.48.55Z"/><path class="cls-20" d="M785.47,324.48a.53.53,0,0,0,.51-.42c.06-.29,1.42-7.16-9.11-12a.52.52,0,0,0-.69.26.52.52,0,0,0,.26.69c9.72,4.45,8.57,10.56,8.52,10.82a.51.51,0,0,0,.4.61Z"/><rect class="cls-21" x="730.8" y="297.51" width="59.31" height="53.92"/><polygon class="cls-22" points="790.11 351.42 730.8 351.42 730.8 330.12 790.11 351.42"/><path class="cls-23" d="M744.56,330.51l.1-7.24a37.34,37.34,0,0,0-.53-7.25.94.94,0,0,1,.79-.45,2.86,2.86,0,0,1,1.37.33,2.9,2.9,0,0,1,1,.9,4.48,4.48,0,0,1,.81,2.64,5.67,5.67,0,0,1-.65,2.7,4.53,4.53,0,0,1-1.89,1.89l.16,6.32c0,.56-.23.84-.68.84a.39.39,0,0,1-.36-.21A.94.94,0,0,1,744.56,330.51Zm1-7.46a4.57,4.57,0,0,0,1.55-3.44h0a3.38,3.38,0,0,0-.28-1.6c-.09-.14-.17-.25-.22-.34a1.92,1.92,0,0,0-.35-.33c-.2-.16-.51-.4-.94-.7q0,1.06.12,3.21C745.47,321.26,745.51,322.34,745.51,323.05Z"/><path class="cls-23" d="M753,323.41l0,.64v.09c0,1.17.08,2.94.08,5.29V330h1.55c.29.19.43.38.43.56a.63.63,0,0,1-.15.44.39.39,0,0,1-.3.17,1.35,1.35,0,0,1-.37-.06,2.13,2.13,0,0,1-.39,0l-.65,0a.66.66,0,0,1-.52.24.77.77,0,0,1-.53-.19.6.6,0,0,1-.21-.45l.13-.89q0-2.31-.2-6.92t-.21-6.93a.37.37,0,0,1,.15-.3.62.62,0,0,1,.37-.11.56.56,0,0,1,.41.17.54.54,0,0,1,.18.41Z"/><path class="cls-23" d="M763,331.08c-.42,0-.63-.18-.63-.53V327.9a2.85,2.85,0,0,0-1-.33,11.1,11.1,0,0,0-1.34-.18,3.73,3.73,0,0,0-.34,1c-.09.45-.18.9-.28,1.36a3.47,3.47,0,0,1-.38,1.08c-.53,0-.82-.14-.89-.41a18.85,18.85,0,0,0,.9-4.05q.63-3.66,1-5.72a29.28,29.28,0,0,1,.87-3.48c.31-.94.6-1.41.89-1.41a1,1,0,0,1,.65.18c0,.49.13,1.79.4,3.92s.39,3.5.39,4.12.08,1.67.22,3.12.21,2.53.21,3.26A.6.6,0,0,1,763,331.08Zm-.86-6.63c-.11-1.2-.22-2.34-.32-3.43s-.14-1.74-.14-2a2.86,2.86,0,0,1,0-.39,13.15,13.15,0,0,0-.92,3.64c-.4,2.2-.61,3.6-.64,4.19a5.74,5.74,0,0,0,1.42.23,3.66,3.66,0,0,0,.8-.06C762.34,326.38,762.27,325.65,762.15,324.45Z"/><path class="cls-23" d="M767.41,320.45l.13-3.72v-.13c0-.68.15-1,.45-1s.63.62,1.09,1.88a99.4,99.4,0,0,1,3,11.29l0,.1.08-7.08v-6a.61.61,0,0,1,.67-.5c.36,0,.54.26.54.79v.12a1.37,1.37,0,0,0-.12.6l-.13,7.5v6.2a1.15,1.15,0,0,1-.17.61.49.49,0,0,1-.41.29c-.29,0-.84-1.39-1.67-4.17s-1.64-5.78-2.44-9v6.66c0,.65,0,1.61.14,2.9s.14,2.24.14,2.89a.36.36,0,0,1-.22.31,1.27,1.27,0,0,1-.58.13c-.24,0-.36-.11-.36-.32l.1-1.46c0-.7,0-1.84-.13-3.41s-.12-2.53-.12-2.88Z"/><path class="cls-23" d="M779.68,319.3l0,2.62.18,4.67.17,3.64c0,.66-.2,1-.59,1a.51.51,0,0,1-.49-.31,1.51,1.51,0,0,1-.16-.71l.16-3.24c0-.7,0-1.75-.14-3.16s-.14-2.46-.14-3.16l0-1.77a5.79,5.79,0,0,0-.19-1.9l-1.1.11a.77.77,0,0,1-.46-.15.46.46,0,0,1-.2-.4c0-.16.16-.3.48-.41a5.71,5.71,0,0,1,1.19-.26,19,19,0,0,1,2-.13.67.67,0,0,1,.45.16.51.51,0,0,1,.21.41.46.46,0,0,1-.18.39.67.67,0,0,1-.44.15l-.72,0h-.21A21.72,21.72,0,0,1,779.68,319.3Z"/><rect class="cls-24" x="790.11" y="297.5" width="37.69" height="53.92"/><path class="cls-25" d="M838.75,292.67v6.71l-31.2,41.15s-6.76-6.54-9.59-6.89,1.24,12,1.24,12l-5.13,5.77H784s7.48,6.82,13,7,15.3.47,19.89-9.24c0,0,31.61-20.31,39.91-33.91s6.36-23.84,6.36-23.84Z"/><path class="cls-26" d="M836,295.14S851.58,302,866,290.91c0,0-3.91-55.6-24.49-48.27C824.27,248.76,837,277,836,295.14Z"/><path class="cls-27" d="M730.8,333.64s13-1.24,14.36.71-2.56,3.79-2.56,3.79,4.24,1.06,4.33,3.27-3.45,2.65-3.45,2.65,3,1.5,2.92,3.71-4.6,1.94-4.6,1.94,3.09,2.3.53,4-10.41.82-12.18.54-.62-4.42-.62-4.42a3.47,3.47,0,0,1-1.59-4.59s-3.35-3.54.27-6C728.21,339.2,725.35,334,730.8,333.64Z"/><path class="cls-28" d="M814.65,199.81s5.54-12,3.77-19.19-5.69-5.07-5.69-5.07,3.15-15.65-19.62-14.18c-17.22,1.11-34.05,14.83-24.81,26.21,0,0-2.69,8.83,6.54,18.59C788.25,220.35,814.42,205.52,814.65,199.81Z"/><path class="cls-25" d="M825.08,227.7c-6.49,16.79-19.77,18.8-36.39,13.49a12.2,12.2,0,0,0,3.81-3.35h0c1.74-2.33,3-5.93,1.27-11-3.49-10,18.41-20.65,18.41-20.65s3.09,19.27,5,20.33S825.08,227.7,825.08,227.7Z"/><path class="cls-29" d="M792.5,237.84h0c1.74-2.33,3-5.93,1.27-11-3.49-10,18.41-20.65,18.41-20.65C816.66,243.78,792.5,237.84,792.5,237.84Z"/><path class="cls-25" d="M772.8,192s2.47,39.38,20,39.73,19.78-20,19.43-25.61c0,0,3.18-.88,2.47-6.35s-7.24-5.83-6,2.82c0,0-6.54-.53-5.83-12.18,0,0-4.06,1.41-14.3,4.59S772.8,192,772.8,192Z"/><path class="cls-27" d="M292.48,432.47s10.13,10.12,15.78,17.66,15.89,30.59,15.89,30.59l-15.66,7.08s-19-15.93-24-27.22-15.31-19.87-15.31-19.87"/><path class="cls-30" d="M297,430.58s-5.82,15.14-20.09,21.32a30.22,30.22,0,0,1-3.68,1.33c-17,4.9-64.75,46.11-64.75,46.11l-42,12.22-.89.25-10.36-8.94s-5.65-5.89-5.18-12,5.17-4.94,5.17-4.94,3.08-56.05,33.68-86.42S239,370.07,255,385.61c0,0,5.94,2.59,16.07,15.54S297,430.58,297,430.58Z"/><path class="cls-31" d="M278.56,450.05s-.65.69-1.7,1.85a30.22,30.22,0,0,1-3.68,1.33c-17,4.9-64.75,46.11-64.75,46.11l-42,12.22c-2.54-2.57-4.53-4.62-4.53-4.62,41-24.53,29.79-84.24,29.79-84.24l30.54-2.47C234.92,447.77,258.84,451,258.84,451c.83-14.83,10.1-38.85,10.1-38.85C264.35,438.59,278.56,450.05,278.56,450.05Z"/><path class="cls-25" d="M337.92,499.34a13.84,13.84,0,0,1-10.59,8.71c-6.83,1.42-26.14-7.54-26.14-7.54l-.75-.17c-6.71-1.53-56.56-12.95-67.53-18.66-11.76-6.12-22.36-20.49-22.36-20.49l30-8,4.59,4.9,59.07,27.66,4.26,2s22.61-4.71,24.73-3.06-8.48,7.07-8.48,7.07,20.95-1.9,21.66,0S339.11,496.51,337.92,499.34Z"/><path class="cls-32" d="M337.92,499.34a13.84,13.84,0,0,1-10.59,8.71c-6.83,1.42-26.14-7.54-26.14-7.54l-.75-.17a30.08,30.08,0,0,1,3.79-14.55l4.26,2s22.61-4.71,24.73-3.06-8.48,7.07-8.48,7.07,20.95-1.9,21.66,0S339.11,496.51,337.92,499.34Z"/><path class="cls-33" d="M240.92,452.25s-12.71-18.13-17.89-36.5-28.27-14.19-31.07,4c-3.11,20.28,24,51.33,24,51.33S236,467.79,240.92,452.25Z"/><path class="cls-25" d="M258.51,384.86c-3.35,2.6-4.41,7.28-4.41,7.28a25.76,25.76,0,0,1,.74,6.1c-.16,4.68-2.92,6.8-12,1.67-12.54-7.06-13.42-18.53-13.42-18.53,7.6-4.6,8.31-15,8.31-15S261.87,382.25,258.51,384.86Z"/><path class="cls-28" d="M232.59,359.48s-3.86-15.43,0-23.31c2.94-6,8.33-3.65,8.33-3.65s2.52-12.8,13.42-14c10.6-1.18,18.84,2.94,25.31,13.3s14,11.07,14,11.07-3.88,6.94-9.06,7.42c0,0,5.53,3.76,9.06,3.06,0,0-5,7.87-12.12,5.53,0,0-.69,4.79-6.47,6S232.59,359.48,232.59,359.48Z"/><path class="cls-29" d="M258.51,384.86c-3.35,2.6-4.41,7.28-4.41,7.28a25.76,25.76,0,0,1,.74,6.1c-4.38-1.06-17.6-6.37-17.15-31.87C237.69,366.37,261.87,382.25,258.51,384.86Z"/><path class="cls-25" d="M277.41,356.65s-7.59,31.44-17.3,33.55-22.25-9.53-22.43-23.83c0,0-7.59-5.66-4.24-9.72s7.95,0,7.6,4.77c0,0,6.88-1.06,6.88-13.77a22.47,22.47,0,0,0,19.43,4.41S268.76,357,277.41,356.65Z"/><path class="cls-34" d="M161.93,572.54s13.65,1.52,23.71-4.2V546.4s-14.47-.71-21.82-3.12Z"/><path class="cls-35" d="M278,572c-.31,0-.62.07-.95.1-19.78,1.41-67.81,0-67.81,0H187s-9.54-13.72,2.83-33.17a13.9,13.9,0,0,1,1.06-1.47c14.53-18.7,75.93-32.32,75.93-32.32s26.49,23.52,29.67,33.41C299.61,548.27,296.92,570,278,572Z"/><path class="cls-36" d="M278,572c-.31,0-.62.07-.95.1-19.78,1.41-67.81,0-67.81,0H187s-9.54-13.72,2.83-33.17a13.9,13.9,0,0,1,1.06-1.47l35.31,10.27S265,553,278,572Z"/><path class="cls-37" d="M161.93,543.15v29.39s8.7.22,10.09-5.18,2.34-16,.85-20S161.93,543.15,161.93,543.15Z"/><path class="cls-38" d="M204.31,558s-4,7.41-2.73,22.07h33.28s-5.12-14.66-4.42-20.84S204.31,558,204.31,558Z"/><path class="cls-39" d="M286.24,480.72c-6.35,17.2-55.09,82.9-55.09,82.9l-29.57-3.82,3.79-10.31a36.8,36.8,0,0,1-35-9.54c-16.24-15.54-15.19-37.08-15.19-37.08s10.25,13.07,30-4.95c0,0,43.14-44,71-50.49a25.82,25.82,0,0,1,8.17-.72,44.79,44.79,0,0,1,14.21,3.34c6.06,2.71,9.21,6.79,10.3,11.78C290.06,467.25,288.82,473.75,286.24,480.72Z"/><path class="cls-40" d="M286.24,480.72c-6.35,17.2-55.09,82.9-55.09,82.9a59.84,59.84,0,0,1-29.57-3.82l3.79-10.31S231,465.76,256.18,447.43a25.82,25.82,0,0,1,8.17-.72,44.79,44.79,0,0,1,14.21,3.34c6.06,2.71,9.21,6.79,10.3,11.78C290.06,467.25,288.82,473.75,286.24,480.72Z"/><path class="cls-41" d="M217.2,580h30s-.18-11.3-11.13-12.19S214.37,570.15,217.2,580Z"/><path class="cls-28" d="M344.34,492.1s-1.23-4.24-3.53-5.83-3.18-3.69-5.47-5.55-4.77-.28-6.89-2.22-2.42-2.3-5-2.3-4.53,5.67-6.47,4.52-4.59-.45-6.53.78-5.65-.12-6.36,2.89,1.77,9.12,1.77,9.12S331.8,498.1,344.34,492.1Z"/><path class="cls-19" d="M325.09,453.23s-7.18-6-1.65-17.82C323.44,435.41,334.45,442.61,325.09,453.23Z"/><path class="cls-19" d="M328,463.4a6.64,6.64,0,0,1,3.62-7.33c4.85-2.73,4.85-4.77,4.85-4.77S338,466.31,328,463.4Z"/><path class="cls-20" d="M332.79,458.6a.72.72,0,0,0-.93.37c-1.21,2.78-4.51,4-6.06,4.5V441.42a.71.71,0,0,0-.71-.71.7.7,0,0,0-.7.71v38.32a.7.7,0,0,0,.7.7.7.7,0,0,0,.71-.7v-14.8c1.54-.4,5.78-1.79,7.36-5.41A.72.72,0,0,0,332.79,458.6Z"/><path class="cls-42" d="M494,379l45-2.91s-28.33,81.18-26.8,106Z"/><path class="cls-43" d="M556,208.39s30.07-48.25,112.55-69.48c0,0,13.34,130.35-53,193Z"/><path class="cls-43" d="M440.29,355.6s-40.1,2.53-68.53-87.46-48.94-97.37-48.94-97.37,96.67-15.4,135.13,60.06S440.29,355.6,440.29,355.6Z"/><path class="cls-32" d="M571.39,384.79a147.36,147.36,0,1,1,55.86-217.16,148.92,148.92,0,0,1,11.77,20A147.41,147.41,0,0,1,571.39,384.79Z"/><g class="cls-44"><path class="cls-45" d="M649.31,261.32s-3.08,2.2-3.55,2.66-1.87,1.38-2.16,2.21-.83.18-2.42,1.66-2.34,1.37-2.22-1.23-.91-2.8-1.82-4.2.86-3.43-3-1.79-4.38,1-6.26,3.76-3.2,5.26-3.2,5.26l-3.34-.21s-4.54-1.71-5.19-1.62A18.52,18.52,0,0,0,613.3,269a9,9,0,0,1-1.92-3.45c-.45-1.87-1.28-2.15-2.13-1s-2.35,3.23-2.35,3.23a20,20,0,0,0-4.68,4.14c-1.5,2.12-1.32,3-4.86,4.23s-2.27,4.34-5.7,3.94-5-.32-6.77-1.08-2.14.35-.81,2.13,3.57.22,1.47,2.29-4,1.5-2.13,4.16,2.93,4.58,2.09,5-3.85-.78-3.26-3.37-1.33-2.94-1.33-2.94,0-1.72.81-2.36.59-3.06-1.05-1.92-1.95.27-1.64,2.08.12,2.37-1.43,3.7-2,1-2.8,2.53.64,1.31-1.32,2.27-2.25,1.79-1.52,3.28.12,1.91-.26,3.25-.48,1.62-.76,2.69a2.61,2.61,0,0,0,.07,1.81c.09.42-.56,1-1.12,1s-1.62-.48-3.85-.78a8.39,8.39,0,0,0-5.53.75c-2,.95-1.68,5.79-5,5.8s-3.2-.39-5.29-.64-1.71-.67-2.68-1.93-1.61-1.18-1.41-2.66-.08-2.28-1.31-4.56-1-6.33-3.15-6.44,1.41-2.08-4,.34-4.92.79-8.2,3.09-5,3.71-6.07,4.12-2.84.81-1.79-1.78,2.24-1.79,1.1-3.89-2.71-3.41-1.27-3.31,1.68-1.28,2-2.58-2.63-2.3-1.45-4.84,2.41-4.3-.58-2.84-1.24-1.13-5,1.16-3.74,2.06-3.33,3.37-3.53.34-.77,2.68,3.59,3.8,2.47,4.58a26.13,26.13,0,0,0-2.94,2c-2.62,2-3.39,4.9-4.82,3.86s-.4-2-2.54-.95-2,2-4.18-.5-6.61-3.58-5.21-4.27.48-2.08-.95-3.35-2.29-3.5-3.11-5.18-2.33-4.53-.61-4.09,1.48-.27.62-2-3-2.26-2.61-4.39-.83-1.45,1.14-3.57,1.18-1.84,3.56-3.12,2.51-.77,2.94-2.25-1.36-3,.35-2.6.93.47,3.35-.95,4.33-1.07,3.68-3.12-1.78-1.74,1.12-3.38a58.75,58.75,0,0,1,5.55-3.07c1.35-.54,1-1.52,2-.07s2.23.06,3.26-.67.39-2.27,1.87-1.84,4.23.36,5.24,1.25,1.71,1.13,2.11,3.13-.21,3.11,1.36,3.49,1.91-.35,2.69,1,2.49,2,2.9,2.63,2.13.34,2.51-.07,1.56-3-2.26-7.22-3.07-4.86-5.05-7.24-2.58-2.44-2.09-5.69.46-4.27,2-6.16,1.88-2.77,2.28-5.74a10.67,10.67,0,0,1,2.89-6.15c1.45-1.75-.25-1.21-.66-2.16s1-1.09,1.57-2,1.08-1.33.3-1.87-1.4.91-1.56.24,1.28-2.71.49-3a1.83,1.83,0,0,0-2.33.8c-.73,1-1.91,1.16-1.79.35s1.23-.2.13-2-3.5-3.49-3.37-4.77-.14-2.3,1.34.5,2.53,5.88,3.43,4.4,1.67-2.73.15-4.06-3-1.7-1.45-1.78,2.21,1.92,2.64.32,1.19-3.47-.1-4-1.17-1.92-1.42-2.55-1.69-1-.17-1.76,3.35-.6,3.41-2.25.48-2.32-.47-1.67-1.69,2.1-2.44,2.23.6-1.74,2-2.77-.25-.75,1.22-1.52,3.45-1.23,3-2.23-2.36-1.39-2.76-.79-.93.46-1.32-.45.43-1.95.33-3.23a11,11,0,0,1,1.24-4.43c.36-.57,2.73-.37,2.44-1.91s-.49-2.1-.29-2.33,1.1-.11,1.12-1.17-.3-3.24.46-2,.45,1.69,1.13.13.5-3,1-2.23,1.13,1.14,1.34.34.83.62.2,1.07-2.67-.45-1.81,1-.3.72.19,2.09,1.86,4.18,2.81,2,.18-3,.91-4.42a24.73,24.73,0,0,1,2.1-3.14l.69-3s.88-1.44-.59-.72-1.13.24-2.09,1.19-1.56,1.11-2.44.86-.85-.5-2.12.2-1.39,1.05-3-.65.52-2.57-1.6-1.7a5.61,5.61,0,0,0-2.91,1.86c-1,1-1.65.89-1.17-.15s1.61-1.2,2.43-2.24,2.64-1.69,1-2.44a5.75,5.75,0,0,0-3.57-.16l-3.26,3.74-1.45,3.54s-.48,2.44-.75,3.9-1.14,3-1,1.31a27.57,27.57,0,0,1,.63-5.92,35.43,35.43,0,0,1,1.62-3.78c.56-1.33-.58-3.43.7-4.35s2.68-1.43,5-2.92,5.1-3.08,5.76-4,.39-1.73.31-2.77,0-.89,1.25-1.9.44-2.62,0-3.43-2-.39-2.81-1.32-.85-2-1.37-1,.4,2.19-.3,1.85-.36-2.45-1.73-1.32-.9.21-1.54,2.68-1.69,2.6-1.48.72a9.45,9.45,0,0,1,2.22-4.25c.47-.61-1.51-.09-3.59.54a8.23,8.23,0,0,1-4.46.17,2.71,2.71,0,0,0-1.71.3c-.18.09-.83-.44-3.64-1.3s-6.45-2-8.36-2.77-3.17-2.69-2.54-.61,2.15,2.5,1.24,3.79-.25,1.43-1.27,2.39-.72.51-1.92.64-1.86,1.45-2.32.67,2.2-.69-.55-1.58-1.2-.42-1.81-1.82-3.37-.27-5.11.11-1.32-.81-3.5.1a25.49,25.49,0,0,1-4.27,1.4c-.6.14-4.54,1.22-4.54,1.22s-2.22-1.08-1.25,1.07,1.06,2.33,1.49,3.2a5.48,5.48,0,0,0,2.09,1.66s.86-1.58,1.5-1-1.66,2.26-2.09,3.05-.91.62,1,1,3.29.12,4,.66,1.85,1.53,1.85,1.53,1.94.32,1.24.77-.44.63-.78,2.53A8.79,8.79,0,0,1,489.8,169c-.85.88-.94,1,.07,2.16s2,.39,2.87,1.49-.2.68,1.47,1.84l1.68,1.16s-1.39-.45-.19.58,1.61,2.1.27,1.26-1.15-1.41-1.48-.43-.38,1.11.61,1.72,2.4,1.83,1.31,1.26-1.63-1.57-2.43-.6-1.08,2.16-1.6,2.29-.59-1.33-.59-1.33v-2.25l-2-.46s-1.86,1.66-1.54.35-1.13-.95-1.55-.75-2.27-.16-1.2-.68,1.25-.5,1.33-1.46-1.19-1.56-1.81-2-.68-2.21-2.08-1.52-3.59,2.22-4.22,2.12a7.28,7.28,0,0,0-3-.28,9.14,9.14,0,0,0-2.89,1.64c-.49.3-.57-.68-1.17-1a5.19,5.19,0,0,0-2.56.08c-.4.14-1.05.34-1.05.34a1.82,1.82,0,0,1-1.69-1.08c-.57-1.17-1.88-1.85-2.26-.85a17.42,17.42,0,0,0-.62,2s-2.41-1.25-2.63-2.18.77-.9.29-1.88.05-.14.23-1.78-.3-2.86,1.14-3.34,2.44-.67,1.65-2.54-1.62-4-.86-5.3.23,0,1.17-1.73,1.67-2.73.6-2.55-1.37,1.08-2.39.77-2.49-.23-.83-.87,2.88,0,3.51-.62a5.35,5.35,0,0,0,1.14-2.63c0-.47.51,0,.68-.74s-.39-1,.93-1,1.82-.07,1.43-1,.55-1.72.18-2.46-1,.2-1.94-.9a5.36,5.36,0,0,0-2.54-2c-.67-.07-1.73-.48-2.21.45s-.87,1.17-.36,1.85a3.29,3.29,0,0,1,.52,1.65,10,10,0,0,0-.71,1.74c-.46,1.32.57,3.07-1.18,1.38s-1.92-2.52-2.76-2.34a2.18,2.18,0,0,0-1.38.61,4.28,4.28,0,0,1-1.68.82c-1,.39-1.67,0-1.42.76s.64,1.42,1.06,1.33,0,.33-.8,1.43a10.69,10.69,0,0,0-1.13,1.71s1.67.11,1.08.92-.33,1-.87.94-1.58,0-1.57-1a5.08,5.08,0,0,1,.06-1.42c.15-1.11.67-1.83.6-2.08s-.95-.64-2.08-.72-2.18-.67-2.58.28a17.55,17.55,0,0,0-.93,2.13c-.05.37,1.07-.29,1.56-.36s1.27.71,1.27.71a1,1,0,0,1-.22,1c-.42.44-1,1.2-1,1.2s1.51.36-1.35.55a61.18,61.18,0,0,1-6.52-.22c-2.51-.05-3.08-1-3.16.27s1.08.92-.39,1.93-1.73,1-1.8,1.75a5.5,5.5,0,0,0,.26,1.83l.32.89a4.25,4.25,0,0,1-.32,1.25,2,2,0,0,1-1.07.17c-.25,0-.26-1.37-.38-1.6a8.68,8.68,0,0,0-1.38-1.06s-1.22-.84-2-.25a21.61,21.61,0,0,1-2.1,1.38s-2.65.37-2.67,0,1.24-1,1-1.2.13-.68-1.45-.12-4.16,1.07-4.7-.05-1.51-.83-2.79-.14-.62-1.15-1.9.12a2.65,2.65,0,0,1-2.35,1s.26-.89-2,.27-1.47.9-2.31,1.77-1,.61-1.42.06-1.5-.25-2.16.19a3,3,0,0,0-1,1.22,5.28,5.28,0,0,0-1.54-1.61c-1.2-.92-.25-1-1.81-.74s-3.32.3-2.64-.67,1.81-2.8.31-3-1.35-.5-3,.83-2.65.84-2.87,2,.48.75-1.16,2.48-1.38,1.08-1.67,2.84-.14,2.21-.67,1.83-.77-2-.39-3.51a15.47,15.47,0,0,0,.36-3c-1.32,1.72-2.59,3.47-3.83,5.25a2.39,2.39,0,0,0-.16,1.73c.63,1.93,2.22,2.18,1,3.12s-1.19,2.14-1.91,2.57-.52-.44-2.38.32c-.93.38-1.47.42-2,.66q-2.85,4.74-5.32,9.66A5,5,0,0,1,378,188l-2.31,4-3.93,3.52a5.65,5.65,0,0,0,4.72-1.47c2.47-2,2.55-6.14,3.09-4.79s-.73,2.76-1.13,4.07,2.74-1.73,3-3-.56-5.16.83-4.92a3.66,3.66,0,0,1,2.17,1.37l-.81,2.36h2.9l4.35.15s.18-.1.5,1-.2,1.64.31,1.89.46.24.34,1.45a25.13,25.13,0,0,0-.26,3.14c.08.46,1,.33.9-.45s-.09-1.92-.09-1.92.13-2.72.53-2.61a2.85,2.85,0,0,1,.94.66l.15,2.74s.2.64.35,1.26.39.65.2,1.05-1.42-.38-.19.4,1,.91.79,1.62-.6,1.07.19,1.3.93-1.38,1.42-1.16.72-.27.9.56,1.36.8.84,1.6-2.07.24-2.4.55-.53.37-.4.94-.18,1,.56,1.14.3.93.42,1.34,2.78-2.67,2.05-1-.94,1.85-.83,3-.14,2.38.67,2,.88-1.82,1.38-2.07.43.48.1,1.34-1.7.76-1.68,1.75a3.43,3.43,0,0,1-.45,1.91c-.32.77-.19.87.86,1.12s2.52-1.53,2.37-1.16-.46.54-.61,1.11-.26,1.35.35.91a3.33,3.33,0,0,0,1.2-1.22c.18-.42.88-1.47.65-.59s-.7.88-.37,1.36.35,0,.53.54.34.84.65.85.76-.57.76-.88.57-.74.5-.09-.51,1.33,0,1.69,1,.63,1,.63l.08,1.19.71,1.77a17.07,17.07,0,0,1,.38,2.81c0,1.09.24,3.34.24,3.34l-.87.43-1.38-3.29a12.45,12.45,0,0,0-1.52-1.85c-.28-.1-.8-.06-.8.71a8.48,8.48,0,0,0,.19,1.67,2.41,2.41,0,0,1,.35,1.33,5.87,5.87,0,0,0,.27,1.83,4.83,4.83,0,0,0-.78,3.44c.2,2.29-.29,2.52.12,4.32s1.49,2.43.45,4.09S402,240,402.39,242s1.16,1.74,1.11,3.69-.54,2.19,0,3.56.63,2.89,1.16,4,.14,2.34,1.32,2.69.71.5,1.18.35.06-.65,1.18-.58,1.46-.95,1.11.07a14.15,14.15,0,0,0-.44,1.45s-.68-.28-.44.68-.61,1.28-.27,1.66a4.8,4.8,0,0,0,1.45.76s-1.43.86,0,2,1.2.88,1.78,2.06a6.66,6.66,0,0,0,1.28,1.84l1.93,1.27,1.52.74s-.78.46,1.14.75.85-1.57,2.32.49a13.72,13.72,0,0,1,1.8,3.05l1.65.81a6.23,6.23,0,0,1,1.44,2.21c.71,1.59.28.57,1.23,2.5s1.15,2.36,2.54,3.3,3.37.74,4,1.33a9.08,9.08,0,0,1,1.44,2.15s.33.53,1,1.37.21.75-1.06.21-1.43.86-1.43.86a2.1,2.1,0,0,0,1.41,1.31l3.31,1.23s.31-.61,1.47.82,1.36.8,2,2.12.95,3.23,3.92,3.94,1.48.51,3.32,2.07a10.48,10.48,0,0,0,4.6,2.47c1.2.24,5.16,1.73,1.87-.91s-4.05-2-5.31-2.85-1.13-2.42-3.64-5.05-5.65-4.92-7.09-6.92-2.4-4.28-5.82-7.17-5.45-4.52-3.47-4.25,3-2.39,4.16-.34,2.83,5.17,2.83,5.17.27.56,3.22,3.12,3.89,2.26,4.81,2.58a8.83,8.83,0,0,1,2.4,2.06s3.28-.22,3.77.78-.88,1,1.28,2.61-.19.56,2.15,1.57a24.79,24.79,0,0,1,4.25,2.39l6.23,3a6.39,6.39,0,0,0,2,2.12c1.42,1,2.66.27,2.32,1.7S467,303,467.7,303s.95.17.71.75,2,1.4,3.51,3,2.5,1.32,4.23,1.86a7.75,7.75,0,0,1,3.05,1.52c1.39.94,0,.4,2.82.08a13.47,13.47,0,0,1,5.2.54c.74.1,2-.21,7-.12s6.64.57,8.92.26,3,.4,4.28-.71,1.64-2.3,2.8-2.29,1.15,1.4,2.09,0,1.19-1.35,2-.66,4,1.09,4,1.09-1.46,1.75,2.54,2.11c3.64.33,7,.38,7.94-.39.12.15.52.27,1.39.33a16.19,16.19,0,0,1,6.26,1.45,6.32,6.32,0,0,1,2.76,2.57,1.9,1.9,0,0,0,2.08,1.18c1.26,0,2.52-1,4-.8s.22,1.16,2.73,1.09a12.28,12.28,0,0,0,3.68-.52l.89-1,3.21-1s1.67.11,2,.62-.15,1.35,1.19,1.26a2.36,2.36,0,0,0,1.87-.91s2.66-1.88,1.6-2.63-3,.44-2-1.23,1.5-2.35,2-3,.61-1.11,2.28-.54,1.68-1.06,1.67.57.13,2,1.13,1.65a3.47,3.47,0,0,1,1.92-.14s1.46-.08,1.77.55-.71.9-.21,1.69-1,1.2,0,1.72,0,1.49,1,2.19-.43,1.49,1.23,2.29,1.56,2.24,0,3.72-1.57-.39-1.64,2.07.26,2.42-.49,3.09a26.42,26.42,0,0,0-2.6,3.2c-1.13,1.48-1.67-.11-1.35,2.43s1.06,2.18.18,4.15a3.37,3.37,0,0,0,.06,3.29s5.33-3.46,3.79-.93a10.46,10.46,0,0,0-1.74,3.7,13,13,0,0,0-.35,1.79l-.12,2.29.79,2.24s.29-.68,2.51-.38,2.63.17,3.06.43a19.51,19.51,0,0,0,5,2.55,34.52,34.52,0,0,0,5,1.48c1.16.24,1.86-.45,2.32.72s.13.74,2.59.34,4.19-.42,5.68-1.15,5.22-1.86,6.24-2.37,1.64-.91,1.35.15-.13,4.46-.94,6.82-.82,3.53-2.7,5.37-2.86,3.13-4,4.28-1.1,3.64-1.1,3.66a147.62,147.62,0,0,0,59.53-115.58l-2.54,1.69Zm-134.64-108c.34-.48,1.24-.22,1.89-.08a1.75,1.75,0,0,0,2.11-.8c.69-1,1.41-1,2.55-1s.28.9-.7,2,0,.54-1.1,1.08,0,.75-.16,1.39-1.69-.37-3.46-.77S513.93,154.36,514.67,153.34Zm-36.45,44c3-3,1.77-3.47,4.73-2.87s3.48-.91,4.58.63,4.22,1.77,4.22,1.77l3.67-1,5.55-1.41a3.51,3.51,0,0,1,2.7.79c.91,1,2.21,1,.15,2a19.81,19.81,0,0,1-5,1.38s-.29.72.78,2.74,1.83,1.18,1,3.08-3.57,4.52-1.1,3.2,3.79-3.59,5.28-3.39,1.4-1.85,2.48-2.49-.6-.76.3-2.46.67-2.53,2.84-3.35,1.47-1.3,3.43-2.26,4.36-.07,1.94,1.59-3,1.37-4.67,3.22-2.28.53-1.84,2.63,2.08.94,0,3.11-1,.78-3.68,2.64-1.93,1.72-4.35,2.68-4.38,1.91-4.13-.41,3.46-3.08,1.81-4.82-2.46-1-3.53.11-.25-2-.6-2.8a2.57,2.57,0,0,0-3.1-1c-1.52.42-2.16-.87-2.44,1.63s-.94,1.13-.87,2.46-.81.25.79,3.52,3.24,5,.73,6.91-5-2.5-4.74-5,.76-4.37-.7-3.56-1.21-2.7.32-3.84,2.34-1.35,3.64-2.25,2.5-1.26,2.51-1.72-2.63-1.6-4.15-.45-.15.64-2.17,2-4.25,1.94-4,1.06.77-1.13-1.07-.93S478.22,197.3,478.22,197.3Zm-20.11-7.94c1-.68-.28-.89-.61-2s.91-1.14,3.12-2.14c0,0,.73.56-.14,1.3s-.28.68-.23,1.42a4.77,4.77,0,0,0,.63,2.08c.58,1.34.64,1.62,2,2.28s.95.84,2.28,2.78-.4,1.54-1.56,2.49,0,0-.58-1-.47-1.92-1.93-3-1.44.05-2.09-.95-.14-1.24-1.46-1.67S457.14,190,458.11,189.36ZM454.84,191s1.82,1,1.38,2,.07,1.57,1.31,1.58,1.34-.27,1.42.84.92,1.1,2,2.56-1.1,1.38-1.81-.07-1.09-.82-2.39-1.11-1.42-.69-1.58-1.54-.19-1.29-2-1.93S452.29,192.1,454.84,191Zm-9.51-8.49c-.71-1.79-.92-1.26.95-1.85.66-.2,1.43,0,1.72,2s-.52,1.07-1.63,2.71S446,184.32,445.33,182.52Zm-12,57.88c.1,2.21-.47,1.27-2.23,2.3s-.45-.93-1.66-3.4-1.05-1.55,1.46-2.91C432,235.82,433.26,238.2,433.36,240.4Zm-17.92-68.63s.64-.6,2.34-2,.19-.44-1.19-.4-.94.29-3.53,1.15,1.57-1.29,3.95-2.57.61-.42,3.26-1.25c1-.32.39,1,2,.83s.16.33.52,1.07-.08,1.14-1.61,1-.93.45-1.14,1-1.19,2.43-1.19,2.43a20.06,20.06,0,0,1-3.64.11C413.6,173,415.44,171.77,415.44,171.77ZM431.87,173c-.67.39-.8,1.09-1.22,2.45a2.91,2.91,0,0,1-2,2.12c-1,.5-1.12.78-3.18,2.6s-1.5,1.08-3.17.85-1.92-.15-2.27-.5,2-.85,2.41-1.59a9.86,9.86,0,0,0,.78-2.17,1.5,1.5,0,0,1,0-2.18c.51-.46.72.4,1.62,1.17s1.54,1,3,.12,1.3-1.82,3.33-3.11S432.55,172.59,431.87,173Zm97.26,136.49c.43-1,1.09-2.14,1.54-1.43C530.94,308.46,529.76,309,529.13,309.47Z"/><path class="cls-45" d="M468.33,151.68c-1.21-.22-2-.86-1.49.26s-.43,1.25.91,1.87,1.43.68.64,1.07-.8,1,.17,1.54.66,1.81,1.62.71a10.65,10.65,0,0,0,1.89-2.89c.3-.79-.16-1.14,1.12-1a2.82,2.82,0,0,0,2.75-.88c.61-.76,1-1.9-.55-1.12s-2,1-2.3.37.26-1.11-1.65-.52A12.6,12.6,0,0,1,468.33,151.68Z"/><path class="cls-45" d="M474.29,154.54c-1.44.58-2.1.54-2.17,1.83s.49,2.4,1.47,1.11,1-1.26,1.47-2S475.3,154.13,474.29,154.54Z"/><path class="cls-45" d="M479.46,151.86c-2,.92-2.47,1.68-1.18,2.08s2.17.65,2-.42S480.17,151.54,479.46,151.86Z"/><path class="cls-45" d="M486.31,164.05c-.58.32-.44.84-.36,1.56s.2.41-.14,1.12.11.79.9.75,1.57-.19,1.13-1.09-.92-.94-.47-1.74S486.85,163.75,486.31,164.05Z"/><path class="cls-45" d="M535.43,161.23c-3.09,1.61-7.33,1.65-4.61,2.26s3.66.88,5,.14S535.43,161.23,535.43,161.23Z"/><path class="cls-45" d="M543.45,163.62c-1,.42-.07.29-.27,2.12-.15,1.34-.55,3-.28,3.1s.47-.35.63-.61a2.91,2.91,0,0,0,.34-1.59,16.55,16.55,0,0,0-.42-3Z"/><path class="cls-45" d="M546.14,165.88c.78.29,1.21.22.93,1s-.12.11-.25,1.14.21,2-.6,1.31a2.63,2.63,0,0,1-.82-2.54A1.26,1.26,0,0,1,546.14,165.88Z"/><path class="cls-45" d="M540.85,150.81a1.77,1.77,0,0,0-.27,2,7.45,7.45,0,0,1,.35,1.68l.18,1.3a1.55,1.55,0,0,1,.82,1.1,5.12,5.12,0,0,0,.43,1.47s-.65.46-.62.86-1.7.16,0,.84,1.31.38,1.35,1.07.85,1.26,1.44.68-.93-.47,1.78-1.48,2.36-2.57,2.89-2.08.65.49.77-.14,1.27-2.07,1-.78-1.15,2.88-.09,2.62,2.26-1.55,1.43-2.56-1.15-2.35-.14-1.34,1.05,2.26,2,1.69,1.25-.31,1.94-.29,1.76-.42.4-1.43-1.74-3-2.12-1.86-1.11,1.76-2.05.78-.88-1.08-1.94-1.37-.38-2.07-1.92-1.37-1.06,2-2.27,1.92-1.72-1.18-2-.06-.37,2.27-1,1.73-1.22,0-1.23-1.21S541.48,150.1,540.85,150.81Z"/><path class="cls-45" d="M421.38,157.13c-2.44-.42-5.09,1.72-2.9-1.35s2.63-2.52,3.38-4a6.07,6.07,0,0,1,1.94-2.18s3.23-1.58,4.16-1.26,2.57-.11,1.11.84a12.4,12.4,0,0,0-2.53,2.24l-1.44,1.78-1.23,2.38Z"/><path class="cls-45" d="M431,150.65c-.24-.61-.3-1.24-1.36-.26s-2,1.07-2.71,1.71-.07.34-.63,1.24-1.46,2.09-1.46,2.09l1.84-.36s2.08-.16.77.47-4.75,2.1-3,1.93,3.38-1.43,4.84-1.45,1.46.21-.27,1.06-4.88.92-2.74,1.34,2.93-.82,2.71.3,0,1.45,1.79.35,1.44-.36,2.94-1.38a12.93,12.93,0,0,0,2.63-2.5,1.81,1.81,0,0,1,2.15-1.44c1.89.23,4.54,1.25,5.6.58s.63-1.08-.33-1.46-.92-.79-.08-1.43,1.78-1.56.2-1.48a2.19,2.19,0,0,1-2.4-1.6,3.21,3.21,0,0,0-1.63-1.59c-.46-.16.18-2.32-.65.24s-.47,3.93-1.08,3.46a4,4,0,0,1-.88-2s-.3-1.24-1.21-.57-.68.18-1.24,1.23-.55,1.73-1,1,0-1.64-.83-1.06-1.06.67-1.19,1S431.28,151.36,431,150.65Z"/><path class="cls-45" d="M447.13,143.67a10,10,0,0,1,2.24.81s1.52-.69.9.89-.55,1.71-1.16,2.36.2,1.69-1.15,1-1.13-.9-1.84-.92-1.95-.46-.83-1.12,1.33-.83,1.06-1.73S447.13,143.67,447.13,143.67Z"/><path class="cls-45" d="M452.61,144.59c-.93.95-2.28,2.08-2,2.82a6.13,6.13,0,0,0,1.51,1.81,8.53,8.53,0,0,0,1.34-1.18,4.44,4.44,0,0,1,1.68-1.17c.89-.43,1.62-1.06.55-1.59A11.16,11.16,0,0,0,452.61,144.59Z"/><path class="cls-45" d="M450.57,142c-.32.52-.25.66.13,1.45s.39,1.49.83,1.1.42-.55.89-.9-.73,1.11.75-.36,1.38-1.89,1.48-2.4,1.42-1.71-.35-.71S450.57,142,450.57,142Z"/><path class="cls-45" d="M459.91,137c-.91,0-.61.36-1.11,1s-.91-.45-1.38,1.17-1.21.82-.48,1.62a5.3,5.3,0,0,0,1.35,1.09s1.28-.35,1.38.46,1,.93,1.26.44a4.24,4.24,0,0,1,1.82-1.37,29.9,29.9,0,0,1,2.89-1.24c.77-.26,2.07-.9,2.07-.9s1.16,1.06,1.79,0-.19-2.16,1.3-2a7.06,7.06,0,0,0,2.46,0l1.94.19,2.37,1.9,2.33-1.14a3.62,3.62,0,0,1,1.25.41c.3.26.05-2.95,1.46-1.73a4.37,4.37,0,0,1,1.58,2.15s-.91.76-.8,1.57.79.55.09,1.24a5,5,0,0,1-1.6,1.34c-1,.54.52.25-1.73.83s-2.26,0-2.64.88-.87.77-.17,1.75a2.89,2.89,0,0,0,2.24.93s3.26-1,3.48-2.22,1.54-.75,3-1.16a8,8,0,0,1,4.36-.06c.83.41-.42.67,2.72-.34a48.47,48.47,0,0,1,4.73-1.45c1.35-.31,2.87-.43,2.47-.61a6,6,0,0,0-3.69-.7c-1.51.22-3.42-.12-2.37-.35s3-.38,3-.38a23.86,23.86,0,0,1,3.43-.33c.46.12,3.29.47,1.25-.38s-2.26-1.32-2.26-1.32l-3.14-1.45a6.77,6.77,0,0,0-2.1.2,6,6,0,0,1-2.53-.09s-.52-1.19-1.48-.9.09-1.37,1-1.13,1.3.64,2.48.46.26-.64,2.1-.33,2.18-.72,2.18-.72l-.56-1.51-1.07-1.48s-1.63.81-2.52,1.23a2.36,2.36,0,0,1-2-.22l-1.51.34-2.86.88s-2.29.77-2.26,0a4.53,4.53,0,0,0-.33-1.63l-1.55-.34a21.44,21.44,0,0,0-2,.94,3.22,3.22,0,0,1-1.86,0s-.3-.6-2.14.24a10.09,10.09,0,0,1-2.26.93c-.46.11-.89-1.59-3.24-.61s-3.17,0-3.79,1.28-.7,2.42-2.18,1.64-1.49-2-3-1.17-2.94,1.26-2,2.08a15,15,0,0,0,2.37,1.53c-.64,1.3-.25,1.28-.92,1.67s-1,.06-1.23-.62.05-.48-.66-1.47Z"/><path class="cls-45" d="M465.17,133.05c-.39,1.23-.69,1.67.23,1.65s2-.12,2.28-1.12,1.77-2.16.28-1.9A7,7,0,0,0,465.17,133.05Z"/><path class="cls-45" d="M449.82,137.84l.92,1.29s.65.26,1.46.5a2.7,2.7,0,0,0,2.27-.32c.5-.4-.24-.5.69-1.31a23,23,0,0,1,2.84-1.65c1.36-.86,3-1.66,3.63-2.15a2.13,2.13,0,0,0,.68-1.43s0-.65-2.67.67-2.1,1.38-3.57,1.86-2.11-.81-2.49.3.74,1.16-.07,2-.41,1.52-1.44.71-1-.95-1.19-1.37S449.82,137.84,449.82,137.84Z"/><path class="cls-45" d="M465.5,123.7c-2.74,1.24-4.2,2-4.2,2l-3.54,1.65s-1.21.13-1.2.87-.88,1.28-.88,1.28-2.9-1.33-2.19-.22l.72,1.11s1.67.58,1.83.91a9.24,9.24,0,0,1,.36,1.45l-1,.49-.42-.86,3,1.49,1.12-.54-1.52.54-3.27.52s-.12,1.28,1.58.45,1.35-.24,3.25-2,2.31-2.26,3.5-2.84-1,.92,1.86-1,3.56-2.17,3.06-3a11.62,11.62,0,0,1-1-1.43C466.15,123.85,466.5,123.25,465.5,123.7Z"/><path class="cls-45" d="M447.16,136.43a1,1,0,0,1,.75-.37.78.78,0,0,1,.62.32c.23.37-.06.93-.42,1.2s-.75.38-1,.16S446.85,136.8,447.16,136.43Z"/><path class="cls-45" d="M445.25,139.68c.37-.06.71.53.77.62a1.71,1.71,0,0,1,.14,1.32,1.07,1.07,0,0,1-.55.77,1,1,0,0,1-1.11-.54c-.15-.31-.06-.62.1-1.13S444.92,139.72,445.25,139.68Z"/><path class="cls-45" d="M448.23,140.41a1.27,1.27,0,0,1,1.8-.34c.22.31-.1.89-.17,1s-.36.66-.74.67A1.12,1.12,0,0,1,448.23,140.41Z"/><path class="cls-45" d="M447.14,139.13c.05.2.33.27.37.29.55.14,1.25-.4,1.2-.78,0-.2-.25-.33-.42-.38C447.74,138.11,447.05,138.78,447.14,139.13Z"/><path class="cls-45" d="M442.21,136.62a3.43,3.43,0,0,0-1.49.57c-.89.47-1.33.71-1.31.95s.85.58,1.28.64a2.89,2.89,0,0,0,2.09-.52c.3-.21.86-.6.79-1S442.75,136.61,442.21,136.62Z"/><path class="cls-45" d="M445,136.07a.82.82,0,0,0-.26,1.2.78.78,0,0,0,.82.26.84.84,0,0,0,.53-1.11A.8.8,0,0,0,445,136.07Z"/><path class="cls-45" d="M437.72,142.16c.33,0,.31.53.86.82s.64.06.79.27,0,.81-.31,1.11a1.46,1.46,0,0,1-2,0,1.39,1.39,0,0,1-.16-1.27C437,142.67,437.37,142.13,437.72,142.16Z"/><path class="cls-45" d="M429.94,146.28c.07-.52.49-.84,1-1.23a5.34,5.34,0,0,1,1.42-.73,4.51,4.51,0,0,1,1.56-.42,2.57,2.57,0,0,1,1.9.57c.06.06.58.55.44.9s-.56.32-1.16.38c-1.24.12-1.62-.17-2.32.13a9.3,9.3,0,0,0-.78.54c-1.11.79-1.31,1-1.57,1S429.89,146.72,429.94,146.28Z"/><path class="cls-45" d="M424.92,146.65c-.14-.36.7-1,.88-1.12.5-.37.9-.68,1.32-.53s.71.67.58.95-.62.06-1.27.39a2.27,2.27,0,0,0-1,1s-.74.09-.76-.05S425,146.93,424.92,146.65Z"/><path class="cls-45" d="M429.82,143.18c-.12.14-.47.55-.34.82s.89.31,1.38.06a1.39,1.39,0,0,0,.7-.85c.05-.15.15-.54,0-.71S430.32,142.58,429.82,143.18Z"/><path class="cls-45" d="M434.68,141.07c-.67.08-1.31.64-1.22,1s.65.41,1.07.37c.67-.07,1.34-.62,1.26-1S435.13,141,434.68,141.07Z"/><path class="cls-45" d="M440.59,145.12a1.35,1.35,0,0,1,1.94-.38,1.26,1.26,0,0,1,.22,1.09,1.28,1.28,0,0,1-1,1A1.39,1.39,0,0,1,440.59,145.12Z"/><path class="cls-45" d="M475.5,138.69a1.46,1.46,0,0,1,1.52,1,1.61,1.61,0,0,1-.55,1.48c-.69.64-1.92.71-2.32.21C473.62,140.71,474.36,138.82,475.5,138.69Z"/><path class="cls-45" d="M538.31,168.59c.79-.18,1.32,1,2.36.81.67-.11,1-.67,1.17-.54s.09,1.11-.48,1.47-.92-.1-2-.05c-1.29.07-1.84.79-2.12.54S537.44,168.78,538.31,168.59Z"/><path class="cls-45" d="M540.86,247.11c-.26.51.23,1.48.91,1.86s1,0,1.42.39.21,1,.79,1.61c.32.32.87.59,1.21.42.51-.27.33-1.48.26-2a3.41,3.41,0,0,0-.79-2.08C543.55,246.19,541.25,246.33,540.86,247.11Z"/><path class="cls-45" d="M538.26,250.77a1.23,1.23,0,0,1,1.76-.17,1.2,1.2,0,0,1,.17,1.61,1.16,1.16,0,0,1-1.27.39A1.28,1.28,0,0,1,538.26,250.77Z"/><path class="cls-45" d="M543.28,253.78c.29-.11.64.16,1.23.63.89.71,1.51,1.19,1.47,1.91a1.6,1.6,0,0,1-1.44,1.47c-.81,0-1.25-1-1.41-1.31C542.64,255.43,542.74,254,543.28,253.78Z"/><path class="cls-45" d="M547.05,250.63c-.59.34-.94,1.19-.69,1.57s1.12,0,1.82.57c.34.3.3.55.64.69a1.08,1.08,0,0,0,1.27-.39c.28-.49-.11-1.1-.26-1.33C549.27,250.88,548,250.11,547.05,250.63Z"/><path class="cls-45" d="M550.79,255.43a1,1,0,0,0,.23,1.27,1.08,1.08,0,0,0,1.39.17,1.09,1.09,0,0,0-1.62-1.44Z"/><path class="cls-45" d="M554.14,254.25c-.35.41.06,1.3.26,1.64a2.16,2.16,0,0,0,1.54,1.1c.13,0,.93.06,1.25-.45s-.18-1.34-.24-1.43C556.27,254.09,554.6,253.72,554.14,254.25Z"/><path class="cls-45" d="M562.81,258.1c-.71.52-1.14,1.65-.67,2.26a1.42,1.42,0,0,0,1.2.41,1.86,1.86,0,0,0,1.69-1.44,1.48,1.48,0,0,0-.49-1.46A1.59,1.59,0,0,0,562.81,258.1Z"/><path class="cls-45" d="M526,279.33c-.65-.79,1.78-4.1,4.14-6.34A25.22,25.22,0,0,1,538,268.1a38.32,38.32,0,0,1,6.83-2.1,33.41,33.41,0,0,1,6.51-1.19,4.79,4.79,0,0,0,1.74-.23c1.17-.41,1.4-1.07,2.24-1.1s.74.46,1.73.7a5.07,5.07,0,0,0,2.91-.35c1.34-.46,1.68-1,2.24-.78a1.74,1.74,0,0,1,.85,1.74c-.12,1.19-1.51,1.89-2.75,2.58-5.48,3.05-7.15,5.56-8.46,4.75-1-.59-.72-2.37-1.53-2.49s-1,1.24-2.11,1.35-1.22-.86-2.35-1c-.65-.09-.93.17-3.17,1.39-2.51,1.37-3.13,1.56-3.85,1.58s-.65-.16-1.8-.2-3.1.08-3.22.65c-.09.41.78.75.67,1.06s-1.62-.21-2.85.47c-.55.31-.44.53-1.69,2.22s-1.83,2.05-2.31,2.21C527.45,279.39,526.36,279.74,526,279.33Z"/><path class="cls-45" d="M564.82,263.24c.16-1,2-.88,4.39-2.38,1.72-1.06,1.6-1.61,3.78-2.89a7.66,7.66,0,0,1,2.8-1.14c1.2-.16,1.37.22,3,.17,1.83-.06,2.64-.58,3.07-.11a1.59,1.59,0,0,1,0,1.62c-.75,1.53-2.78.8-4.71,2.65-.55.54-.56.76-1.36,1.48-1,.87-1.47,1-1.64,1.61s.13.64.13,1.67a3,3,0,0,1-.2,1.49c-.61,1-2.26.07-4.33,1.07-1,.5-1.06.93-1.91,1.06-1.29.19-2.64-.59-2.6-1.05s1.88-.21,2.8-1.37c.73-.91.9-2.35.4-2.73s-1.72.81-2.75.3A1.54,1.54,0,0,1,564.82,263.24Z"/><path class="cls-45" d="M478,116c-1.41,1-2.51,1.28-4.44,2.75a3.35,3.35,0,0,0-1.4,1.85c-.13.57.06.74-.11,1.21-.39,1.1-1.81,1.13-1.82,1.7s1.66,1.14,2.68,1.46a5.7,5.7,0,0,0,2.32.48c1.57-.24,1.73-1.74,3.64-2.47a6.75,6.75,0,0,1,2.28-.31,26.23,26.23,0,0,1,4.92.37c4.95.64,5.49.74,6.26.29a4.05,4.05,0,0,1,2-.73c.14,0,1.38-.07,1.62.48s-.93,1.33-.67,1.94,1.16.51,1.76.53a2.33,2.33,0,0,0,1.77-.4c.51-.49.29-1.11.66-1.25s.55.12,1.62.94l1.29,1a8.65,8.65,0,0,0,2.17,1.36c.9.3,1.11,0,2.23.3a8,8,0,0,1,1.9.81c2.27,1.06,4.78.86,4.82.64s-1.23-.45-1.2-.57a27.77,27.77,0,0,1,4.68.6c4,.61,4.68.65,5.67.47,1.48-.28,1.36-.65,2.93-.86a19.06,19.06,0,0,0,3.9-.52,5.23,5.23,0,0,0,1.31-.64c.48-.34,1.09-.75,1.13-1.25,0-.68-1-1.25-1.89-1.73-2.44-1.31-3.43-.85-5.19-2.09-1-.71-.86-1-1.7-1.36-1.49-.66-2.61-.1-3.2-.86-.26-.33-.24-.77-.22-1.63.05-1.8.68-2.18.4-2.74-.36-.71-2-.79-5.2-.92-1.23,0-1.63,0-2.13-.35-1-.63-.73-1.57-1.79-2.71-.64-.69-1.93-1.64-2.82-1.27-.24.09-.35.25-1.69,2.44-.44.72-.61,1-.89,1-.48,0-1.05-.78-1.1-1.55-.08-.94.63-1.43.43-1.71s-1.38.17-3.77.8c-1.73.46-2.32.5-2.7.17s-.14-1-.63-1.54-1.1-.48-2.32-.49-2.4,0-3.26.67c-.65.52-.53.9-1.07,1.11-.78.29-1.38-.37-2.65-.68a6.53,6.53,0,0,0-2.64,0,10.46,10.46,0,0,0-5,2.32C479,114.56,479.64,114.84,478,116Z"/><path class="cls-45" d="M525,161.59c3,4.29-1.91,10.35-.19,15.29a12.3,12.3,0,0,1,1.95-6.48,6.87,6.87,0,0,1,3.22-2.86,3.71,3.71,0,0,1,4,.83c.47.55.73,1.25,1.25,1.75,1.36,1.29,3.57.5,5.31-.21s4.22-1,5.07.66c.68,1.35-.32,3-1.44,4s-2.49,2-2.81,3.45c-.26,1.22.27,2.44.55,3.65s.14,2.74-.94,3.33a8.53,8.53,0,0,0-3.95-8l-1,8.69a3.18,3.18,0,0,1-.54,1.71c-.55.68-1.52.77-2.33,1.09-1.81.72-2.88,3.23-1.65,4.73,1.79,2.21,6.31.61,7.58,3.15.61,1.24-.05,2.76-1,3.73s-2.24,1.62-3.22,2.58a7,7,0,0,0-1.78,7c.33,1.05.92,2.13.63,3.2-.74,2.81-6,1.87-6.86,4.64.72,1.23,2.53,1,3.91,1.39,2.56.71,3.75,3.91,3.17,6.51s-2.41,4.71-4.19,6.7-3.62,4.08-4.24,6.67c-1.83,7.66,7.71,14.29,6.68,22.09-1.61.91-3.62-.4-4.68-1.91s-1.81-3.39-3.43-4.3c-3.31-1.85-8.37,1.38-10.93-1.43-.93-1-1.45-2.77-2.83-2.79a2.44,2.44,0,0,0-1.33.49,7.61,7.61,0,0,0-3.29,5.35,17.67,17.67,0,0,1-.36,3.25c-.78,2.41-3.49,3.49-5.69,4.76a18.72,18.72,0,0,0-9,18.26c.28,2.08.83,4.45-.5,6.05a4.54,4.54,0,0,1-3.31,1.41c-4.37.2-8.17-3.44-9.58-7.58s-.93-8.64-.32-13c.78-5.59,2.09-11.69,6.59-15.1,1.57-1.18,3.43-2,4.94-3.21,5.35-4.45,4.71-13.43,9.87-18.1,2.67-2.41,6.6-3.35,8.71-6.28,1.47-2.05,1.75-4.71,2-7.23.36-4.22.7-8.59,2.75-12.3s5.65-6.45,7.46-10.29c2.46-5.25,1.18-11.66,3.63-16.92a11.34,11.34,0,0,0,1.34-3.44c.18-1.61-.64-3.13-1.06-4.7a9.74,9.74,0,0,1,1.61-8.19"/><path class="cls-45" d="M524.24,180.17a13.17,13.17,0,0,1,.06-12.79,19.32,19.32,0,0,1,10-8.45A3.09,3.09,0,0,0,536,157.8c.73-1.27-.67-2.76-.65-4.23,0-1.83,2.2-3.23,1.91-5-.33-2-3.2-2.22-5-1.38s-3.66,2.28-5.63,1.83c-1.42-.32-2.43-1.54-3.7-2.26-4.24-2.41-10.18,1.23-14.26-1.44-1-.66-2-1.71-3.17-1.54-1.56.23-2,2.28-3.25,3.26-1.71,1.36-4.16.32-6.27-.22a12.66,12.66,0,0,0-13.51,5.46l3,6.41c-2.13.19-1.86,3.55-.42,5.13s3.57,3.17,3.14,5.26c-.52,2.52-4.09,2.73-6.49,1.81s-5.09-2.35-7.33-1.1-2.67,4.41-4.9,5.52c-1.77.88-3.88.09-5.65-.8-2.91-1.45-6.14-4.16-5.22-7.28,1-3.28,5.82-4.06,6.89-7.3.86-2.6-1.17-5.58-.11-8.1.55-1.32,1.87-2.31,2-3.73.2-1.88-2-3.33-3.89-3a6.6,6.6,0,0,0-4.14,3.63,2.75,2.75,0,0,1-.9,1.14c-.87.51-1.92-.15-2.89-.42-2.53-.67-4.92,1.5-6.29,3.73a4.56,4.56,0,0,1-2,2.16,6.43,6.43,0,0,1-2.82-.11c-4.8-.51-8.05,4.93-8.73,9.71a3.45,3.45,0,0,1-.7,2c-1.13,1.19-3.23,0-3.86-1.49s-.53-3.27-1.28-4.72a4.63,4.63,0,0,0-7.39-.66c-.95,1.22-1.42,3.08-2.93,3.45s-2.65-.88-3.86-1.67A7.3,7.3,0,0,0,406,164c-.68,1.1-1.26,2.55-2.53,2.76-3.19.54-2.62-6.51-5.84-6.74a3,3,0,0,0-2.2,1c-5,5,.37,15.23-4.89,20l27.14,21.47a9,9,0,0,1,2.91,3.18,9.35,9.35,0,0,1,.26,4.85c-.79,7.15,0,15.84,6.3,19.3a12.36,12.36,0,0,0-3.27,14.62c3.38,6.91,12.27,8.91,20,8.89,1.51,0,3.2-.13,4.21-1.26,1.6-1.77.49-4.79,1.79-6.79.81-1.23,2.33-1.75,3.74-2.19l29.73-9.21c3.55-1.1,7.37-2.2,10.93-1.13,2.54.77,4.63,2.56,7,3.67s5.62,1.38,7.4-.58c2.45,1.86-.47,6.79,2.07,8.52a5.85,5.85,0,0,0,2.5.63,8.52,8.52,0,0,1,6.44,4.94c-4.48.85-9.19-.38-13.64.64-5,1.14-9,5-11.48,9.4s-3.76,9.45-5,14.39Z"/></g><path class="cls-46" d="M390.81,322.86A147.39,147.39,0,0,1,562.63,116.05a147.4,147.4,0,1,0-95.45,278.36A146.81,146.81,0,0,1,390.81,322.86Z"/><path class="cls-47" d="M571.39,384.79A147.49,147.49,0,0,1,362.64,284.11c38.29,26.3,93.95,48.77,158.22,26.31C599.21,283,621.4,213.72,627.25,167.63a148.92,148.92,0,0,1,11.77,20A147.41,147.41,0,0,1,571.39,384.79Z"/><path class="cls-47" d="M639,187.6A147.4,147.4,0,0,1,451.63,389.14c171-25.08,177.28-220.26,132.69-262A146.54,146.54,0,0,1,639,187.6Z"/><path class="cls-43" d="M512.47,446.62s4.94-93.51-44-114.66-97.92-6.58-136.29-52.85c0,0,.55,151.29,151.63,133,0,0,23.6,15.65,20.36,119.42h10.34Z"/><path class="cls-48" d="M520.48,531.57s-8.32-77.18,11.91-105.17,115.78-11.23,139.46-74.9S720,275.83,720,275.83s-110.92-25.11-159.88,38.69-49.19,151.9-48.95,217.05Z"/><path class="cls-19" d="M528.86,406.33a203.14,203.14,0,0,0,36.49-29.77c11-11.19,21-23.34,31.46-35.29,5.27-5.93,10.64-11.83,16.42-17.38A130.73,130.73,0,0,1,632,308.78a87.15,87.15,0,0,1,21.71-10.41,84.34,84.34,0,0,1,23.56-3.77,102.44,102.44,0,0,0-22.72,6.11A95,95,0,0,0,634.21,312a144.45,144.45,0,0,0-17.62,15.29c-5.53,5.51-10.8,11.35-16,17.29s-10.4,11.9-15.76,17.77S574,374,568.1,379.39C556.42,390.24,543.29,399.71,528.86,406.33Z"/><path class="cls-49" d="M492.15,394.8a91.88,91.88,0,0,0-18-13.3,125.88,125.88,0,0,0-20.28-9.1c-7-2.45-14.16-4.62-21.38-6.66s-14.46-4.21-21.65-6.64a165.85,165.85,0,0,1-21.08-8.86,110.73,110.73,0,0,1-19.21-12.55,103.31,103.31,0,0,1-16-16.32,123.06,123.06,0,0,1-12.11-19.16,177.09,177.09,0,0,0,14,17.54A116.45,116.45,0,0,0,373,334.56c11.89,8.8,25.43,15,39.51,19.74,14,4.93,28.72,8.57,42.8,14.42A109.66,109.66,0,0,1,475.5,379.4,75.81,75.81,0,0,1,492.15,394.8Z"/><path class="cls-28" d="M603.05,562.33s-10.18.14-25.81.31c-22.43.22-56.1.5-87,.49H427.06c.62-6.55,6-18,12.43-19.2a12.55,12.55,0,0,0,3.92-1c2.64-1.49,3-5,4.35-7.76A11.3,11.3,0,0,1,458.21,529a8,8,0,0,0,2.81-.05c2.35-.67,3-3.62,4.11-5.76,1.81-3.37,5.6-5.25,9.37-5.79s7.59,0,11.38.48a50.1,50.1,0,0,0,5.19.37,19.94,19.94,0,0,0,6.19-.83c2.67-.85,5-2.38,7.54-3.62a35.71,35.71,0,0,1,31.8.34,8.82,8.82,0,0,0,3.72,1.35,10.25,10.25,0,0,0,3.6-.93A14.77,14.77,0,0,1,557.67,517c2,1.62,3.6,3.82,6,4.78a18.64,18.64,0,0,0,5.26.88,24.55,24.55,0,0,1,19.35,14.19c1.27,2.89,2,6.07,3.91,8.59,1.52,2,3.67,3.42,5.44,5.2C600.71,553.74,603.05,562.33,603.05,562.33Z"/><path class="cls-45" d="M603.05,561.87q-19.75.25-39.52.43-29,.26-58,.35-13,0-26,0H430c-.85,0-1.74-.07-2.59,0h-.33l.48.42a27.8,27.8,0,0,1,2.61-8.75,23.9,23.9,0,0,1,5.37-7.77,9.33,9.33,0,0,1,3.41-2c1.73-.51,3.59-.38,5.13-1.45,2.82-2,2.93-5.86,4.61-8.61a10.79,10.79,0,0,1,9.42-5.05c1.74.08,3.36.26,4.71-1.06a12.47,12.47,0,0,0,2.26-4,11.46,11.46,0,0,1,8.67-6.4c4.63-.9,9.34.13,14,.54a23.24,23.24,0,0,0,12.67-1.92c2-1,3.86-2.11,5.88-3a35.06,35.06,0,0,1,29.85.81c1.79.91,3.45,1.84,5.51,1.38,1-.22,1.88-.65,2.83-.94a13.63,13.63,0,0,1,3-.54,14.55,14.55,0,0,1,11,4,22,22,0,0,0,4.3,3.58c1.84,1,3.92,1,6,1.25a23.42,23.42,0,0,1,10.3,3.68,24.23,24.23,0,0,1,7.6,7.81c2,3.36,2.66,7.39,4.87,10.64,2.09,3.06,5.6,4.74,7.49,8a37.67,37.67,0,0,1,3.24,7.76c.16.51.32,1,.46,1.52s1.09.24.94-.32a49.64,49.64,0,0,0-1.87-5.47,31.06,31.06,0,0,0-1.93-4,14.36,14.36,0,0,0-3.11-3.62,23.5,23.5,0,0,1-4.54-4.59,30.07,30.07,0,0,1-2.58-5.83,24.93,24.93,0,0,0-15.08-15.15,24.31,24.31,0,0,0-5.13-1.24c-2.25-.27-4.56-.22-6.55-1.47-1.7-1.07-3-2.66-4.51-3.95a14.72,14.72,0,0,0-4.88-2.71,15.64,15.64,0,0,0-5.52-.77,23.24,23.24,0,0,0-5.8,1.38c-2.47.74-4.35-.69-6.49-1.69A35,35,0,0,0,529.8,511a36.69,36.69,0,0,0-12.12-1.12,35.22,35.22,0,0,0-11.94,3c-1.91.86-3.71,1.93-5.58,2.86a18.76,18.76,0,0,1-6.94,2c-8.42.67-18.22-3.75-25.67,2a10.6,10.6,0,0,0-3.15,3.88c-.69,1.47-1.19,3.35-2.5,4.4a4,4,0,0,1-2.93.59,12.57,12.57,0,0,0-2.81.06,12.09,12.09,0,0,0-4.77,1.83,11.7,11.7,0,0,0-3.69,3.88,34.61,34.61,0,0,0-1.9,4.69c-.69,1.76-1.67,3.36-3.57,3.94-1.63.5-3.29.46-4.84,1.23a16.39,16.39,0,0,0-6.06,6.06,33.5,33.5,0,0,0-4,9,24.42,24.42,0,0,0-.77,4c0,.28.26.42.49.42H498q29.63,0,59.25-.31,22.47-.18,44.92-.47h.88A.47.47,0,1,0,603.05,561.87Z"/><path class="cls-50" d="M603.05,562.33s-10.18.14-25.81.31c-1.62-3.76-2.81-7.73-4.89-11.11-4.51-7.33-10.15-7-23.4-7s-26.78-.57-37.8-14.1c-7.29-9-15.43-11.49-20.08-12.18a19.94,19.94,0,0,0,6.19-.83c2.67-.85,5-2.38,7.54-3.62a35.71,35.71,0,0,1,31.8.34,8.82,8.82,0,0,0,3.72,1.35,10.25,10.25,0,0,0,3.6-.93A14.77,14.77,0,0,1,557.67,517c2,1.62,3.6,3.82,6,4.78a18.64,18.64,0,0,0,5.26.88,24.55,24.55,0,0,1,19.35,14.19c1.27,2.89,2,6.07,3.91,8.59,1.52,2,3.67,3.42,5.44,5.2C600.71,553.74,603.05,562.33,603.05,562.33Z"/><ellipse class="cls-50" cx="488.88" cy="540.08" rx="4.76" ry="2.01"/><ellipse class="cls-50" cx="509.9" cy="550.86" rx="4.64" ry="2.01"/><ellipse class="cls-50" cx="463.72" cy="549.28" rx="10.68" ry="4.65"/><ellipse class="cls-50" cx="553.04" cy="555.41" rx="4.65" ry="2.54"/><path class="cls-28" d="M397.46,563.13s-1.24-7.33-3.53-8.92-3.18-3.69-5.48-5.55-4.77-.28-6.89-2.22-2.42-2.3-5-2.3-4.53,5.67-6.47,4.52-4.6-.45-6.54.78c-1.17.75-2.56.07-3.82.59-.83.35-1,3.1-2.19,3.24-3,.37-2.82,3.53-2.82,3.53s-2.15,1.22-2.67,1.62c-2.4,1.83-1.07,4.71-1.07,4.71Z"/><path class="cls-19" d="M373.64,524.59s-7.19-6-1.65-17.81C372,506.78,383,514,373.64,524.59Z"/><path class="cls-19" d="M376.55,534.77a6.65,6.65,0,0,1,3.62-7.33c4.86-2.74,4.86-4.77,4.86-4.77S386.53,537.68,376.55,534.77Z"/><path class="cls-20" d="M381.34,530a.71.71,0,0,0-.93.37c-1.21,2.78-4.51,4-6.06,4.5V512.78a.71.71,0,0,0-1.42,0V551.1a.71.71,0,0,0,1.42,0V536.3c1.53-.39,5.78-1.78,7.36-5.4A.71.71,0,0,0,381.34,530Z"/><path class="cls-28" d="M463.72,596.52s1.24-7.33,3.53-8.92,3.18-3.69,5.48-5.55,4.76-.27,6.88-2.22,2.42-2.29,5-2.29,4.53,5.67,6.47,4.51,4.59-.45,6.54.79c1.17.74,2.56.06,3.82.59.82.34,1,3.09,2.18,3.24,3,.36,2.82,3.52,2.82,3.52s2.16,1.23,2.68,1.62c2.4,1.84,1.07,4.71,1.07,4.71Z"/><path class="cls-19" d="M487.54,558s7.19-6,1.65-17.81C489.19,540.18,478.18,547.37,487.54,558Z"/><path class="cls-19" d="M484.62,568.16a6.62,6.62,0,0,0-3.62-7.32c-4.85-2.74-4.85-4.77-4.85-4.77S474.65,571.07,484.62,568.16Z"/><path class="cls-20" d="M479.84,563.37a.72.72,0,0,1,.93.36c1.21,2.78,4.51,4,6.06,4.5V546.18a.71.71,0,0,1,.71-.71.7.7,0,0,1,.7.71V584.5a.7.7,0,0,1-.7.71.71.71,0,0,1-.71-.71V569.7c-1.53-.39-5.78-1.78-7.36-5.4A.71.71,0,0,1,479.84,563.37Z"/><path class="cls-28" d="M579.47,583.34s-1.24-7.33-3.54-8.92-3.17-3.7-5.47-5.56-4.77-.27-6.89-2.21-2.42-2.3-5-2.3-4.53,5.67-6.48,4.51-4.59-.45-6.53.79c-1.17.75-2.56.06-3.82.59-.83.34-1,3.09-2.19,3.24-3,.36-2.82,3.53-2.82,3.53s-2.16,1.22-2.67,1.62c-2.4,1.83-1.07,4.71-1.07,4.71Z"/><path class="cls-19" d="M555.65,544.8s-7.19-6-1.65-17.81C554,527,565,534.18,555.65,544.8Z"/><path class="cls-19" d="M558.56,555a6.64,6.64,0,0,1,3.62-7.32c4.86-2.74,4.86-4.77,4.86-4.77S568.54,557.88,558.56,555Z"/><path class="cls-20" d="M563.35,550.18a.71.71,0,0,0-.93.37c-1.21,2.77-4.51,4-6.06,4.49V533a.71.71,0,0,0-1.42,0v38.32a.71.71,0,1,0,1.42,0v-14.8c1.53-.39,5.78-1.78,7.35-5.4A.7.7,0,0,0,563.35,550.18Z"/><path class="cls-28" d="M440,572.8s-1.24-7.33-3.54-8.92-3.18-3.69-5.47-5.55-4.77-.28-6.89-2.22-2.42-2.29-5-2.29-4.52,5.66-6.47,4.51-4.59-.45-6.53.78c-1.17.75-2.56.07-3.82.59-.83.35-1,3.1-2.19,3.25-3,.36-2.82,3.52-2.82,3.52s-2.16,1.22-2.68,1.62c-2.39,1.83-1.06,4.71-1.06,4.71Z"/><path class="cls-19" d="M416.16,534.27s-7.19-6-1.65-17.82C414.51,516.45,425.52,523.65,416.16,534.27Z"/><path class="cls-19" d="M419.07,544.44a6.65,6.65,0,0,1,3.62-7.33c4.86-2.73,4.86-4.77,4.86-4.77S429.05,547.35,419.07,544.44Z"/><path class="cls-20" d="M423.86,539.64a.71.71,0,0,0-.93.37c-1.21,2.78-4.52,4-6.06,4.5v-22a.71.71,0,0,0-1.42,0v38.32a.71.71,0,0,0,1.42,0V546c1.53-.4,5.78-1.79,7.35-5.41A.71.71,0,0,0,423.86,539.64Z"/><path class="cls-28" d="M589.44,562.54s1.24-7.33,3.53-8.92,3.18-3.69,5.48-5.55,4.77-.28,6.89-2.22,2.42-2.3,5-2.3,4.53,5.67,6.47,4.52,4.6-.45,6.54.78c1.17.75,2.56.07,3.82.59.83.35,1,3.1,2.19,3.25,3,.36,2.82,3.52,2.82,3.52s2.15,1.22,2.67,1.62c2.4,1.83,1.07,4.71,1.07,4.71Z"/><path class="cls-19" d="M613.26,524s7.19-6,1.65-17.81C614.91,506.19,603.9,513.39,613.26,524Z"/><path class="cls-19" d="M610.35,534.18a6.65,6.65,0,0,0-3.63-7.33c-4.85-2.74-4.85-4.77-4.85-4.77S600.37,537.09,610.35,534.18Z"/><path class="cls-20" d="M605.56,529.38a.72.72,0,0,1,.93.37c1.21,2.78,4.51,4,6.06,4.5V512.19a.7.7,0,0,1,.71-.7.7.7,0,0,1,.7.7v38.32a.7.7,0,0,1-.7.71.71.71,0,0,1-.71-.71v-14.8c-1.53-.39-5.78-1.78-7.36-5.4A.71.71,0,0,1,605.56,529.38Z"/><path class="cls-28" d="M677.43,585.14s-1.23-7.33-3.53-8.92-3.18-3.69-5.47-5.56-4.77-.27-6.89-2.21-2.42-2.3-5-2.3-4.52,5.67-6.47,4.51-4.59-.45-6.53.79c-1.17.75-2.56.07-3.82.59-.83.35-1,3.09-2.19,3.24-3,.36-2.82,3.53-2.82,3.53s-2.16,1.22-2.68,1.62c-2.39,1.83-1.06,4.71-1.06,4.71Z"/><path class="cls-19" d="M653.62,546.6s-7.19-6-1.65-17.81C652,528.79,663,536,653.62,546.6Z"/><path class="cls-19" d="M656.53,556.77a6.64,6.64,0,0,1,3.62-7.32c4.86-2.74,4.86-4.77,4.86-4.77S666.51,559.68,656.53,556.77Z"/><path class="cls-20" d="M661.32,552a.71.71,0,0,0-.93.37c-1.21,2.77-4.52,4-6.06,4.49V534.79a.71.71,0,0,0-1.42,0v38.32a.71.71,0,0,0,1.42,0v-14.8c1.53-.39,5.78-1.78,7.35-5.4A.71.71,0,0,0,661.32,552Z"/></g></g></svg>