<svg xmlns="http://www.w3.org/2000/svg" xmlns:xlink="http://www.w3.org/1999/xlink" viewBox="0 0 1080 798.57"><defs><style>.cls-1{fill:none;}.cls-2{isolation:isolate;}.cls-3{fill:url(#Degradado_sin_nombre_18);}.cls-4{clip-path:url(#clip-path);}.cls-5{opacity:0.31;mix-blend-mode:multiply;fill:url(#Degradado_sin_nombre_13);}.cls-6{fill:#fff;}.cls-7{fill:#e1c563;opacity:0.65;}.cls-8{fill:#dfc364;}.cls-23,.cls-27,.cls-8{opacity:0.2;}.cls-9{fill:#15b8b5;}.cls-10{fill:#dce1f1;}.cls-11{fill:url(#linear-gradient);}.cls-12{fill:#cbd0e6;}.cls-13{fill:#f7415b;}.cls-14{fill:#02352f;}.cls-15{fill:#c4541c;}.cls-16{fill:#dcabb0;}.cls-17{fill:#373482;}.cls-18{fill:#575ba3;}.cls-19{fill:#cb7f83;}.cls-20,.cls-23{fill:#cdd2ea;}.cls-21{fill:#272253;}.cls-22{fill:#2f2c60;}.cls-24{fill:#945c2e;}.cls-25{fill:#a36d3c;}.cls-26{fill:#d1872b;}.cls-27{fill:#a1431f;}</style><linearGradient id="Degradado_sin_nombre_18" x1="169.92" y1="362.8" x2="1009.33" y2="362.8" gradientTransform="translate(-123.53 515.01) rotate(-44.41)" gradientUnits="userSpaceOnUse"><stop offset="0" stop-color="#e8ad05"/><stop offset="0.97" stop-color="#e88f05"/></linearGradient><clipPath id="clip-path"><path class="cls-1" d="M612.28,187.34C443.22,227.21,200,79.16,151.44,357.58S408.05,811.45,622.5,716.08,1006.65,389.62,957,225.15C872.11-55.88,725.68,160.6,612.28,187.34Z"/></clipPath><linearGradient id="Degradado_sin_nombre_13" x1="151.87" y1="475.93" x2="1063.32" y2="475.93" gradientTransform="translate(-123.53 515.01) rotate(-44.41)" gradientUnits="userSpaceOnUse"><stop offset="0" stop-color="#e8ad05"/><stop offset="0.85" stop-color="#e8ad05"/></linearGradient><linearGradient id="linear-gradient" x1="419.6" y1="191.62" x2="574.91" y2="191.62" gradientUnits="userSpaceOnUse"><stop offset="0" stop-color="#e85e38"/><stop offset="1" stop-color="#f3734a"/></linearGradient></defs><title>SEGURIDAD</title><g class="cls-2"><g id="Capa_2" data-name="Capa 2"><path class="cls-3" d="M606.18,187.28c-169,39.86-412.33-108.18-460.83,170.24S402,811.39,616.4,716s384.15-326.45,334.49-490.92C866-55.94,719.59,160.53,606.18,187.28Z"/><g class="cls-4"><path class="cls-5" d="M405,837.46s1.59-179.52,195-284.62,246.31-229.28,3.84-439.2c0,0,241.64-178.61,362.37-.86C1112.79,328.5,754.38,816.74,405,837.46Z"/></g><path class="cls-6" d="M675.91,576.93l2,5.76,2-5.76c1.7-4.85,5.72-8.94,11.16-11.36h0c-5.44-2.42-9.46-6.51-11.16-11.36l-2-5.75-2,5.75c-1.69,4.85-5.71,8.94-11.15,11.36h0C670.2,568,674.22,572.08,675.91,576.93Z"/><path class="cls-6" d="M808,171.87l2,5.75,2-5.75c1.69-4.85,5.71-9,11.15-11.36h0c-5.44-2.42-9.46-6.52-11.15-11.37l-2-5.75-2,5.75c-1.69,4.85-5.72,9-11.16,11.37h0C802.23,162.92,806.26,167,808,171.87Z"/><path class="cls-6" d="M263.88,286.32l1.32,3.79,1.33-3.79a13.28,13.28,0,0,1,7.36-7.5h0a13.28,13.28,0,0,1-7.36-7.5l-1.33-3.79-1.32,3.79a13.28,13.28,0,0,1-7.36,7.5h0A13.28,13.28,0,0,1,263.88,286.32Z"/><path class="cls-6" d="M485.26,693.82l1.32,3.8,1.33-3.8a13.24,13.24,0,0,1,7.36-7.49h0a13.28,13.28,0,0,1-7.36-7.5l-1.33-3.8-1.32,3.8a13.28,13.28,0,0,1-7.36,7.5h0A13.24,13.24,0,0,1,485.26,693.82Z"/></g><g id="Capa_1" data-name="Capa 1"><path class="cls-7" d="M757.51,649.65c67.85,0,74.2-99.51,6.88-108l-1-.12c-32.24-4.23-26.52-140.84-120-138h0c-21.13,0-40.49,6.38-55.25,16.86-10.78,7.66-25.34-.32-25.34-14V342.86c0-62.34-46.93-113.34-104.28-113.34h0c-57.36,0-104.29,51-104.29,113.34h0c0,37.31-31.23,66.37-66.54,61.54a103.28,103.28,0,0,0-14-.94h0c-46,0-83.64,30.26-83.64,67.25v12a6,6,0,0,1-5.86,6.13h-.06c-32,0-58.17,20.09-58.17,44.63h0A116.16,116.16,0,0,0,242.11,649.61l484.91,0Z"/><path class="cls-8" d="M306.94,391.4s-27.22-11.58-11.12-44.53C295.82,346.87,326.1,366.55,306.94,391.4Z"/><rect class="cls-9" x="335.45" y="177.64" width="323.61" height="472.13"/><rect class="cls-10" x="356.05" y="199.71" width="282.42" height="422.48"/><rect class="cls-11" x="419.6" y="177.64" width="155.31" height="27.96"/><path class="cls-12" d="M423.83,394.55H377.6V348.31h46.23Zm-42.35-3.89H420V352.2H381.48Z"/><rect class="cls-12" x="455.02" y="358.75" width="163.24" height="5.66" rx="2.48"/><path class="cls-12" d="M615.42,374.26H457.85a2.83,2.83,0,0,1-2.83-2.83h0a2.83,2.83,0,0,1,2.83-2.83H615.42a2.83,2.83,0,0,1,2.83,2.83h0A2.83,2.83,0,0,1,615.42,374.26Z"/><path class="cls-12" d="M562.23,384.1H457.85a2.83,2.83,0,0,1-2.83-2.83h0a2.83,2.83,0,0,1,2.83-2.83H562.23a2.83,2.83,0,0,1,2.83,2.83h0A2.83,2.83,0,0,1,562.23,384.1Z"/><path class="cls-13" d="M388,357.14s7.54,16.52,10.6,27c0,0,12.73-36.73,25.21-46.15,0,0-21.32,16.54-25.92,27.67Z"/><path class="cls-12" d="M423.83,296.74H377.6V250.51h46.23Zm-42.35-3.88H420V254.39H381.48Z"/><rect class="cls-12" x="455.02" y="260.95" width="163.24" height="5.66" rx="2.48"/><path class="cls-12" d="M615.42,276.46H457.85a2.84,2.84,0,0,1-2.83-2.83h0a2.84,2.84,0,0,1,2.83-2.84H615.42a2.84,2.84,0,0,1,2.83,2.84h0A2.84,2.84,0,0,1,615.42,276.46Z"/><path class="cls-12" d="M562.23,286.3H457.85a2.83,2.83,0,0,1-2.83-2.83h0a2.83,2.83,0,0,1,2.83-2.83H562.23a2.83,2.83,0,0,1,2.83,2.83h0A2.83,2.83,0,0,1,562.23,286.3Z"/><path class="cls-13" d="M388,259.34s7.54,16.52,10.6,27c0,0,12.73-36.73,25.21-46.16,0,0-21.32,16.55-25.92,27.68Z"/><path class="cls-12" d="M615.42,455.15H457.85a2.83,2.83,0,0,1-2.83-2.83h0a2.84,2.84,0,0,1,2.83-2.83H615.42a2.84,2.84,0,0,1,2.83,2.83h0A2.83,2.83,0,0,1,615.42,455.15Z"/><path class="cls-12" d="M615.42,465H457.85a2.84,2.84,0,0,1-2.83-2.83h0a2.83,2.83,0,0,1,2.83-2.83H615.42a2.83,2.83,0,0,1,2.83,2.83h0A2.84,2.84,0,0,1,615.42,465Z"/><path class="cls-12" d="M562.23,474.84H457.85A2.83,2.83,0,0,1,455,472h0a2.83,2.83,0,0,1,2.83-2.83H562.23a2.83,2.83,0,0,1,2.83,2.83h0A2.83,2.83,0,0,1,562.23,474.84Z"/><path class="cls-12" d="M423.83,491.84H377.6V445.61h46.23ZM381.48,488H420V449.49H381.48Z"/><path class="cls-13" d="M388,455.46s7.54,16.51,10.6,27c0,0,12.73-36.73,25.21-46.15,0,0-21.32,16.55-25.92,27.68Z"/><path class="cls-12" d="M423.83,589.64H377.6V543.41h46.23Zm-42.35-3.88H420V547.3H381.48Z"/><rect class="cls-12" x="455.02" y="547.3" width="163.24" height="5.66" rx="2.48"/><path class="cls-12" d="M615.42,562.8H457.85A2.83,2.83,0,0,1,455,560h0a2.83,2.83,0,0,1,2.83-2.83H615.42a2.83,2.83,0,0,1,2.83,2.83h0A2.83,2.83,0,0,1,615.42,562.8Z"/><path class="cls-12" d="M562.23,572.64H457.85a2.83,2.83,0,0,1-2.83-2.83h0a2.84,2.84,0,0,1,2.83-2.83H562.23a2.84,2.84,0,0,1,2.83,2.83h0A2.83,2.83,0,0,1,562.23,572.64Z"/><path class="cls-13" d="M388,553.26s7.54,16.51,10.6,27c0,0,12.73-36.74,25.21-46.16,0,0-21.32,16.55-25.92,27.68Z"/><path class="cls-6" d="M566.77,248.36s129.33-23.14,223,.26c0,0,25.28,209.75-111.33,267.71C678.45,516.33,544.26,466.73,566.77,248.36Z"/><path class="cls-14" d="M581.65,261.75s118.61-15.22,191,0c0,0,24.19,170.35-92.9,233.32C679.78,495.07,572.52,464.68,581.65,261.75Z"/><polygon class="cls-6" points="728.86 335.25 693.32 335.25 693.32 300.58 660.77 300.58 660.77 335.25 626.98 335.25 626.98 367.8 660.77 367.8 660.77 402.46 693.32 402.46 693.32 367.8 728.86 367.8 728.86 335.25"/><g id="scientist_2" data-name="scientist 2"><path class="cls-15" d="M804.89,408c5.67-5.62,4.94-49.32,5-52,.19-7.72,3.1-10.94,3.1-10.94,9.78-5.79,25.87-6.17,32,9.43,3.92,10,13.95,29.46,13.95,29.46,41,56.87,24.7,84.93,24.7,84.93l-1.75-.19c.6-1.87,1.08-4.5.46-5.61l-1.67,5.57-30.28-3.9c-.23-5.82-2.57-14.89-2.57-14.89l-.14,15.4-4.06.21c1.61-32.47-5.29-48.42-7.34-52.37,1.76,18.05-7,47.5-7,47.5l-1.25-.29,2.83-14.71-3.63,14.54-3.51-.8q.84-2.94,1.54-5.74c-1,3.6-1.54,5.74-1.54,5.74-7.55-8.21-21.37-7.48-21.37-7.48C794.86,441.32,804.89,408,804.89,408Z"/><polygon class="cls-16" points="801.58 627.16 792.75 644.8 785.55 642.02 787.21 624.03 801.58 627.16"/><path class="cls-15" d="M795.86,641.81l-2.4,8H769.57S775.68,639,795.86,641.81Z"/><path class="cls-17" d="M802.37,473.74,783.5,628.32h20s26.11-66.85,29.86-136.52C834.8,465.18,802.37,473.74,802.37,473.74Z"/><polygon class="cls-16" points="850.57 628.56 846.48 642.93 838.82 642.01 837.13 620.03 850.57 628.56"/><path class="cls-15" d="M847.19,641.81l-2.41,8H820.89S827,639,847.19,641.81Z"/><path class="cls-18" d="M828.2,475.84H843l15.9-2.23s10.18,22.23,4.94,88.09c-2.67,33.47-12.57,69.07-12.57,69.07l-20.51-.42-8.86-122.84c-.26-3.36-4.18-4.57-4.18-4.57l.57-27.48Z"/><path class="cls-17" d="M843.85,627.84C846.61,613,849,595.36,850.6,577c.24-2.81.47-5.7.68-8.6.23-3.18.45-6.41.64-9.59a14.05,14.05,0,0,0-.49-3.58A12.8,12.8,0,0,1,851,552c.64-12.1.67-23.16.7-32.93,0-2.56,0-5.07,0-7.53.16-22.21.33-34.79.34-34.91h0c0,.12-.92,12.65-1.08,34.89,0,2.46,0,5,0,7.53,0,9.75-.07,20.81-.7,32.88a13.71,13.71,0,0,0,.48,3.47,13.09,13.09,0,0,1,.47,3.35c-.19,3.17-.4,6.4-.63,9.59-.21,2.88-.44,5.77-.68,8.58-1.56,18.35-3.47,36.12-6.23,51Z"/><path class="cls-19" d="M822.28,374.51s2.35,13.65-6.15,20.09c0,0,3.66,7.92,6.12,9.16,2.74,1.39,9.93,1.39,12.28-.6s4.58-11.85,4.58-11.85a97.13,97.13,0,0,1-1.48-21.47Z"/><path class="cls-16" d="M819.29,378.41s18.73.86,19.08-10.81,3-19.42-8.93-20.46S815,350.49,814,354.35,814.43,377.89,819.29,378.41Z"/><path class="cls-18" d="M802.37,473.74s2.49,2.05,27.29,3.28c1.62.07,3.15.13,4.6.16A88,88,0,0,0,853.09,476c5.32-1,6.91-2.38,6.91-2.38s-7.74-18.68-7.74-27.56c0-6.13-13.84-55.85-13.84-55.85-1.63,4.47-6,8.3-10.8,8.33-12.57.1-7.67-8.35-7.67-8.35l-14.15,5.69a26.76,26.76,0,0,1,1.1,10.34,13,13,0,0,1-1.08,3.82c-.12.27-.26.53-.4.78-3.43,5.84-1.08,16,1.42,27.74S802.37,473.74,802.37,473.74Z"/><path class="cls-16" d="M805.8,395.87S790.87,421,783.5,439.92c0,0-18-7.49-28.36-11.83l-1.58-.67L750.2,426a10.2,10.2,0,0,0-9.35-8.81s-3.55-.15-2.55,2.3,1,1.4,2.31,4.87,4.11,6.19,6.76,6.46c0,0,1.16.9,3.06,2.33h0l1.9,1.41c8.58,6.33,25.79,18.43,31.16,17.83,7.27-.81,27.85-30.33,27.85-30.33Z"/><path class="cls-10" d="M770.9,447.87s9.8,4.92,11.74,4.92,7.22-2.56,12.77-9.18c2.43-2.89,6-7.41,9.19-11.61,4.17-5.44,7.79-10.34,7.74-10.5s-2-27.44-2-27.44a44.77,44.77,0,0,0-5,1.58c-.32.32-18.56,33-21.81,42.66L772.69,435Z"/><path class="cls-10" d="M822.78,433.43,820.45,538h-26.7s5.83-59.32,8.62-77.87c3.2-21.25,3-64.46,3-64.46s11-4.46,11.79-4.33S822.78,433.43,822.78,433.43Z"/><path class="cls-20" d="M820,390.18s4.45,34.67,2.83,43.25l-7-23.4,1.58-2.79-2.89-.9,1.81-14.72A4.84,4.84,0,0,1,820,390.18Z"/><path class="cls-10" d="M825.34,434.51V538s17-.31,30.09-.73c8.25-.27,15-.58,15-.9,0-.73-4.65-43.06-13.16-73.68a59,59,0,0,1-1.93-21c.61-6.9,1.51-15,2.58-18.75a.22.22,0,0,0,0-.1S874,435.79,873.55,436.4s-4.37,11.38-4.37,11.38,7.53,5.46,9.07,6.23c0,0,14-18.87,12-21.87,0,0-24.38-41.47-29.93-39.73-1.57.49-18-1.1-18-1.1Z"/><path class="cls-20" d="M839.11,391.31c-.69.69-13.77,43.2-13.77,43.2s12-20.5,12.91-20.95L836.91,411l2.88-1.44,2.62-18.28S840.23,390.19,839.11,391.31Z"/><path class="cls-15" d="M814.15,349.94s23,17.69,20.94,30.77c-1.91,12.28,1.7,13.37,4.39,14.54,6.93,3,18.25-3,21.85-2.79,2.56.12-6.25-2.49-10.44-8.08-11.14-14.88-10-35-12.28-36.44C823.46,338.08,814.15,349.94,814.15,349.94Z"/><path class="cls-20" d="M770.63,433.57s-1.94,12.45-2.89,14.48l3.39,1.73s2-12.88,1.49-15.23Z"/><path class="cls-20" d="M847.83,477.91c1.79,6.78,5.87,43.33,7.6,59.33,8.25-.27,15-.58,15-.9,0-.73-4.65-43.06-13.16-73.68a59,59,0,0,1-1.93-21c.61-6.9,1.51-15,2.58-18.75-1.17-1-2.53-1.63-3.3-1C852.87,423.42,845.53,469.17,847.83,477.91Z"/><path class="cls-16" d="M869.18,447.78c-.25,1.35-7.5,14.24-8.86,16.65-.13.25-.21.38-.21.38l-1.29,1a10.21,10.21,0,0,0-12.85,0s-2.69,2.32-.28,3.42,1.66.36,5,2,7.23,1.7,9.35.09l2.35-1.81c.4-.31,1.14-1,2.08-1.85C869,463.36,878.25,454,878.25,454Z"/><path class="cls-20" d="M770.9,447.87s9.8,4.92,11.74,4.92,7.22-2.56,12.77-9.18c2.43-2.89,6-7.41,9.19-11.61.45-2.22.62-4.68-.89-4.83-2.7-.27-17.33,21.94-21,21.8S770.9,447.87,770.9,447.87Z"/><path class="cls-20" d="M869.4,447.17l10.41,6.5a14.23,14.23,0,0,1-1.4,1.4c0-.09-9.39-6.82-9.39-6.82Z"/></g><path class="cls-21" d="M239.87,640.4l2.59,9.41h25.73S261.61,637.11,239.87,640.4Z"/><path class="cls-21" d="M185.61,640.4l2.6,9.41h25.73S207.35,637.11,185.61,640.4Z"/><path class="cls-22" d="M195.66,471.6s-17.25,122.56-11.82,170.94h22.63l23.69-159.69Z"/><path class="cls-17" d="M241.38,481.92l21.3,160.62h-24s-54-148.8-43-170.94Z"/><path class="cls-23" d="M410.3,308.4a88.08,88.08,0,0,0-26.45,157.17L486.44,322.4A87.93,87.93,0,0,0,410.3,308.4Z"/><path class="cls-17" d="M526.67,368.6a93.86,93.86,0,0,0-182.38,43.92L166.9,462.22a3,3,0,0,0-2.05,3.64l1.58,5.63a3,3,0,0,0,3.64,2l177.26-49.65A93.86,93.86,0,0,0,526.67,368.6Zm-67.25,107A84.85,84.85,0,1,1,518.24,371,84.85,84.85,0,0,1,459.42,475.56Z"/><path class="cls-21" d="M220.54,493.18a18.33,18.33,0,0,0,16.21-8.84,19.16,19.16,0,0,1-16.62,8.22l0,.62Z"/><path class="cls-22" d="M251.21,637.92A482.08,482.08,0,0,1,237.06,591c-.64-2.61-1.29-5.29-1.92-8-.69-3-1.37-6-2-8.93a12.06,12.06,0,0,1,0-3.4,11,11,0,0,0,0-3.09c-2.38-11.27-4-21.64-5.43-30.79q-.56-3.6-1.11-7c-3.35-20.8-5.33-32.57-5.35-32.69h0c0,.12,2.75,11.76,6.1,32.59q.56,3.45,1.11,7c1.43,9.14,3,19.5,5.43,30.75a11.75,11.75,0,0,1,0,3.3,11.34,11.34,0,0,0,0,3.19c.65,3,1.33,6,2,8.92.62,2.68,1.27,5.36,1.91,8,4.22,17,8.71,33.49,13.63,47.1Z"/><path class="cls-24" d="M255.34,359.4s-.14,7.88-2.85,13.6c0,0-10.17-2.71-13.22-4-1.46-.63-4.83-3.74-4.83-3.74a45,45,0,0,0,5.72-15.95C241.48,340.26,255.34,359.4,255.34,359.4Z"/><path class="cls-25" d="M260.36,361.11s-21.15,1-21.55-12.22-3.4-21.93,10.09-23.11,16.26,3.78,17.47,8.15S265.85,360.52,260.36,361.11Z"/><path class="cls-24" d="M222.79,364.36s-27.8,29-38.95,51.71c0,0,5.57,17.78,30.71,44.61,0,0,.36-2.26,1.41-8.64.2-1.25-9.36-23.17-17.89-35.36,0,0,19.8-12.51,25-22.76S222.79,364.36,222.79,364.36Z"/><path class="cls-17" d="M239.2,351.51s10-17.88,26.72-19c0,0,7.36-2.95,7.36-6.92,0,0-23.76-7-32.41,0C227.91,336.12,239.2,351.51,239.2,351.51Z"/><path class="cls-24" d="M320.15,431c-3.19.64-1.92.83-6.43,1.63s-8.45,3.5-9.42,6.64l-33.28.93c2.61-11.86,2.41-56.47.6-60.08S252.49,373,252.49,373l-4.24,20.92s5.28,52.75,10.31,57.72,50.89-7.81,50.89-7.81a12.58,12.58,0,0,0,12.88-9.21S323.34,430.36,320.15,431Z"/><path class="cls-26" d="M215.35,364.36S184.21,405.58,181.8,416c0,0,1,2.84,7.79,12l11.7-6.38s-1.94-3.95-2.35-4.6c0,0-.23-.23,1.09-.94s7.88-5.16,7.88-5.16Z"/><path class="cls-27" d="M215.35,364.36S184.21,405.58,181.8,416a81,81,0,0,0,7.79,12l11.7-6.38s-1.94-3.95-2.35-4.6c0,0-.23-.23,1.09-.94s7.88-5.16,7.88-5.16Z"/><path class="cls-26" d="M195.66,471.6c4,8,47.32,11.59,50,10.08s.81-11.6,1.2-15.82c.86-9.32,5.48-20.06,6.58-23.54l.2-.65c.08,4.37,5.5,11.86,5.5,11.86,10.33,1,29.12-3.8,29.12-3.8-.06-.41-.11-.82-.14-1.22a23.18,23.18,0,0,1,1.09-9c-1.6-.12-12.51,0-15.46,0a.7.7,0,0,1-.71-.73l1.68-16.36c3.68-32.81-2.74-44.6-2.74-44.6-5-4-18.79-7.13-18.79-7.13a43.67,43.67,0,0,1-18.79-5.42s-16.27-1.81-19.09-.88-8.08,33.83-9.31,46.76-8.68,44.85-10.38,49.56C193,468,195.06,470.38,195.66,471.6Z"/><path class="cls-27" d="M253.68,441.67c.08,4.37,5.5,11.86,5.5,11.86,10.33,1,29.12-3.8,29.12-3.8-.06-.41-.11-.82-.14-1.22-3.45.37-24,2.52-26.41,1.07,0,0-8.25-7.52-9.26-48.37Z"/></g></g></svg>