<svg xmlns="http://www.w3.org/2000/svg" xmlns:xlink="http://www.w3.org/1999/xlink" viewBox="0 0 1080 798.57"><defs><style>.cls-1{fill:none;}.cls-2{isolation:isolate;}.cls-3{fill:url(#Degradado_sin_nombre_18);}.cls-4{clip-path:url(#clip-path);}.cls-5{opacity:0.31;fill:url(#Degradado_sin_nombre_13);}.cls-5,.cls-7,.cls-9{mix-blend-mode:multiply;}.cls-15,.cls-16,.cls-17,.cls-23,.cls-27,.cls-39,.cls-6{fill:#fff;}.cls-35,.cls-7{fill:#f0f0f0;}.cls-8{opacity:0.07;}.cls-36,.cls-9{fill:#e0e0e0;}.cls-10,.cls-24,.cls-25,.cls-28{fill:#27debf;}.cls-11,.cls-18,.cls-24{opacity:0.1;}.cls-12,.cls-28,.cls-29,.cls-39{opacity:0.3;}.cls-13{opacity:0.2;}.cls-14,.cls-16{opacity:0.4;}.cls-15{opacity:0.8;}.cls-17{opacity:0.65;}.cls-19{fill:#455a64;}.cls-20{fill:#37474f;}.cls-21{fill:#ebebeb;}.cls-22{fill:#fafafa;}.cls-23{opacity:0.55;}.cls-25,.cls-32,.cls-33{opacity:0.6;}.cls-26{opacity:0.25;}.cls-27{opacity:0.7;}.cls-30{fill:#ffa8a7;}.cls-31,.cls-32{fill:#263238;}.cls-34{opacity:0.15;}.cls-37{fill:#f5f5f5;}.cls-38{fill:#f28f8f;}</style><linearGradient id="Degradado_sin_nombre_18" x1="-2178" y1="754.07" x2="-1366.36" y2="754.07" gradientTransform="matrix(0.8, 0.61, 0.61, -0.8, 1500.39, 2172.02)" gradientUnits="userSpaceOnUse"><stop offset="0" stop-color="#e8ad05"/><stop offset="0.97" stop-color="#e88f05"/></linearGradient><clipPath id="clip-path"><path class="cls-1" d="M627.36,657.76c-167-18.08-382.73,153-462.5-108.35S356.91,83.29,574.06,149.2,981.63,416.59,953.6,580.33C905.71,860.12,739.37,669.88,627.36,657.76Z"/></clipPath><linearGradient id="Degradado_sin_nombre_13" x1="-2195.45" y1="863.46" x2="-1314.15" y2="863.46" gradientTransform="matrix(0.8, 0.61, 0.61, -0.8, 1500.39, 2172.02)" gradientUnits="userSpaceOnUse"><stop offset="0" stop-color="#e8ad05"/><stop offset="0.85" stop-color="#e8ad05"/></linearGradient></defs><title>INFORMACION</title><g class="cls-2"><g id="Capa_2" data-name="Capa 2"><path class="cls-3" d="M621.52,658.54c-167-18.07-382.73,153-462.5-108.34S351.07,84.07,568.22,150,975.79,417.38,947.76,581.12C899.87,860.91,733.53,670.67,621.52,658.54Z"/><g class="cls-4"><path class="cls-5" d="M350.88,58.69S373.83,230.76,572,308.51s263.72,190.6,56.11,421c0,0,253.18,142.54,347.81-42.42C1090.77,462.57,688.59,36.87,350.88,58.69Z"/></g><path class="cls-6" d="M253.15,326.31l-1.94-5.57-2,5.57c-1.63,4.69-5.52,8.64-10.79,11h0c5.27,2.34,9.16,6.3,10.79,11l2,5.56,1.94-5.56c1.63-4.69,5.52-8.65,10.79-11h0C258.67,335,254.78,331,253.15,326.31Z"/><path class="cls-6" d="M882.24,557.49l-2-5.56-1.94,5.56c-1.64,4.69-5.52,8.65-10.79,11h0c5.27,2.34,9.15,6.29,10.79,11l1.94,5.56,2-5.56c1.63-4.69,5.52-8.64,10.79-11h0C887.76,566.14,883.87,562.18,882.24,557.49Z"/><path class="cls-6" d="M305,584.89l-1.29-3.67-1.28,3.67a12.79,12.79,0,0,1-7.12,7.24h0a12.83,12.83,0,0,1,7.12,7.25l1.28,3.67,1.29-3.67a12.84,12.84,0,0,1,7.11-7.25h0A12.8,12.8,0,0,1,305,584.89Z"/><path class="cls-6" d="M199.55,381.42l-1.28-3.67L197,381.42a12.81,12.81,0,0,1-7.12,7.25h0a12.81,12.81,0,0,1,7.12,7.25l1.28,3.67,1.28-3.67a12.81,12.81,0,0,1,7.12-7.25h0A12.81,12.81,0,0,1,199.55,381.42Z"/></g><g id="Capa_1" data-name="Capa 1"><ellipse id="Floor" class="cls-7" cx="555.57" cy="532.43" rx="337.45" ry="194.83"/><path id="Shadow" class="cls-8" d="M625.71,705.05,283.49,507.47c-1.71-1-1.71-2.59,0-3.58L486.35,386.77a6.88,6.88,0,0,1,6.19,0L834.76,584.36c1.71,1,1.71,2.58,0,3.57L631.9,705.05A6.82,6.82,0,0,1,625.71,705.05Z"/><ellipse id="Shadow-2" data-name="Shadow" class="cls-9" cx="416.78" cy="660.67" rx="53.51" ry="30.9"/><ellipse id="Shadow-3" data-name="Shadow" class="cls-9" cx="747.77" cy="496.39" rx="50.97" ry="29.43"/><g id="Plants"><path class="cls-10" d="M776.49,486.7c3.18-4.4,12.3-8.85,24-10.56s23.53-4,21.33-10.91c-2.37-7.42-13.08-8.51-23.88-4.92-11.8,3.92-21.08,15-21.74,22.31Z"/><g class="cls-11"><path d="M776.49,486.7c3.18-4.4,12.3-8.85,24-10.56s23.53-4,21.33-10.91c-2.37-7.42-13.08-8.51-23.88-4.92-11.8,3.92-21.08,15-21.74,22.31Z"/></g><path class="cls-6" d="M775.72,484.54a.84.84,0,0,0,.81-.43c10.47-18.36,31.94-20,38.57-18.48a.86.86,0,1,0,.38-1.68c-7-1.58-29.5.1-40.45,19.3a.87.87,0,0,0,.32,1.18A.75.75,0,0,0,775.72,484.54Z"/><path class="cls-10" d="M776.53,484.11s2.64-17.17,21.75-29.71c4.55-3,9.12-7.28,12.42-10.08,7.09-6,4.8-13.27-4.42-13.77-13.7-.73-24.5,10.11-29.86,24.89S776.53,484.11,776.53,484.11Z"/><path class="cls-6" d="M774.88,478.06a.88.88,0,0,0,.92-.72c4.46-27.64,26.63-40.18,32.51-41.26a.86.86,0,1,0-.32-1.7c-7.13,1.32-29.33,14.38-33.9,42.68a.85.85,0,0,0,.71,1Z"/></g><g id="Plants-2" data-name="Plants"><path class="cls-10" d="M347.17,509.65l11.66-4.19s3.42-25.45.26-46.38c-4.74-31.3-31.24-61.61-50.12-67.47-34.83-10.81-34.56,22.08-8.35,40.42C323.42,448,343.73,471.83,347.17,509.65Z"/><path class="cls-6" d="M352.89,508.2l-.14,0a1.36,1.36,0,0,1-1-1.63c6.25-28.64-16-82.7-47.23-98.74a1.37,1.37,0,0,1,1.25-2.44c32.22,16.53,55.1,72.25,48.65,101.77A1.36,1.36,0,0,1,352.89,508.2Z"/><path class="cls-10" d="M362.43,526c.56-3.39.91-8.37,1-9.6a31.55,31.55,0,0,0-1.5-12.8c-.63-1.82-1.87-3.57-2.1-5.42s.2-3.48-.27-5.32a14.16,14.16,0,0,0-6.53-8.77c-3.12-1.78-7.17-2.58-8.91-5.72-1.17-2.12-.9-4.7-.8-7.11.15-3.7-.3-7.67-2.67-10.51-3.06-3.65-8.41-4.37-13.14-3.88s-9.42,1.91-14.17,1.52c-8-.66-14.86-6.36-22.82-7.52a24.73,24.73,0,0,0-8.49.34c-4.11.86-8.33,2.86-10.24,6.61-1.74,3.43-1.14,7.73.85,11,2.21,3.67,5.76,6,9.42,8,3.83,2.1,6.55,4.2,4.68,9a13.53,13.53,0,0,0-1.25,4.26c-.11,2.62,1.67,5,3.9,6.4a22.27,22.27,0,0,0,7.43,2.45l9.1,1.86c2.65.54,5.9,1.74,6,4.44.08,1.68-1.17,3.08-1.82,4.62-1.29,3.1,0,6.85,2.4,9.17s5.79,3.41,9.11,3.9,6.7.42,10,.8a38.36,38.36,0,0,1,14.68,4.79,12.51,12.51,0,0,0,3.63,1.65C351.93,530.54,362.07,528.13,362.43,526Z"/><g class="cls-11"><path d="M362.43,526c.56-3.39.91-8.37,1-9.6a31.55,31.55,0,0,0-1.5-12.8c-.63-1.82-1.87-3.57-2.1-5.42s.2-3.48-.27-5.32a14.16,14.16,0,0,0-6.53-8.77c-3.12-1.78-7.17-2.58-8.91-5.72-1.17-2.12-.9-4.7-.8-7.11.15-3.7-.3-7.67-2.67-10.51-3.06-3.65-8.41-4.37-13.14-3.88s-9.42,1.91-14.17,1.52c-8-.66-14.86-6.36-22.82-7.52a24.73,24.73,0,0,0-8.49.34c-4.11.86-8.33,2.86-10.24,6.61-1.74,3.43-1.14,7.73.85,11,2.21,3.67,5.76,6,9.42,8,3.83,2.1,6.55,4.2,4.68,9a13.53,13.53,0,0,0-1.25,4.26c-.11,2.62,1.67,5,3.9,6.4a22.27,22.27,0,0,0,7.43,2.45l9.1,1.86c2.65.54,5.9,1.74,6,4.44.08,1.68-1.17,3.08-1.82,4.62-1.29,3.1,0,6.85,2.4,9.17s5.79,3.41,9.11,3.9,6.7.42,10,.8a38.36,38.36,0,0,1,14.68,4.79,12.51,12.51,0,0,0,3.63,1.65C351.93,530.54,362.07,528.13,362.43,526Z"/></g><path class="cls-6" d="M356.93,529.15a1.23,1.23,0,0,1-1.06-.8c-11.41-30.12-38.51-54.2-76.33-67.81a1.25,1.25,0,1,1,.85-2.35c38.51,13.86,66.15,38.46,77.81,69.27a1.26,1.26,0,0,1-.72,1.62A1.31,1.31,0,0,1,356.93,529.15Z"/></g><g id="Analysis"><path class="cls-10" d="M356,542.75,351.19,540a6,6,0,0,1-2.72-4.72V181.81a6,6,0,0,1,2.72-4.72L570.48,50.49a6,6,0,0,1,5.44,0l4.78,2.75A6,6,0,0,1,583.42,58V411.43a6,6,0,0,1-2.72,4.72L361.41,542.75A6,6,0,0,1,356,542.75Z"/><path class="cls-12" d="M356,542.75,351.19,540a6,6,0,0,1-2.72-4.72V181.81a6,6,0,0,1,2.72-4.72L570.48,50.49a6,6,0,0,1,5.44,0l4.78,2.75A6,6,0,0,1,583.42,58V411.43a6,6,0,0,1-2.72,4.72L361.41,542.75A6,6,0,0,1,356,542.75Z"/><path class="cls-10" d="M583.39,57.51c-.19-1.4-1.34-1.92-2.69-1.13L361.41,183a5.53,5.53,0,0,0-1.93,2l-10.22-5.89a5.62,5.62,0,0,1,1.92-2L570.47,50.49a6,6,0,0,1,5.45,0l4.78,2.75A6.11,6.11,0,0,1,583.39,57.51Z"/><path class="cls-13" d="M583.39,57.51c-.19-1.4-1.34-1.92-2.69-1.13L361.41,183a5.53,5.53,0,0,0-1.93,2l-10.22-5.89a5.62,5.62,0,0,1,1.92-2L570.47,50.49a6,6,0,0,1,5.45,0l4.78,2.75A6.11,6.11,0,0,1,583.39,57.51Z"/><path class="cls-10" d="M360.93,543a.39.39,0,0,1-.17.06,1.08,1.08,0,0,1-.27.1l-.12,0-.5.13h-.06a6.15,6.15,0,0,1-3.25-.27,4.06,4.06,0,0,1-.6-.27L351.18,540a6.06,6.06,0,0,1-2.71-4.71V181.81a5.59,5.59,0,0,1,.79-2.69L359.48,185a5.57,5.57,0,0,0-.8,2.7V541.18a2.31,2.31,0,0,0,.41,1.44,1.43,1.43,0,0,0,1.46.46A1.82,1.82,0,0,0,360.93,543Z"/><path class="cls-14" d="M360.93,543a.39.39,0,0,1-.17.06,1.08,1.08,0,0,1-.27.1l-.12,0-.5.13h-.06a6.15,6.15,0,0,1-3.25-.27,4.06,4.06,0,0,1-.6-.27L351.18,540a6.06,6.06,0,0,1-2.71-4.71V181.81a5.59,5.59,0,0,1,.79-2.69L359.48,185a5.57,5.57,0,0,0-.8,2.7V541.18a2.31,2.31,0,0,0,.41,1.44,1.43,1.43,0,0,0,1.46.46A1.82,1.82,0,0,0,360.93,543Z"/><path class="cls-10" d="M437.81,167.62a2.23,2.23,0,0,0-.49-1l-.18-.15a1,1,0,0,0-1-.15,1.15,1.15,0,0,0-.39.16,4.44,4.44,0,0,0-1.53,1.87,6.71,6.71,0,0,0-.64,2.74,2.72,2.72,0,0,0,.61,1.95,1.21,1.21,0,0,0,1.56.13,3.15,3.15,0,0,0,.85-.76,4.93,4.93,0,0,0,.57-.88,6.59,6.59,0,0,0,.76-2.94A4,4,0,0,0,437.81,167.62Zm35.65-79.68a5.06,5.06,0,0,0-2.61-.7,10.12,10.12,0,0,0-4.92,1.59c-4.39,2.54-7.11,6.45-9.05,10.88-.29.64-.56,1.3-.81,2s-.49,1.32-.71,2-.45,1.36-.66,2c-.06.23-.13.46-.2.68-.14.47-.26.92-.4,1.38a.67.67,0,0,1-.05.19c-.23.85-.45,1.71-.69,2.56-.12.46-.23.92-.35,1.37s-.23.9-.36,1.35c-.47,1.8-1,3.54-1.51,5.2-.11.34-.22.66-.35,1-.16.48-.34,1-.51,1.4s-.29.69-.43,1c-.23.56-.48,1.1-.72,1.6-.17.33-.33.66-.5,1-3.84,7.39-8.53,10.27-11.25,14.07-2.38,3.31-3.06,6-6.26,11.2-1,1.66-2.28,3.59-4,5.9-4.62,6.37-6.28,9.53-6.85,11.44a1.15,1.15,0,0,0-.06.17c0,.15-.08.29-.11.42a.68.68,0,0,0,0,.14c0,.12,0,.25-.07.35a7.76,7.76,0,0,0-.07,1.13v14.19l5.1,2.94V172.2a6.62,6.62,0,0,1,.33-2.19c.56-1.92,2.2-5.06,6.83-11.44,1.68-2.32,3-4.26,4-5.92,3.19-5.23,3.87-7.88,6.25-11.16,0,0,0,0,0,0,2.72-3.81,7.41-6.68,11.25-14.08a35.56,35.56,0,0,0,1.64-3.59c2.47-6.16,3.57-14.28,6.59-21.15,1.94-4.42,4.68-8.33,9.07-10.86,3.1-1.79,5.38-1.94,7.12-1.12Zm22.38,18.13h0a5.28,5.28,0,0,0-1.35-.53c-1.93-.47-4.8.66-7.69.33,4.05,5.23,9.68,1.87,12.79,2.61a4.48,4.48,0,0,1,1.36.56h0Zm10.8,19.49a2.59,2.59,0,0,0-.42.32l-.21.2c-.07.09-.14.15-.2.24a6.31,6.31,0,0,0-1.34,3.84,2.77,2.77,0,0,0,.6,1.94.9.9,0,0,0,.18.15,1,1,0,0,0,1,.15,1.24,1.24,0,0,0,.38-.16c.15-.09.3-.21.45-.32a4.37,4.37,0,0,0,.59-.68,6.52,6.52,0,0,0,1.13-3.58C508.81,125.81,507.84,124.87,506.64,125.56ZM510,112.73a16.6,16.6,0,0,0-5.28-1.88c-.78-.17-1.49-.38-2.1-.57a14.72,14.72,0,0,0,7.19,3.51,20.49,20.49,0,0,1,4.71,1.53Z"/><path class="cls-15" d="M437.81,167.62a2.23,2.23,0,0,0-.49-1l-.18-.15a1,1,0,0,0-1-.15,1.15,1.15,0,0,0-.39.16,4.44,4.44,0,0,0-1.53,1.87,6.71,6.71,0,0,0-.64,2.74,2.72,2.72,0,0,0,.61,1.95,1.21,1.21,0,0,0,1.56.13,3.15,3.15,0,0,0,.85-.76,4.93,4.93,0,0,0,.57-.88,6.59,6.59,0,0,0,.76-2.94A4,4,0,0,0,437.81,167.62Zm35.65-79.68a5.06,5.06,0,0,0-2.61-.7,10.12,10.12,0,0,0-4.92,1.59c-4.39,2.54-7.11,6.45-9.05,10.88-.29.64-.56,1.3-.81,2s-.49,1.32-.71,2-.45,1.36-.66,2c-.06.23-.13.46-.2.68-.14.47-.26.92-.4,1.38a.67.67,0,0,1-.05.19c-.23.85-.45,1.71-.69,2.56-.12.46-.23.92-.35,1.37s-.23.9-.36,1.35c-.47,1.8-1,3.54-1.51,5.2-.11.34-.22.66-.35,1-.16.48-.34,1-.51,1.4s-.29.69-.43,1c-.23.56-.48,1.1-.72,1.6-.17.33-.33.66-.5,1-3.84,7.39-8.53,10.27-11.25,14.07-2.38,3.31-3.06,6-6.26,11.2-1,1.66-2.28,3.59-4,5.9-4.62,6.37-6.28,9.53-6.85,11.44a1.15,1.15,0,0,0-.06.17c0,.15-.08.29-.11.42a.68.68,0,0,0,0,.14c0,.12,0,.25-.07.35a7.76,7.76,0,0,0-.07,1.13v14.19l5.1,2.94V172.2a6.62,6.62,0,0,1,.33-2.19c.56-1.92,2.2-5.06,6.83-11.44,1.68-2.32,3-4.26,4-5.92,3.19-5.23,3.87-7.88,6.25-11.16,0,0,0,0,0,0,2.72-3.81,7.41-6.68,11.25-14.08a35.56,35.56,0,0,0,1.64-3.59c2.47-6.16,3.57-14.28,6.59-21.15,1.94-4.42,4.68-8.33,9.07-10.86,3.1-1.79,5.38-1.94,7.12-1.12Zm22.38,18.13h0a5.28,5.28,0,0,0-1.35-.53c-1.93-.47-4.8.66-7.69.33,4.05,5.23,9.68,1.87,12.79,2.61a4.48,4.48,0,0,1,1.36.56h0Zm10.8,19.49a2.59,2.59,0,0,0-.42.32l-.21.2c-.07.09-.14.15-.2.24a6.31,6.31,0,0,0-1.34,3.84,2.77,2.77,0,0,0,.6,1.94.9.9,0,0,0,.18.15,1,1,0,0,0,1,.15,1.24,1.24,0,0,0,.38-.16c.15-.09.3-.21.45-.32a4.37,4.37,0,0,0,.59-.68,6.52,6.52,0,0,0,1.13-3.58C508.81,125.81,507.84,124.87,506.64,125.56ZM510,112.73a16.6,16.6,0,0,0-5.28-1.88c-.78-.17-1.49-.38-2.1-.57a14.72,14.72,0,0,0,7.19,3.51,20.49,20.49,0,0,1,4.71,1.53Z"/><path class="cls-10" d="M514.92,115.57l-.4-.24a20,20,0,0,0-4.72-1.53,14.75,14.75,0,0,1-7.19-3.53A10.94,10.94,0,0,0,501,109a4.85,4.85,0,0,0-1.37-.55c-3.09-.74-8.73,2.63-12.77-2.62l-.13-.16c-2.83-3.81-3.86-12.31-8.1-14.81a3,3,0,0,0-.43-.24c-1.74-.82-4-.67-7.12,1.12-11.23,6.49-11.61,21.89-15.66,32s-9.77,13.31-12.89,17.67-3.32,7.58-10.23,17.1-7.17,11.84-7.17,13.64v14.19L517,133.31V119.14A3.58,3.58,0,0,0,514.92,115.57Zm-79.18,57.6c-1.19.69-2.16-.24-2.16-2.09s1-3.91,2.16-4.6,2.17.25,2.17,2.1S437,172.48,435.74,173.17ZM471,130.43c-3,1.75-5.66.76-7.08-2.16a13,13,0,0,1-1.12-5.72c0-7,3.67-14.73,8.2-17.34a6.36,6.36,0,0,1,2-.78c3.57-.71,6.21,2.73,6.21,8.66C479.21,120.06,475.55,127.82,471,130.43Zm35.62,1.8c-1.21.69-2.18-.24-2.18-2.08a5.71,5.71,0,0,1,2.18-4.59c1.19-.69,2.16.24,2.16,2.09S507.84,131.54,506.65,132.23Z"/><path class="cls-16" d="M514.92,115.57l-.4-.24a20,20,0,0,0-4.72-1.53,14.75,14.75,0,0,1-7.19-3.53A10.94,10.94,0,0,0,501,109a4.85,4.85,0,0,0-1.37-.55c-3.09-.74-8.73,2.63-12.77-2.62l-.13-.16c-2.83-3.81-3.86-12.31-8.1-14.81a3,3,0,0,0-.43-.24c-1.74-.82-4-.67-7.12,1.12-11.23,6.49-11.61,21.89-15.66,32s-9.77,13.31-12.89,17.67-3.32,7.58-10.23,17.1-7.17,11.84-7.17,13.64v14.19L517,133.31V119.14A3.58,3.58,0,0,0,514.92,115.57Zm-79.18,57.6c-1.19.69-2.16-.24-2.16-2.09s1-3.91,2.16-4.6,2.17.25,2.17,2.1S437,172.48,435.74,173.17ZM471,130.43c-3,1.75-5.66.76-7.08-2.16a13,13,0,0,1-1.12-5.72c0-7,3.67-14.73,8.2-17.34a6.36,6.36,0,0,1,2-.78c3.57-.71,6.21,2.73,6.21,8.66C479.21,120.06,475.55,127.82,471,130.43Zm35.62,1.8c-1.21.69-2.18-.24-2.18-2.08a5.71,5.71,0,0,1,2.18-4.59c1.19-.69,2.16.24,2.16,2.09S507.84,131.54,506.65,132.23Z"/><path class="cls-10" d="M425.41,170a6.62,6.62,0,0,0-.33,2.19v14.19l-5.1-2.94V169.26a7.76,7.76,0,0,1,.07-1.13c0-.1,0-.23.07-.35a.68.68,0,0,1,0-.14c0-.13.07-.27.11-.42l.05-.17h0Z"/><path class="cls-10" d="M442.47,141.49c-2.38,3.28-3.06,5.93-6.25,11.16l-5.1-2.94c3.2-5.24,3.88-7.89,6.26-11.2h0Z"/><path class="cls-10" d="M462,102.64c-3,6.87-4.12,15-6.59,21.15a35.56,35.56,0,0,1-1.64,3.59l-5.1-2.94c.17-.31.33-.64.5-1,.24-.5.49-1,.72-1.6.14-.33.29-.67.43-1s.35-.92.51-1.4c.13-.33.24-.65.35-1,.54-1.66,1-3.4,1.51-5.2.13-.45.24-.9.36-1.35s.23-.91.35-1.37c.24-.85.46-1.71.69-2.56a.67.67,0,0,0,.05-.19c.14-.46.26-.91.4-1.38.07-.22.14-.45.2-.68.21-.69.43-1.37.66-2s.47-1.34.71-2,.52-1.32.81-2Z"/><path class="cls-17" d="M425.41,170a6.62,6.62,0,0,0-.33,2.19v14.19l-5.1-2.94V169.26a7.76,7.76,0,0,1,.07-1.13c0-.1,0-.23.07-.35a.68.68,0,0,1,0-.14c0-.13.07-.27.11-.42l.05-.17h0Z"/><path class="cls-17" d="M442.47,141.49c-2.38,3.28-3.06,5.93-6.25,11.16l-5.1-2.94c3.2-5.24,3.88-7.89,6.26-11.2h0Z"/><path class="cls-17" d="M462,102.64c-3,6.87-4.12,15-6.59,21.15a35.56,35.56,0,0,1-1.64,3.59l-5.1-2.94c.17-.31.33-.64.5-1,.24-.5.49-1,.72-1.6.14-.33.29-.67.43-1s.35-.92.51-1.4c.13-.33.24-.65.35-1,.54-1.66,1-3.4,1.51-5.2.13-.45.24-.9.36-1.35s.23-.91.35-1.37c.24-.85.46-1.71.69-2.56a.67.67,0,0,0,.05-.19c.14-.46.26-.91.4-1.38.07-.22.14-.45.2-.68.21-.69.43-1.37.66-2s.47-1.34.71-2,.52-1.32.81-2Z"/><path class="cls-10" d="M434.21,168.35a6.71,6.71,0,0,0-.64,2.74,2.72,2.72,0,0,0,.61,1.95,2.83,2.83,0,0,1-.6-1.95A6.86,6.86,0,0,1,434.21,168.35Zm3.71.24a4,4,0,0,0-.11-1,5.52,5.52,0,0,1,.09,1,6.57,6.57,0,0,1-.74,2.94A6.59,6.59,0,0,0,437.92,168.59Zm67.33-36.34a1,1,0,0,0,1,.15A1.14,1.14,0,0,1,505.25,132.25Z"/><path class="cls-10" d="M479.22,113.1c0,7-3.67,14.72-8.19,17.33-3,1.75-5.66.75-7.08-2.16a6.26,6.26,0,0,0,2-.78c4.52-2.62,8.19-10.37,8.19-17.35a13,13,0,0,0-1.12-5.71C476.56,103.72,479.22,107.16,479.22,113.1Z"/><path class="cls-18" d="M479.22,113.1c0,7-3.67,14.72-8.19,17.33-3,1.75-5.66.75-7.08-2.16a6.26,6.26,0,0,0,2-.78c4.52-2.62,8.19-10.37,8.19-17.35a13,13,0,0,0-1.12-5.71C476.56,103.72,479.22,107.16,479.22,113.1Z"/><path class="cls-19" d="M437.16,171.52a4.86,4.86,0,0,1-.57.89,3.15,3.15,0,0,1-.85.76,1.21,1.21,0,0,1-1.56-.13,2.72,2.72,0,0,1-.61-1.95,6.71,6.71,0,0,1,.64-2.74,4.44,4.44,0,0,1,1.53-1.87,1.15,1.15,0,0,1,.39-.16,1.12,1.12,0,0,1,1.19.3,2.23,2.23,0,0,1,.49,1,4,4,0,0,1,.11,1A6.51,6.51,0,0,1,437.16,171.52Z"/><path class="cls-20" d="M508.81,127.66a6.52,6.52,0,0,1-1.13,3.58,4.37,4.37,0,0,1-.59.68c-.15.11-.3.23-.45.32a1.24,1.24,0,0,1-.38.16,1.08,1.08,0,0,1-1.19-.3,2.77,2.77,0,0,1-.6-1.94,6.31,6.31,0,0,1,1.34-3.84c.06-.09.13-.15.2-.24l.21-.2a2.59,2.59,0,0,1,.42-.32C507.84,124.87,508.81,125.81,508.81,127.66Z"/><path class="cls-6" d="M573.14,109.29c-.2-.68-.83-.89-1.57-.46L380.74,219a3.41,3.41,0,0,0-1.16,1.22l-5.1-2.95c.07-.12.16-.25.24-.37s.19-.23.29-.33a2.94,2.94,0,0,1,.63-.51L566.47,105.88a2.9,2.9,0,0,1,.47-.21,3.69,3.69,0,0,1,2.41,0,2,2,0,0,1,.36.17l1.86,1.06a1.89,1.89,0,0,1,.27.2,1.1,1.1,0,0,1,.23.2,3.13,3.13,0,0,1,.3.32,2,2,0,0,1,.2.28,2.49,2.49,0,0,1,.2.32,3.16,3.16,0,0,1,.29.68A2.21,2.21,0,0,1,573.14,109.29Z"/><path class="cls-21" d="M826.89,578l-132-70.54s0,0,0,0h0l-18-11.65a210.78,210.78,0,0,1-40.45-34.15A239.72,239.72,0,0,1,573.2,299.44V229.35L567.38,226l-188.27-4.16a3.53,3.53,0,0,1,.47-1.61l-5.1-2.95c-.07.13-.14.26-.2.4a3.21,3.21,0,0,0-.27,1.22V338h0l-.08.06v70.08c0,3.33,0,6.67.1,10v.11a195.83,195.83,0,0,0,2,25.56c.84,5.64,1.9,11.23,3.14,16.76a239.86,239.86,0,0,0,57.43,109.8,212.65,212.65,0,0,0,19.14,18.36A209.45,209.45,0,0,0,477,604.52l18,11.65,130.75,75.48.07,0,5.75,3.32a6.88,6.88,0,0,0,6.19,0L825.61,586.53a2.16,2.16,0,0,0,1.28-1.78Z"/><path class="cls-18" d="M826.89,578v6.72a2.14,2.14,0,0,1-1.28,1.79L637.72,695a6.33,6.33,0,0,1-3.11.74V689a6.3,6.3,0,0,0,3.11-.74L825.61,579.81A2.18,2.18,0,0,0,826.89,578Z"/><path class="cls-22" d="M825.61,576.23,694.87,500.75h0l0,0-18-11.65a210.42,210.42,0,0,1-40.45-34.15A239.67,239.67,0,0,1,573.2,292.71V109.77a1.66,1.66,0,0,0-.06-.48c-.2-.68-.83-.89-1.57-.46L380.74,219a3.41,3.41,0,0,0-1.16,1.22,3.53,3.53,0,0,0-.47,1.61V404.77A239.77,239.77,0,0,0,442.35,567a212.59,212.59,0,0,0,19.15,18.35,209.55,209.55,0,0,0,21.3,15.8l18,11.65,130.75,75.48a6.82,6.82,0,0,0,6.19,0L825.61,579.81C827.32,578.82,827.32,577.22,825.61,576.23Z"/><path class="cls-10" d="M455.74,149.19l-.26.42a10.49,10.49,0,0,0-1.3,3.23c0,.08,0,.13,0,.17a.23.23,0,0,0,0,.07L451,170.61l-1,5.6a5.49,5.49,0,0,1-.17.7,5.67,5.67,0,0,1-.2.67l-.17.45,5.1,3a8.61,8.61,0,0,0,.54-1.82l1-5.61L459.24,156a9.59,9.59,0,0,1,1.6-3.91Z"/><path class="cls-10" d="M420.61,205.73c-.52.81-1,1.63-1.45,2.45-.22.39-.42.79-.61,1.19s-.5,1-.72,1.54-.47,1.14-.69,1.71-.43,1.15-.62,1.74-.44,1.34-.63,2c-.12.44-.24.89-.37,1.35-.28,1.08-.53,2.18-.76,3.28-.08.39-.17.78-.23,1.17s-.2.93-.28,1.39c0,0,0,.05,0,.07-.06.37,0,.61.18.72a.24.24,0,0,0,.16,0h0v0h0l4.33-3.46.71-.56.34-.26.38-.3.31-.23c.16-.14.26-.21.26-.21a38.84,38.84,0,0,1,6.3-12.86l-5.1-2.95C421.61,204.25,421.09,205,420.61,205.73Z"/><path class="cls-10" d="M475.81,110.64c-.23.38-.45.77-.65,1.17a6.42,6.42,0,0,0-.37.68c-.18.33-.34.66-.51,1s-.27.53-.4.81c-.24.52-.47,1-.69,1.55s-.48,1.12-.7,1.69c0,0,0,0,0,0-.21.5-.39,1-.55,1.51-.27.77-.51,1.54-.71,2.3-.12.41-.22.81-.32,1.2a.44.44,0,0,0,0,.1c0,.2-.1.41-.14.61-.11.48-.2,1-.29,1.43s-.15.75-.24,1.13-.21.78-.33,1.18-.25.75-.37,1.13a.21.21,0,0,0,0,.1c-.15.41-.32.83-.49,1.25s-.35.85-.55,1.29c-.05.12-.11.23-.15.34-.15.33-.31.64-.47,1-.25.52-.53,1-.8,1.57-.18.36-.37.7-.56,1l5.11,3a34.75,34.75,0,0,0,4-10,43.84,43.84,0,0,1,5.38-14.09Z"/><path class="cls-10" d="M506.18,122a2.14,2.14,0,0,0-.84-.29,6.26,6.26,0,0,0,4.55,2.9,3.08,3.08,0,0,1,1.28.27Z"/><path class="cls-15" d="M506.18,122a2.14,2.14,0,0,0-.84-.29,6.26,6.26,0,0,0,4.55,2.9,3.08,3.08,0,0,1,1.28.27Z"/><path class="cls-10" d="M525.14,144.17c-1.32-.75-3-.77-5.12.15-5.93,2.63-8.5,3.8-11.56,5.09-.6,3.93,1.72,4.3,2.88,3.84,4.31-1.71,6.51-2.76,13.8-6,2.05-.92,3.77-.92,5.07-.17Z"/><path class="cls-15" d="M525.14,144.17c-1.32-.75-3-.77-5.12.15-5.93,2.63-8.5,3.8-11.56,5.09-.6,3.93,1.72,4.3,2.88,3.84,4.31-1.71,6.51-2.76,13.8-6,2.05-.92,3.77-.92,5.07-.17Z"/><path class="cls-10" d="M454.62,181a20.93,20.93,0,0,1-4.5,6.41l-16,12a42.7,42.7,0,0,0-6.86,7.07l-5.1-2.95a41.87,41.87,0,0,1,6.86-7.07l16-12a20.88,20.88,0,0,0,4.48-6.41Z"/><path class="cls-15" d="M454.62,181a20.93,20.93,0,0,1-4.5,6.41l-16,12a42.7,42.7,0,0,0-6.86,7.07l-5.1-2.95a41.87,41.87,0,0,1,6.86-7.07l16-12a20.88,20.88,0,0,0,4.48-6.41Z"/><path class="cls-10" d="M471.56,137.68a54,54,0,0,1-8.07,11.23,19.79,19.79,0,0,0-2.65,3.22l-5.1-2.94a18,18,0,0,1,2.64-3.23,53.87,53.87,0,0,0,8.07-11.24Z"/><path class="cls-15" d="M471.56,137.68a54,54,0,0,1-8.07,11.23,19.79,19.79,0,0,0-2.65,3.22l-5.1-2.94a18,18,0,0,1,2.64-3.23,53.87,53.87,0,0,0,8.07-11.24Z"/><path class="cls-10" d="M500.39,100c-1.88-1-4.39-.82-7.34.73-4.37,2.29-8.78,7.15-12.12,12.89l-5.12-3c3.35-5.75,7.75-10.6,12.14-12.9a10.25,10.25,0,0,1,4.68-1.32,5.59,5.59,0,0,1,2.81.71Z"/><path class="cls-15" d="M500.39,100c-1.88-1-4.39-.82-7.34.73-4.37,2.29-8.78,7.15-12.12,12.89l-5.12-3c3.35-5.75,7.75-10.6,12.14-12.9a10.25,10.25,0,0,1,4.68-1.32,5.59,5.59,0,0,1,2.81.71Z"/><path class="cls-17" d="M427.27,206.47a38.84,38.84,0,0,0-6.3,12.86s-.1.07-.26.21l-.31.23-.38.3-.34.26-.71.56-4.33,3.46h0v0h0a.24.24,0,0,1-.16,0c-.17-.11-.24-.35-.18-.72,0,0,0-.06,0-.07.08-.46.18-.93.28-1.39s.15-.78.23-1.17c.23-1.1.48-2.2.76-3.28.13-.46.25-.91.37-1.35.19-.68.4-1.35.63-2s.4-1.17.62-1.74.45-1.15.69-1.71.47-1,.72-1.54.39-.8.61-1.19c.44-.82.93-1.64,1.45-2.45s1-1.48,1.56-2.21Z"/><path class="cls-17" d="M460.84,152.13a9.59,9.59,0,0,0-1.6,3.91l-3.09,17.52-1,5.61a8.61,8.61,0,0,1-.54,1.82l-5.1-3,.17-.45a5.67,5.67,0,0,0,.2-.67,5.49,5.49,0,0,0,.17-.7l1-5.6,3.1-17.53a.23.23,0,0,1,0-.07s0-.09,0-.17a10.49,10.49,0,0,1,1.3-3.23l.26-.42Z"/><path class="cls-17" d="M480.93,113.59a43.84,43.84,0,0,0-5.38,14.09,34.75,34.75,0,0,1-4,10l-5.11-3c.19-.34.38-.68.56-1,.27-.52.55-1.05.8-1.57.16-.33.32-.64.47-1,0-.11.1-.22.15-.34.19-.42.37-.86.55-1.29s.34-.84.49-1.25a.21.21,0,0,1,0-.1c.12-.38.26-.75.37-1.13s.23-.8.33-1.18.17-.76.24-1.13.18-1,.29-1.43c0-.2.1-.41.14-.61a.44.44,0,0,1,0-.1c.1-.39.2-.79.32-1.2.2-.76.44-1.53.71-2.3.16-.5.34-1,.55-1.51,0,0,0,0,0,0,.22-.57.45-1.13.7-1.69s.45-1,.69-1.55c.13-.28.26-.54.4-.81s.33-.66.51-1a6.42,6.42,0,0,1,.37-.68c.2-.4.42-.79.65-1.17Z"/><path class="cls-10" d="M414.59,224.36v0h0v0h0l4.33-3.46C417.19,222.27,414.84,224.12,414.59,224.36Z"/><path class="cls-10" d="M530.29,147.15l-.08,0c-1.31-.75-3-.75-5.08.16-7.28,3.21-9.48,4.26-13.79,6-1.16.47-3.49.09-2.88-3.84a1.26,1.26,0,0,1,0-.27l1-5.61,2.75-15.27s.63-2.41-1-3.31a.39.39,0,0,0-.11-.06,2.84,2.84,0,0,0-1.27-.28,6.2,6.2,0,0,1-4.55-2.91,11.47,11.47,0,0,1-1.71-8.73c1.16-6.56-.11-11.14-3-12.85a.9.9,0,0,0-.22-.14c-1.88-1-4.39-.83-7.33.71-7.76,4.08-15.6,16.15-17.51,27-1.2,6.84-8.08,17.36-12.06,21.23s-4.25,7.12-4.25,7.12l-3.09,17.53-1,5.61c-.73,4.18-5,8.23-5,8.23l-16,12A38.54,38.54,0,0,0,421,219.33s-6,4.65-6.38,5h0l2.05-1.17L527.11,159.7s1.27-.69,1.54-.86,4.73-4.38,4.73-4.38C533.19,150.84,532.14,148.26,530.29,147.15Zm-31.92-32.21c-1.18,6.66-6,14.1-10.76,16.6-3.29,1.72-5.7.65-6.5-2.38a12.53,12.53,0,0,1,0-5.17c1.18-6.66,6-14.09,10.77-16.58a8.88,8.88,0,0,1,1.39-.59C497.19,105.62,499.43,109,498.37,114.94Z"/><path class="cls-23" d="M530.29,147.15l-.08,0c-1.31-.75-3-.75-5.08.16-7.28,3.21-9.48,4.26-13.79,6-1.16.47-3.49.09-2.88-3.84a1.26,1.26,0,0,1,0-.27l1-5.61,2.75-15.27s.63-2.41-1-3.31a.39.39,0,0,0-.11-.06,2.84,2.84,0,0,0-1.27-.28,6.2,6.2,0,0,1-4.55-2.91,11.47,11.47,0,0,1-1.71-8.73c1.16-6.56-.11-11.14-3-12.85a.9.9,0,0,0-.22-.14c-1.88-1-4.39-.83-7.33.71-7.76,4.08-15.6,16.15-17.51,27-1.2,6.84-8.08,17.36-12.06,21.23s-4.25,7.12-4.25,7.12l-3.09,17.53-1,5.61c-.73,4.18-5,8.23-5,8.23l-16,12A38.54,38.54,0,0,0,421,219.33s-6,4.65-6.38,5h0l2.05-1.17L527.11,159.7s1.27-.69,1.54-.86,4.73-4.38,4.73-4.38C533.19,150.84,532.14,148.26,530.29,147.15Zm-31.92-32.21c-1.18,6.66-6,14.1-10.76,16.6-3.29,1.72-5.7.65-6.5-2.38a12.53,12.53,0,0,1,0-5.17c1.18-6.66,6-14.09,10.77-16.58a8.88,8.88,0,0,1,1.39-.59C497.19,105.62,499.43,109,498.37,114.94Z"/><path class="cls-10" d="M414.61,224.37,527.1,159.71s1.28-.7,1.55-.87,4.73-4.38,4.73-4.38L421,219.33S414.16,224.61,414.61,224.37Z"/><path class="cls-10" d="M493.26,106.82a8.88,8.88,0,0,0-1.39.59c-4.77,2.49-9.59,9.92-10.77,16.58a12.53,12.53,0,0,0,0,5.17c.8,3,3.21,4.1,6.5,2.38,4.78-2.5,9.58-9.94,10.76-16.6C499.43,109,497.19,105.62,493.26,106.82ZM481.4,129a12.41,12.41,0,0,1,0-5c1.16-6.58,5.92-13.92,10.61-16.36a7.64,7.64,0,0,1,1.29-.56,12.55,12.55,0,0,1,0,4.85c-1.17,6.67-6,14.1-10.76,16.6a9,9,0,0,1-1.09.47Z"/><path class="cls-18" d="M493.26,106.82a8.88,8.88,0,0,0-1.39.59c-4.77,2.49-9.59,9.92-10.77,16.58a12.53,12.53,0,0,0,0,5.17c.8,3,3.21,4.1,6.5,2.38,4.78-2.5,9.58-9.94,10.76-16.6C499.43,109,497.19,105.62,493.26,106.82ZM481.4,129a12.41,12.41,0,0,1,0-5c1.16-6.58,5.92-13.92,10.61-16.36a7.64,7.64,0,0,1,1.29-.56,12.55,12.55,0,0,1,0,4.85c-1.17,6.67-6,14.1-10.76,16.6a9,9,0,0,1-1.09.47Z"/><path class="cls-24" d="M390.76,286.48v72.64c0,1.3.91,1.83,2,1.18l108-62.22a4.54,4.54,0,0,0,2-3.54V221.91c0-1.31-.92-1.83-2-1.18L392.8,283A4.49,4.49,0,0,0,390.76,286.48Z"/><path class="cls-10" d="M395.52,353.34s9.77-12.83,12.6-18.32c4.22-8.16,3.26-24,11.33-28.64,8.25-4.79,6.81,16.22,17.26,10.24s10.43-13.05,15.73-16.51,9.92,3.46,16.14,0c7.15-4,10.43-28.29,17.81-32.34,8.26-4.53,11.53,17.61,11.53,17.61v8.85Z"/><path class="cls-25" d="M395.52,353.34s4.59-24.72,9.57-27.62c7.15-4.16,4.64,14.22,14.36,8.29,7.93-4.85,6.46-25.89,16.75-31.69,7.74-4.35,7.24,12.2,16.74,6.82s7.22-31.92,16.74-37.28,8.27,23.06,15.61,18.65c8.69-5.23,5.8-12.24,12.63-18.38v22.1Z"/><path class="cls-26" d="M395.52,353.34s4.59-24.72,9.57-27.62c7.15-4.16,4.64,14.22,14.36,8.29,7.93-4.85,6.46-25.89,16.75-31.69,7.74-4.35,7.24,12.2,16.74,6.82s7.22-31.92,16.74-37.28,8.27,23.06,15.61,18.65c8.69-5.23,5.8-12.24,12.63-18.38v22.1Z"/><path class="cls-10" d="M400.31,290.58c0,1.52,1.07,2.14,2.39,1.38a5.3,5.3,0,0,0,2.39-4.15c0-1.52-1.07-2.14-2.39-1.38A5.29,5.29,0,0,0,400.31,290.58Z"/><path class="cls-26" d="M400.31,290.58c0,1.52,1.07,2.14,2.39,1.38a5.3,5.3,0,0,0,2.39-4.15c0-1.52-1.07-2.14-2.39-1.38A5.29,5.29,0,0,0,400.31,290.58Z"/><path class="cls-19" d="M411.12,283.23,451.7,259.8c.69-.4,1.24-.1,1.24.66a2.67,2.67,0,0,1-1.24,2.1L411.12,286c-.69.4-1.24.1-1.24-.66A2.7,2.7,0,0,1,411.12,283.23Z"/><path class="cls-10" d="M400.31,301.63c0,1.52,1.07,2.14,2.39,1.38a5.3,5.3,0,0,0,2.39-4.15c0-1.52-1.07-2.14-2.39-1.38A5.3,5.3,0,0,0,400.31,301.63Z"/><path class="cls-19" d="M411.12,294.28l40.58-23.43c.69-.4,1.24-.1,1.24.67a2.66,2.66,0,0,1-1.24,2.09l-40.58,23.44c-.69.39-1.24.09-1.24-.67A2.7,2.7,0,0,1,411.12,294.28Z"/><path class="cls-24" d="M390.74,372.24v48c0,.86.6,1.21,1.35.78l57.43-33.16a3,3,0,0,0,1.34-2.33V337.52c0-.86-.6-1.2-1.34-.77L392.09,369.9A3,3,0,0,0,390.74,372.24Z"/><polygon class="cls-10" points="397.07 410.88 397.07 374.34 399.25 373.08 399.25 409.62 397.07 410.88"/><polygon class="cls-19" points="396.57 413.7 399.74 411.87 399.74 412.99 396.57 414.82 396.57 413.7"/><polygon class="cls-10" points="401.22 408.49 401.22 379.25 403.4 377.99 403.4 407.23 401.22 408.49"/><polygon class="cls-19" points="400.73 411.31 403.89 409.48 403.89 410.6 400.72 412.42 400.73 411.31"/><polygon class="cls-10" points="407.55 404.83 407.55 373.08 409.73 371.82 409.73 403.57 407.55 404.83"/><polygon class="cls-19" points="407.06 407.64 410.23 405.81 410.23 406.93 407.06 408.76 407.06 407.64"/><polygon class="cls-10" points="411.7 402.44 411.7 376.16 413.88 374.9 413.88 401.18 411.7 402.44"/><polygon class="cls-19" points="411.21 405.24 414.38 403.41 414.38 404.53 411.21 406.36 411.21 405.24"/><polygon class="cls-10" points="418.03 398.79 418.03 384.14 420.21 382.88 420.21 397.53 418.03 398.79"/><polygon class="cls-19" points="417.53 401.6 420.69 399.77 420.69 400.89 417.53 402.72 417.53 401.6"/><polygon class="cls-10" points="422.18 396.39 422.18 379.76 424.36 378.5 424.36 395.13 422.18 396.39"/><polygon class="cls-19" points="421.68 399.2 424.84 397.38 424.84 398.5 421.68 400.32 421.68 399.2"/><polygon class="cls-10" points="428.51 392.73 428.51 372.69 430.69 371.44 430.69 391.47 428.51 392.73"/><polygon class="cls-19" points="428.04 395.54 431.21 393.71 431.21 394.83 428.04 396.66 428.04 395.54"/><polygon class="cls-10" points="432.66 390.33 432.66 377.3 434.84 376.04 434.84 389.08 432.66 390.33"/><polygon class="cls-19" points="432.19 393.14 435.36 391.31 435.36 392.44 432.19 394.26 432.19 393.14"/><polygon class="cls-10" points="438.99 386.68 438.99 380.98 441.17 379.73 441.17 385.42 438.99 386.68"/><polygon class="cls-10" points="397.07 410.88 397.07 374.34 399.25 373.08 399.25 409.62 397.07 410.88"/><polygon class="cls-10" points="407.55 404.83 407.55 373.08 409.73 371.82 409.73 403.57 407.55 404.83"/><polygon class="cls-10" points="418.03 398.79 418.03 384.14 420.21 382.88 420.21 397.53 418.03 398.79"/><polygon class="cls-10" points="428.51 392.73 428.51 372.69 430.69 371.44 430.69 391.47 428.51 392.73"/><polygon class="cls-10" points="438.99 386.68 438.99 380.98 441.17 379.73 441.17 385.42 438.99 386.68"/><polygon class="cls-19" points="438.52 389.48 441.69 387.65 441.69 388.77 438.52 390.6 438.52 389.48"/><polygon class="cls-10" points="443.14 384.29 443.14 381.45 445.31 380.2 445.31 383.03 443.14 384.29"/><polygon class="cls-19" points="442.68 387.08 445.84 385.25 445.84 386.37 442.67 388.2 442.68 387.08"/><polygon class="cls-10" points="428.71 354.78 426.34 356.15 426.34 358.89 428.71 357.52 428.71 354.78"/><polygon class="cls-26" points="428.71 354.78 426.34 356.15 426.34 358.89 428.71 357.52 428.71 354.78"/><path class="cls-19" d="M447.08,344.56l-17,9.79a1.38,1.38,0,0,0-.62,1.07V356c0,.39.28.55.62.35l17-9.79a1.38,1.38,0,0,0,.62-1.07v-.53C447.7,344.52,447.42,344.36,447.08,344.56Z"/><polygon class="cls-10" points="428.71 359.35 426.34 360.72 426.34 363.46 428.71 362.09 428.71 359.35"/><path class="cls-19" d="M447.08,349.13l-17,9.79a1.38,1.38,0,0,0-.62,1.07v.54c0,.39.28.55.62.35l17-9.79a1.38,1.38,0,0,0,.62-1.07v-.53C447.7,349.09,447.42,348.93,447.08,349.13Z"/><polygon class="cls-10" points="397.07 410.88 397.07 374.34 399.25 373.08 399.25 409.62 397.07 410.88"/><polygon class="cls-10" points="407.55 404.83 407.55 373.08 409.73 371.82 409.73 403.57 407.55 404.83"/><polygon class="cls-10" points="418.03 398.79 418.03 384.14 420.21 382.88 420.21 397.53 418.03 398.79"/><polygon class="cls-10" points="428.51 392.73 428.51 372.69 430.69 371.44 430.69 391.47 428.51 392.73"/><polygon class="cls-10" points="397.07 410.88 397.07 374.34 399.25 373.08 399.25 409.62 397.07 410.88"/><polygon class="cls-10" points="407.55 404.83 407.55 373.08 409.73 371.82 409.73 403.57 407.55 404.83"/><polygon class="cls-10" points="418.03 398.79 418.03 384.14 420.21 382.88 420.21 397.53 418.03 398.79"/><polygon class="cls-10" points="428.51 392.73 428.51 372.69 430.69 371.44 430.69 391.47 428.51 392.73"/><polygon class="cls-10" points="438.99 386.68 438.99 380.98 441.17 379.73 441.17 385.42 438.99 386.68"/><polygon class="cls-26" points="397.07 410.88 397.07 374.34 399.25 373.08 399.25 409.62 397.07 410.88"/><polygon class="cls-26" points="407.55 404.83 407.55 373.08 409.73 371.82 409.73 403.57 407.55 404.83"/><polygon class="cls-26" points="418.03 398.79 418.03 384.14 420.21 382.88 420.21 397.53 418.03 398.79"/><polygon class="cls-26" points="428.51 392.73 428.51 372.69 430.69 371.44 430.69 391.47 428.51 392.73"/><polygon class="cls-26" points="438.99 386.68 438.99 380.98 441.17 379.73 441.17 385.42 438.99 386.68"/><path class="cls-24" d="M457.19,333.92v48c0,.86.61,1.21,1.35.78l43-24.8a3,3,0,0,0,1.35-2.34v-48c0-.86-.61-1.21-1.35-.78l-43,24.8A3,3,0,0,0,457.19,333.92Z"/><polygon class="cls-10" points="462.73 332.82 460.36 334.19 460.36 336.94 462.73 335.56 462.73 332.82"/><path class="cls-19" d="M471.49,328.47,463.66,333a.79.79,0,0,0-.38.64v.74c0,.24.16.34.37.22l7.83-4.52a.84.84,0,0,0,.37-.64v-.75A.23.23,0,0,0,471.49,328.47Z"/><polygon class="cls-10" points="476.18 325.05 473.81 326.42 473.81 329.16 476.18 327.79 476.18 325.05"/><polygon class="cls-26" points="476.18 325.05 473.81 326.42 473.81 329.16 476.18 327.79 476.18 325.05"/><path class="cls-19" d="M485,320.77l-7.84,4.52a.82.82,0,0,0-.37.64v.75c0,.23.17.33.38.21l7.83-4.52a.81.81,0,0,0,.37-.64V321C485.36,320.75,485.19,320.65,485,320.77Z"/><polygon class="cls-10" points="489.63 317.28 487.26 318.65 487.26 321.39 489.63 320.02 489.63 317.28"/><polygon class="cls-14" points="489.63 317.28 487.26 318.65 487.26 321.39 489.63 320.02 489.63 317.28"/><path class="cls-19" d="M498.48,313.07l-7.83,4.52a.84.84,0,0,0-.37.64V319c0,.24.17.33.37.22l7.83-4.52a.83.83,0,0,0,.38-.65v-.74C498.86,313.05,498.69,313,498.48,313.07Z"/><path class="cls-10" d="M480.78,333.5c-7,4-12.66,13.85-12.66,21.92s5.66,11.35,12.66,7.31,12.65-13.85,12.65-21.92S487.77,329.46,480.78,333.5Zm-1.95,25.86a7.63,7.63,0,0,1-3.71,1.2c-2.7,0-3.11-3.22-3.11-5.14,0-6.7,4.91-15.2,10.71-18.55a7.56,7.56,0,0,1,3.71-1.21c2.7,0,3.11,3.23,3.11,5.15C489.54,347.51,484.63,356,478.83,359.36Z"/><path class="cls-26" d="M482.72,336.87a7.56,7.56,0,0,1,3.71-1.21c1.68,0,2.47,1.25,2.83,2.65l2.83-3.26c-2.08-3.59-6.36-4.41-11.31-1.55v4.72A15.06,15.06,0,0,1,482.72,336.87Z"/><path class="cls-14" d="M492.09,335.05l-2.83,3.26a10.35,10.35,0,0,1,.28,2.5,14.94,14.94,0,0,1-.2,2.36l4.09-2.36a11.49,11.49,0,0,0-1.34-5.76Z"/><path class="cls-19" d="M437.85,223.77c.25-.14.43-.15.56,0a1,1,0,0,1,.26.46l4,15.36a1.28,1.28,0,0,1,.07.38,1.18,1.18,0,0,1-.12.5.75.75,0,0,1-.28.34L440,242.13c-.24.13-.42.16-.52.06a.63.63,0,0,1-.19-.36l-.51-2L434,242.6l-.51,2.62a2.1,2.1,0,0,1-.19.57,1.23,1.23,0,0,1-.52.54l-2.29,1.32a.21.21,0,0,1-.28,0,.48.48,0,0,1-.12-.37,2.31,2.31,0,0,1,.07-.46l4-19.93a4.11,4.11,0,0,1,.26-.77,1.33,1.33,0,0,1,.56-.63Zm-2.94,13.94,2.94-1.7-1.47-5.87Z"/><path class="cls-19" d="M452.46,234.94a.44.44,0,0,1-.5,0,.76.76,0,0,1-.24-.25l-4.17-7.18V237a1.55,1.55,0,0,1-.14.62,1,1,0,0,1-.35.42l-2.38,1.38a.27.27,0,0,1-.35,0,.58.58,0,0,1-.15-.45V220.87a1.41,1.41,0,0,1,.15-.62.94.94,0,0,1,.35-.42l1.89-1.09a.44.44,0,0,1,.5,0,.76.76,0,0,1,.24.25l4.17,7.18v-9.47a1.41,1.41,0,0,1,.15-.62.93.93,0,0,1,.34-.42l2.38-1.38a.27.27,0,0,1,.35,0,.57.57,0,0,1,.15.44v18.1a1.37,1.37,0,0,1-.15.61.92.92,0,0,1-.35.43Z"/><path class="cls-19" d="M464.12,208.6c.25-.14.43-.14.56,0a1.06,1.06,0,0,1,.26.46l4,15.36a1.34,1.34,0,0,1,.07.38,1.15,1.15,0,0,1-.12.5.79.79,0,0,1-.28.35L466.29,227c-.24.14-.42.16-.52.06a.64.64,0,0,1-.19-.35l-.51-2-4.84,2.79-.51,2.62a2.1,2.1,0,0,1-.19.57,1.23,1.23,0,0,1-.52.54l-2.29,1.32a.2.2,0,0,1-.28,0,.46.46,0,0,1-.12-.36,2.12,2.12,0,0,1,.07-.46l4-19.94a3.68,3.68,0,0,1,.26-.77,1.33,1.33,0,0,1,.56-.63Zm-2.94,13.94,2.94-1.7L462.65,215Z"/><path class="cls-19" d="M479.37,214.93a.26.26,0,0,1,.34,0,.58.58,0,0,1,.15.45v3a1.37,1.37,0,0,1-.15.61.91.91,0,0,1-.34.43L471,224.27a.26.26,0,0,1-.35,0,.57.57,0,0,1-.15-.44V205.7a1.37,1.37,0,0,1,.15-.61.92.92,0,0,1,.35-.43l2.38-1.37a.26.26,0,0,1,.34,0,.6.6,0,0,1,.15.45v14.37Z"/><path class="cls-19" d="M486.3,214.65a1.37,1.37,0,0,1-.15.61.91.91,0,0,1-.34.43l-2.38,1.37a.27.27,0,0,1-.35,0,.58.58,0,0,1-.15-.45v-6l-4.2-9.48a.71.71,0,0,1-.07-.32,1.19,1.19,0,0,1,.12-.51.75.75,0,0,1,.28-.34l2.49-1.44c.25-.14.43-.15.55,0a.92.92,0,0,1,.22.3l2.29,5.57,2.31-8.23a3.31,3.31,0,0,1,.22-.55,1.34,1.34,0,0,1,.54-.59l2.5-1.44a.21.21,0,0,1,.28,0,.5.5,0,0,1,.11.37,1.35,1.35,0,0,1-.07.4l-4.2,14.33Z"/><path class="cls-19" d="M496.38,189.7a4.76,4.76,0,0,1,2.14-.72,3.23,3.23,0,0,1,1.68.36,2.86,2.86,0,0,1,1.11,1.15,3.66,3.66,0,0,1,.42,1.64,1.11,1.11,0,0,1-.12.5.81.81,0,0,1-.26.34L499,194.34a.71.71,0,0,1-.41.13.74.74,0,0,1-.32-.16l-.17-.18a1,1,0,0,0-.34-.21,1.27,1.27,0,0,0-.54,0,2.27,2.27,0,0,0-.8.31,7.13,7.13,0,0,0-.67.45,4.17,4.17,0,0,0-.56.55,2.64,2.64,0,0,0-.4.67,2.09,2.09,0,0,0-.15.79.83.83,0,0,0,.17.6.77.77,0,0,0,.58.18,4.75,4.75,0,0,0,1.08-.16l1.68-.44a5.78,5.78,0,0,1,1.74-.22,2.1,2.1,0,0,1,1.25.47,2.6,2.6,0,0,1,.75,1.25,7.84,7.84,0,0,1,.24,2.14,9.39,9.39,0,0,1-.42,2.79,11.45,11.45,0,0,1-1.17,2.6,12.07,12.07,0,0,1-1.78,2.25,11.53,11.53,0,0,1-2.25,1.71,5.37,5.37,0,0,1-2.26.8,3,3,0,0,1-1.75-.32,2.78,2.78,0,0,1-1.16-1.19,4,4,0,0,1-.43-1.85,1.29,1.29,0,0,1,.11-.5.75.75,0,0,1,.27-.34l2.38-1.37a.83.83,0,0,1,.4-.14.58.58,0,0,1,.29.13l.22.24a1.32,1.32,0,0,0,.39.29,1.3,1.3,0,0,0,.62.11,2.28,2.28,0,0,0,.92-.34,7,7,0,0,0,1.61-1.25,2.22,2.22,0,0,0,.65-1.54.61.61,0,0,0-.24-.56,1.31,1.31,0,0,0-.71-.11,7.71,7.71,0,0,0-1.21.24l-1.74.44a2.63,2.63,0,0,1-2.74-.48,5,5,0,0,1-.86-3.35,9.32,9.32,0,0,1,.36-2.5,11.37,11.37,0,0,1,1-2.53,12,12,0,0,1,1.63-2.27A9,9,0,0,1,496.38,189.7Z"/><path class="cls-19" d="M504.4,205a.26.26,0,0,1-.34,0,.58.58,0,0,1-.15-.45V186.39a1.41,1.41,0,0,1,.15-.62.93.93,0,0,1,.34-.42l2.38-1.38a.27.27,0,0,1,.35,0,.57.57,0,0,1,.15.44v18.1a1.37,1.37,0,0,1-.15.61.92.92,0,0,1-.35.43Z"/><path class="cls-19" d="M514.55,179.21a4.8,4.8,0,0,1,2.14-.72,3,3,0,0,1,1.68.36,2.74,2.74,0,0,1,1.11,1.15,3.54,3.54,0,0,1,.42,1.64,1.15,1.15,0,0,1-.12.5.66.66,0,0,1-.26.33l-2.39,1.38a.6.6,0,0,1-.4.12.59.59,0,0,1-.32-.15,1.46,1.46,0,0,1-.18-.18.94.94,0,0,0-.33-.21,1.19,1.19,0,0,0-.55-.05,2.15,2.15,0,0,0-.8.31,4.81,4.81,0,0,0-.66.45,5,5,0,0,0-.57.55,3,3,0,0,0-.4.67,2.06,2.06,0,0,0-.15.79.88.88,0,0,0,.17.6.79.79,0,0,0,.58.18,4.75,4.75,0,0,0,1.09-.16l1.67-.44a5.54,5.54,0,0,1,1.75-.22,2.07,2.07,0,0,1,1.24.47,2.46,2.46,0,0,1,.75,1.25,7.84,7.84,0,0,1,.24,2.14,9.76,9.76,0,0,1-.41,2.79,11.68,11.68,0,0,1-3,4.84,10.92,10.92,0,0,1-2.25,1.72,5.48,5.48,0,0,1-2.25.8,3,3,0,0,1-1.76-.32,2.81,2.81,0,0,1-1.15-1.19,4,4,0,0,1-.44-1.85,1.11,1.11,0,0,1,.12-.5.81.81,0,0,1,.26-.34l2.38-1.37a.76.76,0,0,1,.41-.14.57.57,0,0,1,.29.13c0,.05.12.12.21.24a1.25,1.25,0,0,0,.4.29,1.16,1.16,0,0,0,.61.1,2.1,2.1,0,0,0,.92-.33,7,7,0,0,0,1.61-1.25,2.22,2.22,0,0,0,.65-1.54.59.59,0,0,0-.24-.56,1.2,1.2,0,0,0-.71-.11,6.06,6.06,0,0,0-1.21.24l-1.73.44a2.63,2.63,0,0,1-2.74-.48,5,5,0,0,1-.87-3.35,9.32,9.32,0,0,1,.36-2.5,11.86,11.86,0,0,1,2.65-4.8A9,9,0,0,1,514.55,179.21Z"/><path class="cls-10" d="M420.11,418.31l118.22-68.26a2.36,2.36,0,0,1,3.74,1.73l.27,1.52a5.47,5.47,0,0,1-2.45,5.31l-118,68.15a2.41,2.41,0,0,1-3.81-1.71l-.3-1.45A5.3,5.3,0,0,1,420.11,418.31Z"/><path class="cls-10" d="M431.6,484.47l95.48-55.13c1.37-.79,2.9-.56,3.42.5s-.17,2.57-1.54,3.36l-95.62,55.21c-1.37.79-2.87.55-3.35-.54S430.23,485.26,431.6,484.47Z"/><path class="cls-27" d="M431.6,484.47l95.48-55.13c1.37-.79,2.9-.56,3.42.5s-.17,2.57-1.54,3.36l-95.62,55.21c-1.37.79-2.87.55-3.35-.54S430.23,485.26,431.6,484.47Z"/><path class="cls-10" d="M435.44,492.16l58.47-33.74c1.37-.78,2.9-.56,3.42.51s-.18,2.57-1.54,3.36L437.18,496.1c-1.37.78-2.87.54-3.35-.55S434.07,492.94,435.44,492.16Z"/><path class="cls-10" d="M452.39,522.15l96.33-55.62c1.36-.79,3-.64,3.72.34s.13,2.4-1.24,3.19L454.81,525.7c-1.37.79-3,.63-3.69-.35S451,522.94,452.39,522.15Z"/><path class="cls-27" d="M452.39,522.15l96.33-55.62c1.36-.79,3-.64,3.72.34s.13,2.4-1.24,3.19L454.81,525.7c-1.37.79-3,.63-3.69-.35S451,522.94,452.39,522.15Z"/><path class="cls-10" d="M457.29,529.22l37.84-21.84c1.37-.79,3-.65,3.73.31s.14,2.38-1.22,3.17l-37.8,21.82c-1.37.79-3,.66-3.75-.3S455.93,530,457.29,529.22Z"/><path class="cls-10" d="M465.12,539.48l96.53-55.73c1.36-.79,3.09-.68,3.86.25s.27,2.33-1.09,3.12l-96.54,55.71c-1.37.79-3.09.68-3.86-.24S463.75,540.27,465.12,539.48Z"/><path class="cls-27" d="M465.12,539.48l96.53-55.73c1.36-.79,3.09-.68,3.86.25s.27,2.33-1.09,3.12l-96.54,55.71c-1.37.79-3.09.68-3.86-.24S463.75,540.27,465.12,539.48Z"/><path class="cls-10" d="M470.66,546.09l37.63-21.73a3.26,3.26,0,0,1,3.93.25c.8.92.34,2.31-1,3.1l-37.57,21.7a3.36,3.36,0,0,1-4-.23C468.85,548.26,469.29,546.88,470.66,546.09Z"/><path class="cls-10" d="M441.23,503.74l75.55-43.62c1.36-.79,3-.61,3.56.41s0,2.48-1.38,3.27L443.3,507.49c-1.36.79-2.93.59-3.51-.45S439.87,504.53,441.23,503.74Z"/><path class="cls-27" d="M441.23,503.74l75.55-43.62c1.36-.79,3-.61,3.56.41s0,2.48-1.38,3.27L443.3,507.49c-1.36.79-2.93.59-3.51-.45S439.87,504.53,441.23,503.74Z"/><path class="cls-10" d="M445.51,511.23l68.88-39.77c1.36-.79,3-.61,3.62.4s0,2.47-1.33,3.26L447.73,514.9c-1.37.79-3,.61-3.59-.4S444.14,512,445.51,511.23Z"/><path class="cls-10" d="M556.73,428.35a3,3,0,0,1,4.09,1.36,3.14,3.14,0,0,1-.94,4.28,3,3,0,0,1-4.1-1.37A3.12,3.12,0,0,1,556.73,428.35Z"/><path class="cls-10" d="M575.12,457.46a3.56,3.56,0,0,1,4.45,1.14,2.57,2.57,0,0,1-.66,4,3.63,3.63,0,0,1-4.45-1.14A2.63,2.63,0,0,1,575.12,457.46Z"/><path class="cls-27" d="M575.12,457.46a3.56,3.56,0,0,1,4.45,1.14,2.57,2.57,0,0,1-.66,4,3.63,3.63,0,0,1-4.45-1.14A2.63,2.63,0,0,1,575.12,457.46Z"/><path class="cls-24" d="M504.94,585.13l143.54-82.88a8.71,8.71,0,0,1,7.86,0l76,43.85c2.17,1.26,2.17,3.29,0,4.54L588.75,633.53a8.71,8.71,0,0,1-7.86,0l-75.95-43.86C502.77,588.42,502.77,586.39,504.94,585.13Z"/><path class="cls-19" d="M602.11,611.27a1.56,1.56,0,0,1,.25.17.83.83,0,0,1,.17.21.92.92,0,0,1,.09.23,1.4,1.4,0,0,1,0,.29l-.08.65,1.08-.62a.21.21,0,0,1,.12,0l.13,0,.53.3a.19.19,0,0,1,.06.07.08.08,0,0,1-.05.08l-2.26,1.3a.23.23,0,0,1-.13,0,.25.25,0,0,1-.12,0l-.43-.24a.47.47,0,0,1-.13-.11.17.17,0,0,1,0-.13l.23-1.36a.3.3,0,0,0,0-.24.58.58,0,0,0-.17-.14l-.1-.05-.18,0h-.21a.57.57,0,0,0-.24.08.34.34,0,0,0-.15.14.2.2,0,0,0,0,.13.36.36,0,0,0,.07.1l.06.07s0,.07,0,.1a.3.3,0,0,1-.08.07l-.53.3a.15.15,0,0,1-.1,0l-.1,0a1.4,1.4,0,0,1-.34-.29.61.61,0,0,1-.15-.34.58.58,0,0,1,.1-.37,1,1,0,0,1,.41-.36,2.22,2.22,0,0,1,.6-.24A3.34,3.34,0,0,1,601,611a2.8,2.8,0,0,1,.59.09A2,2,0,0,1,602.11,611.27Z"/><path class="cls-19" d="M602.68,609.59a2.3,2.3,0,0,1,.66-.25,2.23,2.23,0,0,1,.68-.05,2.85,2.85,0,0,1,.65.11,3.27,3.27,0,0,1,.6.25l.46.25.42.26a1.7,1.7,0,0,1,.43.34.78.78,0,0,1,.2.38.57.57,0,0,1-.09.39,1.33,1.33,0,0,1-.44.39,2.46,2.46,0,0,1-1.34.3,2.85,2.85,0,0,1-.66-.11,4,4,0,0,1-.6-.25l-.45-.24-.44-.27a2.08,2.08,0,0,1-.42-.34.78.78,0,0,1-.2-.38.57.57,0,0,1,.09-.39A1.28,1.28,0,0,1,602.68,609.59Zm2.66,1q-.4-.26-.84-.48l-.26-.11A1.14,1.14,0,0,0,604,610h-.26a.82.82,0,0,0-.26.1.43.43,0,0,0-.17.15.2.2,0,0,0,0,.15.36.36,0,0,0,.11.15.86.86,0,0,0,.2.15,8.21,8.21,0,0,0,.83.48,1.42,1.42,0,0,0,.25.12l.26.06a1.11,1.11,0,0,0,.26,0,.82.82,0,0,0,.26-.1.43.43,0,0,0,.17-.15.2.2,0,0,0,0-.15.44.44,0,0,0-.1-.15Z"/><path class="cls-19" d="M605.41,609.36a.21.21,0,0,1-.12,0s0-.05,0-.08l.1-1s0-.05,0-.08a.14.14,0,0,1,.08-.09l.52-.3a.21.21,0,0,1,.12,0,.18.18,0,0,1,.13,0l3.2,1.84s.06,0,.06.08,0,0,0,.07l-.56.32a.21.21,0,0,1-.12,0,.28.28,0,0,1-.13,0l-2.17-1.25-.06.56s0,0-.06.06a.28.28,0,0,1-.13,0Z"/><path class="cls-19" d="M611.35,607.27a1.28,1.28,0,0,1,.42.36.65.65,0,0,1,.11.39.78.78,0,0,1-.16.38,1.41,1.41,0,0,1-.41.33,2.06,2.06,0,0,1-.57.23,2.84,2.84,0,0,1-.66.1,3.05,3.05,0,0,1-.67-.07,2,2,0,0,1-.62-.24,1.08,1.08,0,0,1-.25-.18,1.29,1.29,0,0,1-.16-.18,1.62,1.62,0,0,1-.1-.18l-.07-.16-.46-1.21a.2.2,0,0,0,0-.07s0,0,0-.07l.68-.39s0,0,.09,0a.17.17,0,0,1,.1,0l0,0v0l.31.83a2.53,2.53,0,0,1,.55-.18,3.08,3.08,0,0,1,.61,0,2.47,2.47,0,0,1,.6.08A2.18,2.18,0,0,1,611.35,607.27Zm-1.77,1a.63.63,0,0,0,.24.09,1.06,1.06,0,0,0,.25,0l.24,0a1,1,0,0,0,.21-.09.44.44,0,0,0,.15-.12.27.27,0,0,0,.07-.14.35.35,0,0,0,0-.14.38.38,0,0,0-.16-.14.92.92,0,0,0-.23-.09l-.25,0a1.48,1.48,0,0,0-.45.13.61.61,0,0,0-.15.12.31.31,0,0,0-.07.14.21.21,0,0,0,0,.15A.39.39,0,0,0,609.58,608.29Z"/><path class="cls-19" d="M639.46,590l.25.18a.79.79,0,0,1,.17.2.85.85,0,0,1,.09.24,1.31,1.31,0,0,1,0,.28l-.08.65,1.08-.62a.22.22,0,0,1,.12,0,.25.25,0,0,1,.13,0l.53.3a.21.21,0,0,1,.06.08s0,0,0,.07l-2.26,1.31a.22.22,0,0,1-.12,0,.25.25,0,0,1-.13,0l-.43-.25a.69.69,0,0,1-.13-.11.2.2,0,0,1,0-.13l.23-1.35a.33.33,0,0,0,0-.25.61.61,0,0,0-.17-.14l-.1-.05-.18,0h-.21a.75.75,0,0,0-.24.08.41.41,0,0,0-.15.14.31.31,0,0,0,0,.13.41.41,0,0,0,.07.11l.06.07a.09.09,0,0,1,0,.09.35.35,0,0,1-.09.07l-.53.31-.1,0a.17.17,0,0,1-.1,0,1.21,1.21,0,0,1-.34-.29.58.58,0,0,1-.15-.34.59.59,0,0,1,.1-.37,1.15,1.15,0,0,1,.41-.36,1.91,1.91,0,0,1,.6-.23,2.21,2.21,0,0,1,.62-.06,2.27,2.27,0,0,1,.59.08A2.69,2.69,0,0,1,639.46,590Z"/><path class="cls-19" d="M640,588.33a2.33,2.33,0,0,1,.66-.26,3.12,3.12,0,0,1,.68-.05,2.41,2.41,0,0,1,.65.12,2.69,2.69,0,0,1,.6.24l.46.25.43.26a1.86,1.86,0,0,1,.42.35.67.67,0,0,1,.2.38.57.57,0,0,1-.09.39,1.22,1.22,0,0,1-.44.38,2.51,2.51,0,0,1-.67.26,3,3,0,0,1-.67.05,2.41,2.41,0,0,1-.66-.12,3.13,3.13,0,0,1-.6-.24l-.45-.25-.43-.26a2.25,2.25,0,0,1-.43-.35.74.74,0,0,1-.2-.38.57.57,0,0,1,.09-.39A1.26,1.26,0,0,1,640,588.33Zm2.66,1c-.27-.17-.55-.33-.83-.49l-.27-.11a1.14,1.14,0,0,0-.25-.06.76.76,0,0,0-.26,0,.82.82,0,0,0-.26.1.43.43,0,0,0-.17.15.16.16,0,0,0,0,.15.33.33,0,0,0,.1.15.78.78,0,0,0,.2.14c.26.17.53.33.83.49l.25.11a1.22,1.22,0,0,0,.26.06.75.75,0,0,0,.26,0,.64.64,0,0,0,.26-.1.37.37,0,0,0,.17-.15.16.16,0,0,0,0-.15.44.44,0,0,0-.1-.15A1,1,0,0,0,642.69,589.34Z"/><path class="cls-19" d="M642.76,588.1a.22.22,0,0,1-.12-.05.07.07,0,0,1,0-.08l.1-1s0-.06,0-.09a.22.22,0,0,1,.08-.09l.52-.3a.16.16,0,0,1,.12,0,.25.25,0,0,1,.13,0l3.2,1.85s.06,0,.06.07,0,.05,0,.07l-.56.33a.22.22,0,0,1-.12,0,.28.28,0,0,1-.13,0l-2.17-1.25-.06.55s0,0-.06.06a.27.27,0,0,1-.13,0Z"/><path class="cls-19" d="M647.64,587.86l0,0-1.57-2-1.27.74a.27.27,0,0,1-.13,0,.21.21,0,0,1-.12,0l-.53-.3s-.06,0-.06-.08a.08.08,0,0,1,0-.07l2-1.18a.27.27,0,0,1,.12,0,.22.22,0,0,1,.13,0l.46.26a.56.56,0,0,1,.19.19l1.57,2a.25.25,0,0,1,0,.07s0,0,0,.07l-.6.35-.1,0A.24.24,0,0,1,647.64,587.86Z"/><path class="cls-19" d="M678.65,567.27l.25.18a.79.79,0,0,1,.17.2.85.85,0,0,1,.09.24.87.87,0,0,1,0,.28l-.08.65,1.08-.62a.22.22,0,0,1,.12,0,.28.28,0,0,1,.13,0l.53.31a.13.13,0,0,1,.06.07s0,0,0,.07L678.69,570a.22.22,0,0,1-.12,0,.25.25,0,0,1-.13,0l-.43-.25a.45.45,0,0,1-.13-.11.15.15,0,0,1,0-.13l.22-1.35a.33.33,0,0,0-.05-.25.61.61,0,0,0-.17-.14l-.1-.05-.18,0h-.21a.59.59,0,0,0-.24.09.29.29,0,0,0-.15.14.17.17,0,0,0,0,.12.41.41,0,0,0,.07.11l.06.07s0,.06,0,.09,0,0-.08.07l-.53.31-.1,0a.17.17,0,0,1-.1,0,1.38,1.38,0,0,1-.34-.28.64.64,0,0,1-.15-.35.59.59,0,0,1,.1-.37,1.15,1.15,0,0,1,.41-.36,1.91,1.91,0,0,1,.6-.23,2.21,2.21,0,0,1,.62-.06,2.27,2.27,0,0,1,.59.08A3.13,3.13,0,0,1,678.65,567.27Z"/><path class="cls-19" d="M679.22,565.6a2.33,2.33,0,0,1,.66-.26,3.12,3.12,0,0,1,.68-.05,2.41,2.41,0,0,1,.65.12,2.69,2.69,0,0,1,.6.24l.46.25.43.26a1.86,1.86,0,0,1,.42.35.67.67,0,0,1,.2.38.57.57,0,0,1-.09.39,1.22,1.22,0,0,1-.44.38,2.51,2.51,0,0,1-.67.26,3,3,0,0,1-.67.05,2.41,2.41,0,0,1-.66-.12,3.13,3.13,0,0,1-.6-.24l-.45-.25-.43-.26a1.93,1.93,0,0,1-.43-.35.74.74,0,0,1-.2-.38.57.57,0,0,1,.09-.39A1.18,1.18,0,0,1,679.22,565.6Zm2.66,1c-.27-.17-.55-.33-.83-.49l-.27-.11a1.14,1.14,0,0,0-.25-.06.76.76,0,0,0-.26,0,.82.82,0,0,0-.26.1.43.43,0,0,0-.17.15.2.2,0,0,0,0,.15.48.48,0,0,0,.11.15,1.15,1.15,0,0,0,.2.15c.26.16.53.32.83.48l.25.11.26.06a.75.75,0,0,0,.26,0,.82.82,0,0,0,.26-.1.37.37,0,0,0,.17-.15.16.16,0,0,0,0-.15.44.44,0,0,0-.1-.15Z"/><path class="cls-19" d="M682,565.37a.22.22,0,0,1-.12,0,.07.07,0,0,1,0-.08l.1-1s0,0,0-.09a.22.22,0,0,1,.08-.09l.52-.3a.16.16,0,0,1,.12,0,.25.25,0,0,1,.13,0l3.2,1.85s.06,0,.06.07,0,0,0,.07l-.56.33a.22.22,0,0,1-.12,0,.28.28,0,0,1-.13,0L683,564.83l-.07.55s0,0-.06.06a.27.27,0,0,1-.13,0Z"/><path class="cls-19" d="M684.21,564a1,1,0,0,1-.35-.32.55.55,0,0,1-.08-.35.73.73,0,0,1,.16-.35,1.35,1.35,0,0,1,.38-.31,2.43,2.43,0,0,1,.55-.22,2.85,2.85,0,0,1,1.21,0,1.83,1.83,0,0,1,.54.2,1.35,1.35,0,0,1,.31.25.67.67,0,0,1,.13.27,2.33,2.33,0,0,1,.53.06,1.66,1.66,0,0,1,.48.19.9.9,0,0,1,.35.31.52.52,0,0,1,.07.36.76.76,0,0,1-.18.36,1.46,1.46,0,0,1-.42.33,2.64,2.64,0,0,1-.57.24,2.78,2.78,0,0,1-.63.11,2.6,2.6,0,0,1-.62,0,1.65,1.65,0,0,1-.54-.19,1,1,0,0,1-.32-.28.56.56,0,0,1-.11-.31,2.57,2.57,0,0,1-.47-.08A1.94,1.94,0,0,1,684.21,564Zm.78-.47a.67.67,0,0,0,.35.08,1,1,0,0,0,.4-.12c.13-.07.2-.15.21-.23a.21.21,0,0,0-.13-.2.65.65,0,0,0-.35-.08,1,1,0,0,0-.4.12c-.13.07-.2.15-.21.23A.21.21,0,0,0,685,563.51Zm1.35.85a.55.55,0,0,0,.35.07,1.08,1.08,0,0,0,.46-.15c.16-.09.25-.18.26-.26s0-.15-.12-.21a.68.68,0,0,0-.36-.07,1.09,1.09,0,0,0-.45.15c-.16.1-.25.18-.27.26A.2.2,0,0,0,686.34,564.36Z"/><path class="cls-19" d="M711,548.58a1.8,1.8,0,0,1,.25.18,1.12,1.12,0,0,1,.18.2.62.62,0,0,1,.08.24.71.71,0,0,1,0,.29l-.07.64,1.08-.62a.22.22,0,0,1,.12,0,.21.21,0,0,1,.12,0l.53.31s.06,0,.06.07a.08.08,0,0,1,0,.07l-2.27,1.31a.16.16,0,0,1-.12,0,.28.28,0,0,1-.13,0l-.42-.25a.28.28,0,0,1-.13-.11.13.13,0,0,1,0-.13l.22-1.35a.29.29,0,0,0-.05-.25.73.73,0,0,0-.16-.14l-.11,0-.17,0h-.22a.59.59,0,0,0-.24.09.27.27,0,0,0-.14.14.17.17,0,0,0,0,.12.24.24,0,0,0,.06.11l.06.07a.09.09,0,0,1,0,.09.22.22,0,0,1-.09.07l-.52.31-.1,0a.2.2,0,0,1-.11,0,1.52,1.52,0,0,1-.33-.28.74.74,0,0,1-.16-.35.59.59,0,0,1,.1-.37,1.3,1.3,0,0,1,.42-.36,2,2,0,0,1,.59-.23,2.25,2.25,0,0,1,.63-.06,2.33,2.33,0,0,1,.59.08A3,3,0,0,1,711,548.58Z"/><path class="cls-19" d="M711.59,546.91a2.45,2.45,0,0,1,.66-.26,3.16,3.16,0,0,1,.68,0,2.55,2.55,0,0,1,.66.12,3.13,3.13,0,0,1,.6.24l.45.26c.16.08.3.17.43.25a2.16,2.16,0,0,1,.42.35.62.62,0,0,1,.2.38.48.48,0,0,1-.09.39,1.22,1.22,0,0,1-.44.38,2.45,2.45,0,0,1-.66.26,2.63,2.63,0,0,1-.68,0,2.55,2.55,0,0,1-.66-.12,3.13,3.13,0,0,1-.6-.24l-.44-.25-.44-.26a1.86,1.86,0,0,1-.42-.35.76.76,0,0,1-.21-.38.53.53,0,0,1,.1-.39A1.22,1.22,0,0,1,711.59,546.91Zm2.66,1c-.27-.17-.55-.33-.83-.48l-.26-.12a1.22,1.22,0,0,0-.26-.06.77.77,0,0,0-.26,0,1.06,1.06,0,0,0-.26.1.52.52,0,0,0-.17.15.2.2,0,0,0,0,.15.33.33,0,0,0,.1.15,1.15,1.15,0,0,0,.2.15l.83.48.26.11a1.1,1.1,0,0,0,.26.06.82.82,0,0,0,.52-.11.52.52,0,0,0,.17-.15.2.2,0,0,0,0-.15.33.33,0,0,0-.1-.15A1.15,1.15,0,0,0,714.25,547.92Z"/><path class="cls-19" d="M714.32,546.68a.22.22,0,0,1-.12,0,.09.09,0,0,1,0-.08l.1-1a.64.64,0,0,0,0-.09s0-.06.07-.09l.53-.3a.16.16,0,0,1,.12,0,.28.28,0,0,1,.13,0l3.2,1.85a.19.19,0,0,1,.06.07.07.07,0,0,1,0,.07l-.57.33a.22.22,0,0,1-.12,0,.28.28,0,0,1-.13,0l-2.16-1.25-.07.55s0,0-.06.06a.17.17,0,0,1-.13,0Z"/><path class="cls-19" d="M716.58,545.45a1.23,1.23,0,0,1-.41-.36.64.64,0,0,1-.11-.38.84.84,0,0,1,.16-.38,1.59,1.59,0,0,1,.39-.32,2.52,2.52,0,0,1,.55-.22,3.4,3.4,0,0,1,.65-.09,2.57,2.57,0,0,1,.67.06,2.22,2.22,0,0,1,.62.24,1.13,1.13,0,0,1,.39.34.81.81,0,0,1,.1.18l.08.17.49,1.22a.2.2,0,0,0,0,.07s0,0,0,.07l-.68.39a.15.15,0,0,1-.09,0,.35.35,0,0,1-.11,0l0,0v0l-.34-.83a2.18,2.18,0,0,1-.53.15,2.88,2.88,0,0,1-.59,0,3.07,3.07,0,0,1-.6-.07A2.45,2.45,0,0,1,716.58,545.45Zm1.72-1a.49.49,0,0,0-.21-.08.69.69,0,0,0-.25,0,.85.85,0,0,0-.23,0,1,1,0,0,0-.21.08.58.58,0,0,0-.14.12.28.28,0,0,0-.06.14.27.27,0,0,0,0,.14.34.34,0,0,0,.14.12.73.73,0,0,0,.22.09l.24,0,.24,0a.7.7,0,0,0,.2-.08.33.33,0,0,0,.14-.12.2.2,0,0,0,.06-.14.16.16,0,0,0,0-.13A.39.39,0,0,0,718.3,544.46Z"/><path class="cls-28" d="M571.43,613.87c3.51-2.11-24-18.52-11.95-25.29s31.67,9.33,43.81,2.3c11.56-6.7-23.88-23.06-11.94-29.89s35.29,11.33,47.79,4.59c10.87-5.86-2.18-12.37,3-17.35s18.9,1.14,27.81-3.73-24.74-15.78-6.3-26.42l43,24.83L578,617.66Z"/><path class="cls-10" d="M572.92,614.15l-3-.55c.85-.54-2.34-3.61-4.91-6.07-6.43-6.18-15.24-14.64-7-19.24a16.64,16.64,0,0,1,7.34-1.94c5.57-.3,11.36,1.38,17,3,5,1.47,10.27,3,14.33,2.76a11.43,11.43,0,0,0,5.17-1.51c5.36-3.11-.48-8.8-6.13-14.31-6-5.87-12.21-11.93-5.81-15.59a15.44,15.44,0,0,1,7-1.82c6.06-.28,12.48,1.77,19.27,3.94,6,1.92,12.19,3.91,16.82,3.71a10.7,10.7,0,0,0,4.72-1.24c5.92-3.19,4.34-6.63,2.8-9.95-1.19-2.59-2.32-5,0-7.29,3-2.93,9.28-2.57,14.3-2.28,5.25.3,9.78.56,13.66-1.56,3.2-1.75-.15-4.67-4-8-6.06-5.27-13.61-11.84-2.28-18.38l2.94.57c-10.52,6.07-3.29,12.35,2.51,17.4,4.21,3.66,7.84,6.81,3.77,9-5.07,2.77-11.76,2.39-17.13,2.08s-8.43-.48-10.52,1.54-1,4.3.14,6.75c1.55,3.36,3.31,7.17-3.27,10.71a16.53,16.53,0,0,1-7.19,1.77c-6.23.27-12.72-1.81-19.59-4-5.91-1.89-12-3.85-16.45-3.64a9.94,9.94,0,0,0-4.54,1.27c-5.61,3.22.34,9,6.1,14.65,6.16,6,12,11.69,5.85,15.24a16.79,16.79,0,0,1-7.55,2.07c-5.64.31-11.48-1.38-17.12-3-5-1.46-10.18-3-14.19-2.75a11.22,11.22,0,0,0-5,1.41c-7.41,4.15,1.45,12.66,7.31,18.29C572.49,611.23,574.46,613.22,572.92,614.15Z"/><path class="cls-19" d="M594.6,562.86a1.54,1.54,0,0,1-.9-.08l-.65-.38c-.18-.1-.07-.23.24-.29a1.49,1.49,0,0,1,.89.08l.66.38C595,562.67,594.91,562.8,594.6,562.86Z"/><path class="cls-19" d="M632.12,584.53a1.62,1.62,0,0,1-.9-.08l-1.34-.78c-.18-.1-.07-.24.24-.3a1.6,1.6,0,0,1,.9.08l1.34.78C632.54,584.33,632.43,584.47,632.12,584.53ZM629.44,583a1.62,1.62,0,0,1-.9-.08l-1.34-.78c-.18-.1-.07-.23.24-.29a1.52,1.52,0,0,1,.9.08l1.34.77C629.86,582.78,629.75,582.92,629.44,583Zm-2.68-1.55a1.54,1.54,0,0,1-.9-.08l-1.34-.77c-.18-.11-.07-.24.24-.3a1.52,1.52,0,0,1,.9.08l1.34.77C627.18,581.24,627.07,581.37,626.76,581.43Zm-2.68-1.55a1.53,1.53,0,0,1-.9-.08l-1.34-.77c-.18-.1-.07-.24.24-.3a1.6,1.6,0,0,1,.9.08l1.34.78C624.5,579.69,624.39,579.82,624.08,579.88Zm-2.68-1.54a1.6,1.6,0,0,1-.9-.08l-1.34-.78c-.18-.1-.07-.24.24-.3a1.6,1.6,0,0,1,.9.08l1.34.78C621.82,578.14,621.71,578.28,621.4,578.34Zm-2.68-1.55a1.62,1.62,0,0,1-.9-.08l-1.34-.77c-.18-.11-.07-.24.24-.3a1.52,1.52,0,0,1,.9.08l1.34.77C619.14,576.6,619,576.73,618.72,576.79ZM616,575.24a1.54,1.54,0,0,1-.9-.08l-1.34-.77c-.18-.11-.07-.24.24-.3a1.6,1.6,0,0,1,.9.08l1.34.77C616.46,575.05,616.35,575.18,616,575.24Zm-2.68-1.55a1.53,1.53,0,0,1-.9-.08l-1.34-.77c-.18-.1-.07-.24.24-.3a1.6,1.6,0,0,1,.9.08l1.34.78C613.78,573.5,613.67,573.63,613.36,573.69Zm-2.68-1.54a1.6,1.6,0,0,1-.9-.08l-1.34-.78c-.18-.1-.07-.23.24-.29a1.52,1.52,0,0,1,.9.08l1.34.77C611.1,572,611,572.09,610.68,572.15ZM608,570.6a1.62,1.62,0,0,1-.9-.08l-1.34-.77c-.18-.11-.07-.24.24-.3a1.52,1.52,0,0,1,.9.08l1.34.77C608.42,570.41,608.31,570.54,608,570.6Zm-2.68-1.55a1.54,1.54,0,0,1-.9-.08l-1.34-.77c-.18-.11-.07-.24.24-.3a1.6,1.6,0,0,1,.9.08l1.34.77C605.74,568.86,605.63,569,605.32,569.05Zm-2.68-1.55a1.54,1.54,0,0,1-.9-.07l-1.34-.78c-.18-.1-.07-.24.24-.3a1.6,1.6,0,0,1,.9.08l1.34.78C603.06,567.31,603,567.44,602.64,567.5ZM600,566a1.61,1.61,0,0,1-.9-.08l-1.34-.78c-.18-.1-.07-.23.24-.29a1.52,1.52,0,0,1,.9.08l1.34.77C600.38,565.76,600.27,565.9,600,566Zm-2.68-1.55a1.6,1.6,0,0,1-.9-.08l-1.34-.77c-.18-.11-.07-.24.24-.3a1.52,1.52,0,0,1,.9.08l1.34.77C597.7,564.22,597.59,564.35,597.28,564.41Z"/><path class="cls-19" d="M634.11,585.68a1.57,1.57,0,0,1-.89-.08l-.66-.38c-.18-.11-.07-.24.24-.3a1.6,1.6,0,0,1,.9.08l.65.38C634.53,585.48,634.43,585.62,634.11,585.68Z"/><path class="cls-19" d="M592.47,607.24a1.52,1.52,0,0,1-.9-.08l-1.34-.77c-.18-.11-.07-.24.24-.3a1.6,1.6,0,0,1,.9.08l1.34.77C592.89,607.05,592.78,607.18,592.47,607.24Zm-2.68-1.55a1.52,1.52,0,0,1-.9-.08l-1.34-.77c-.18-.1-.07-.24.24-.3a1.6,1.6,0,0,1,.9.08l1.34.78C590.21,605.5,590.1,605.63,589.79,605.69Zm-2.68-1.54a1.6,1.6,0,0,1-.9-.08l-1.34-.78c-.18-.1-.07-.23.24-.29a1.52,1.52,0,0,1,.9.08l1.34.77C587.53,604,587.42,604.09,587.11,604.15Zm-2.68-1.55a1.6,1.6,0,0,1-.9-.08l-1.34-.77c-.18-.11-.07-.24.24-.3a1.52,1.52,0,0,1,.9.08l1.34.77C584.85,602.41,584.74,602.54,584.43,602.6Zm-2.68-1.55a1.52,1.52,0,0,1-.9-.08l-1.34-.77c-.18-.11-.07-.24.24-.3a1.6,1.6,0,0,1,.9.08l1.34.77C582.17,600.86,582.06,601,581.75,601.05Zm-2.68-1.54a1.6,1.6,0,0,1-.9-.08l-1.34-.78c-.18-.1-.07-.24.24-.3a1.6,1.6,0,0,1,.9.08l1.34.78C579.49,599.31,579.38,599.44,579.07,599.51ZM576.39,598a1.6,1.6,0,0,1-.9-.08l-1.34-.78c-.18-.1-.07-.23.24-.29a1.52,1.52,0,0,1,.9.08l1.34.77C576.81,597.76,576.7,597.9,576.39,598Zm-2.68-1.55a1.6,1.6,0,0,1-.9-.08l-1.34-.77c-.18-.11-.07-.24.24-.3a1.52,1.52,0,0,1,.9.08l1.34.77C574.13,596.22,574,596.35,573.71,596.41ZM571,594.86a1.52,1.52,0,0,1-.9-.08l-1.34-.77c-.18-.1-.07-.24.24-.3a1.6,1.6,0,0,1,.9.08l1.34.77C571.45,594.67,571.34,594.8,571,594.86Zm-2.68-1.54a1.6,1.6,0,0,1-.9-.08l-1.34-.78c-.18-.1-.07-.24.24-.3a1.6,1.6,0,0,1,.9.08l1.34.78C568.77,593.12,568.66,593.26,568.35,593.32Zm-2.68-1.55a1.6,1.6,0,0,1-.9-.08l-1.34-.78c-.18-.1-.07-.23.24-.29a1.52,1.52,0,0,1,.9.08l1.34.77C566.09,591.58,566,591.71,565.67,591.77ZM563,590.22a1.52,1.52,0,0,1-.9-.08l-1.34-.77c-.18-.11-.07-.24.24-.3a1.6,1.6,0,0,1,.9.08l1.34.77C563.41,590,563.3,590.16,563,590.22Z"/><path class="cls-19" d="M594.46,608.39a1.49,1.49,0,0,1-.89-.08l-.66-.37c-.18-.11-.07-.24.24-.3a1.52,1.52,0,0,1,.9.08l.65.38C594.88,608.2,594.78,608.33,594.46,608.39Z"/><path class="cls-19" d="M646.64,548.12a1.6,1.6,0,0,1-.9-.08l-.65-.38c-.18-.11-.08-.24.24-.3a1.57,1.57,0,0,1,.89.08l.66.38C647.06,547.92,647,548.06,646.64,548.12Z"/><path class="cls-19" d="M670.58,561.94a1.62,1.62,0,0,1-.9-.08l-1.33-.77c-.18-.1-.07-.24.24-.3a1.6,1.6,0,0,1,.9.08l1.33.77C671,561.75,670.89,561.88,670.58,561.94Zm-2.66-1.54a1.53,1.53,0,0,1-.9-.08l-1.33-.76c-.18-.11-.07-.24.24-.3a1.52,1.52,0,0,1,.9.08l1.33.77C668.34,560.21,668.23,560.34,667.92,560.4Zm-2.66-1.53a1.61,1.61,0,0,1-.9-.08L663,558c-.18-.1-.07-.24.24-.3a1.6,1.6,0,0,1,.9.08l1.33.77C665.68,558.67,665.57,558.81,665.26,558.87Zm-2.66-1.54a1.53,1.53,0,0,1-.9-.08l-1.33-.77c-.18-.1-.07-.23.24-.29a1.52,1.52,0,0,1,.9.08l1.33.76C663,557.14,662.91,557.27,662.6,557.33Zm-2.66-1.53a1.6,1.6,0,0,1-.9-.08l-1.33-.77c-.18-.11-.07-.24.24-.3a1.6,1.6,0,0,1,.9.08l1.33.77C660.36,555.6,660.25,555.74,659.94,555.8Zm-2.66-1.54a1.52,1.52,0,0,1-.9-.08l-1.33-.77c-.18-.1-.07-.23.24-.29a1.52,1.52,0,0,1,.9.07l1.33.77C657.7,554.07,657.59,554.2,657.28,554.26Zm-2.66-1.54a1.44,1.44,0,0,1-.9-.08l-1.33-.76c-.18-.11-.07-.24.24-.3a1.52,1.52,0,0,1,.9.08l1.33.77C655,552.53,654.93,552.66,654.62,552.72ZM652,551.19a1.6,1.6,0,0,1-.9-.08l-1.33-.77c-.18-.1-.07-.24.24-.3a1.6,1.6,0,0,1,.9.08l1.33.77C652.38,551,652.27,551.13,652,551.19Zm-2.66-1.54a1.52,1.52,0,0,1-.9-.08l-1.33-.76c-.18-.11-.07-.24.24-.3a1.52,1.52,0,0,1,.9.08l1.33.77C649.72,549.46,649.61,549.59,649.3,549.65Z"/><path class="cls-19" d="M672.56,563.09a1.57,1.57,0,0,1-.89-.08l-.66-.38c-.18-.11-.07-.24.24-.3a1.6,1.6,0,0,1,.9.08l.65.38C673,562.89,672.88,563,672.56,563.09Z"/><polygon class="cls-19" points="589.08 554.53 582.93 550.98 574.84 555.67 580.98 559.22 584.34 557.27 588.22 558.61 586.49 556.03 586.49 556.03 589.08 554.53"/><polygon class="cls-19" points="556.88 582.77 550.73 579.22 542.63 583.92 548.78 587.46 552.14 585.51 556.01 586.85 554.29 584.27 554.29 584.27 556.88 582.77"/><polygon class="cls-19" points="643.05 541.37 636.91 537.82 628.81 542.51 634.96 546.06 638.32 544.11 642.19 545.44 640.47 542.87 640.47 542.87 643.05 541.37"/><path class="cls-19" d="M625.36,634a.31.31,0,0,1,.18,0,.41.41,0,0,1,.19,0l.76.44a.23.23,0,0,1,.11.11.52.52,0,0,1,0,.11l.13.95a4,4,0,0,1,1.29-.18,2.64,2.64,0,0,1,1.22.35c.54.32.79.65.74,1s-.37.69-1,1a4.3,4.3,0,0,1-.92.39,3.84,3.84,0,0,1-.92.15,3.75,3.75,0,0,1-.83,0,2.44,2.44,0,0,1-.66-.23.13.13,0,0,1-.07-.09.08.08,0,0,1,.05-.08l.79-.46a.56.56,0,0,1,.27-.08h.31a2.47,2.47,0,0,0,.36,0,1.81,1.81,0,0,0,.46-.18.88.88,0,0,0,.38-.36c.06-.12,0-.23-.17-.33a.9.9,0,0,0-.56-.1,1.87,1.87,0,0,0-.62.23l-.52.3a.34.34,0,0,1-.18,0,.38.38,0,0,1-.19-.05l-.62-.36a.23.23,0,0,1-.11-.11.5.5,0,0,1,0-.12l-.11-.83-1.64,1a.34.34,0,0,1-.18,0,.38.38,0,0,1-.19-.05l-.77-.44a.19.19,0,0,1-.09-.11.11.11,0,0,1,.06-.1Z"/><path class="cls-19" d="M628.12,632.37a3,3,0,0,1,1-.38,4.14,4.14,0,0,1,1-.08,4.39,4.39,0,0,1,1,.17,5.78,5.78,0,0,1,.88.36l.67.37.62.38a3.33,3.33,0,0,1,.63.51,1.1,1.1,0,0,1,.29.55.86.86,0,0,1-.13.57,1.83,1.83,0,0,1-.66.57,3.19,3.19,0,0,1-1,.37,3.68,3.68,0,0,1-1,.08,4.39,4.39,0,0,1-1-.17,5.78,5.78,0,0,1-.88-.36l-.65-.36c-.23-.13-.44-.26-.64-.39a3.33,3.33,0,0,1-.63-.51,1.1,1.1,0,0,1-.29-.55.86.86,0,0,1,.13-.57A1.73,1.73,0,0,1,628.12,632.37Zm3.89,1.47c-.39-.25-.8-.48-1.22-.71a3.08,3.08,0,0,0-.38-.16,1.25,1.25,0,0,0-.37-.09,1.6,1.6,0,0,0-.38,0,1.12,1.12,0,0,0-.38.15.55.55,0,0,0-.25.22.24.24,0,0,0,0,.22.46.46,0,0,0,.15.21,1.38,1.38,0,0,0,.29.22,14,14,0,0,0,1.22.71,3,3,0,0,0,.37.16,1.31,1.31,0,0,0,.38.09,1.2,1.2,0,0,0,.38,0,1.12,1.12,0,0,0,.38-.15.55.55,0,0,0,.25-.22.28.28,0,0,0,0-.22.69.69,0,0,0-.15-.21A1.46,1.46,0,0,0,632,633.84Z"/><path class="cls-19" d="M633.53,630.47c.21.11.39.21.56.32a2.39,2.39,0,0,1,.33.27.59.59,0,0,1,.14.3.43.43,0,0,1-.08.3,1.06,1.06,0,0,1-.35.29,1.39,1.39,0,0,1-.51.2,1.53,1.53,0,0,1-.52.05,2.09,2.09,0,0,1-.51-.08,3.19,3.19,0,0,1-.48-.19l-.28-.15-.27-.17a1.59,1.59,0,0,1-.33-.27.59.59,0,0,1-.14-.3.38.38,0,0,1,.08-.3,1.15,1.15,0,0,1,.34-.3,2.16,2.16,0,0,1,.51-.2,2.37,2.37,0,0,1,.53,0,2.26,2.26,0,0,1,.51.08A2.72,2.72,0,0,1,633.53,630.47Zm-.73,1a1.11,1.11,0,0,0,.35.12.42.42,0,0,0,.29-.05c.09-.06.12-.11.1-.17a.63.63,0,0,0-.22-.2,5.5,5.5,0,0,0-.48-.28,1.21,1.21,0,0,0-.35-.12.39.39,0,0,0-.28.05c-.09.06-.13.11-.1.17a.63.63,0,0,0,.22.2A4.17,4.17,0,0,0,632.8,631.49Zm1.45-2.42a.22.22,0,0,1,0-.11s0-.07.1-.1l.51-.3a.28.28,0,0,1,.15,0,.24.24,0,0,1,.15,0l0,0a.05.05,0,0,1,0,0l1.62,4.52a.21.21,0,0,1,0,.11s0,.06-.1.1l-.52.29a.24.24,0,0,1-.15,0,.32.32,0,0,1-.14,0l0,0,0,0Zm4.74,1.18a5.36,5.36,0,0,1,.55.32,1.64,1.64,0,0,1,.34.28.52.52,0,0,1,.14.29.43.43,0,0,1-.08.3,1.21,1.21,0,0,1-.35.3,2,2,0,0,1-.51.2,1.83,1.83,0,0,1-.52,0,1.75,1.75,0,0,1-.51-.08,2.53,2.53,0,0,1-.48-.19l-.29-.15a2.85,2.85,0,0,1-.26-.17,1.59,1.59,0,0,1-.33-.27.59.59,0,0,1-.14-.3.38.38,0,0,1,.08-.3,1,1,0,0,1,.35-.29,1.64,1.64,0,0,1,.5-.2,1.91,1.91,0,0,1,.53,0,3,3,0,0,1,.51.08A2.72,2.72,0,0,1,639,630.25Zm-.73,1a1.4,1.4,0,0,0,.35.13.49.49,0,0,0,.29-.06c.09-.05.13-.11.1-.17a.74.74,0,0,0-.22-.2,3.72,3.72,0,0,0-.48-.27,1.27,1.27,0,0,0-.35-.13.36.36,0,0,0-.28.06c-.1,0-.13.1-.1.16a.58.58,0,0,0,.21.2A5.5,5.5,0,0,0,638.26,631.27Z"/><path class="cls-10" d="M617,629.87l-5.32-1.56a7.9,7.9,0,0,0-1.82,6.71l5.87-.54A5.68,5.68,0,0,1,617,629.87Z"/><path class="cls-10" d="M612.39,627.55l5.31,1.56a11.52,11.52,0,0,1,2.47-1.88,17.35,17.35,0,0,1,3.25-1.42l-2.71-3.07A25.13,25.13,0,0,0,616,624.8,16,16,0,0,0,612.39,627.55Z"/><path class="cls-10" d="M632.73,624.69l.93-3.39A35.77,35.77,0,0,0,622,622.35l2.71,3.07A25.61,25.61,0,0,1,632.73,624.69Z"/><path class="cls-10" d="M616,635.33l-5.89.54a12.15,12.15,0,0,0,5.36,6l4.2-2.43A8.72,8.72,0,0,1,616,635.33Z"/><path class="cls-10" d="M620.72,640.1l-4.22,2.43A29,29,0,0,0,627,645.61l.93-3.39A20.91,20.91,0,0,1,620.72,640.1Z"/><path class="cls-10" d="M629.39,642.35l-.93,3.39a35.68,35.68,0,0,0,11.62-1l-2.71-3.07A25.85,25.85,0,0,1,629.39,642.35Z"/><path class="cls-10" d="M642,639.81a17.35,17.35,0,0,1-3.25,1.42l2.7,3.07a24.27,24.27,0,0,0,4.75-2.07,16,16,0,0,0,3.57-2.74l-5.3-1.56A11.77,11.77,0,0,1,642,639.81Z"/><path class="cls-10" d="M645.09,637.17l5.31,1.56a7.9,7.9,0,0,0,1.83-6.71l-5.87.53A5.73,5.73,0,0,1,645.09,637.17Z"/><path class="cls-10" d="M641.4,626.94l4.21-2.43a29,29,0,0,0-10.48-3.08l-.93,3.39A21,21,0,0,1,641.4,626.94Z"/><path class="cls-10" d="M646.13,631.71l5.87-.54a11.8,11.8,0,0,0-5.34-6l-4.21,2.43A8.61,8.61,0,0,1,646.13,631.71Z"/><path class="cls-12" d="M612.39,627.55l5.31,1.56a11.52,11.52,0,0,1,2.47-1.88,17.35,17.35,0,0,1,3.25-1.42l-2.71-3.07A25.13,25.13,0,0,0,616,624.8,16,16,0,0,0,612.39,627.55Z"/><path class="cls-12" d="M632.73,624.69l.93-3.39A35.77,35.77,0,0,0,622,622.35l2.71,3.07A25.61,25.61,0,0,1,632.73,624.69Z"/><g class="cls-29"><path d="M641.4,626.94l4.21-2.43a29,29,0,0,0-10.48-3.08l-.93,3.39A21,21,0,0,1,641.4,626.94Z"/></g><path class="cls-19" d="M678.75,607.33l.23,0h.26a1.6,1.6,0,0,0,.29-.05.94.94,0,0,0,.3-.12A.92.92,0,0,0,680,607a.37.37,0,0,0,.09-.19.25.25,0,0,0,0-.2.61.61,0,0,0-.22-.19,1.15,1.15,0,0,0-.57-.14,1.35,1.35,0,0,0-.61.18.53.53,0,0,0-.14.11.83.83,0,0,0-.08.12l-.06.11-.07.07-1,.56a.27.27,0,0,1-.18,0,.35.35,0,0,1-.18,0l-2.41-1.61a.21.21,0,0,1-.08-.11s0-.07.06-.1l2.69-1.55a.3.3,0,0,1,.18,0,.59.59,0,0,1,.19.05l.76.45c.06,0,.09.07.09.11s0,.07-.06.1l-1.83,1.06.6.4a1,1,0,0,1,.14-.23,1.36,1.36,0,0,1,.28-.21,3,3,0,0,1,.79-.32,3.28,3.28,0,0,1,.88-.12,3.38,3.38,0,0,1,.89.1,3.24,3.24,0,0,1,.87.35,1.87,1.87,0,0,1,.62.53.84.84,0,0,1,.18.55,1,1,0,0,1-.24.53,2.52,2.52,0,0,1-.6.48,3.43,3.43,0,0,1-.89.37,4.25,4.25,0,0,1-.91.13,3.32,3.32,0,0,1-.85-.08,2.57,2.57,0,0,1-.71-.25.16.16,0,0,1-.08-.09s0-.06.06-.09l.79-.46a.41.41,0,0,1,.2-.06Z"/><path class="cls-19" d="M680,602.4a3.43,3.43,0,0,1,1-.38,4.2,4.2,0,0,1,1-.07,3.59,3.59,0,0,1,1,.17,4.52,4.52,0,0,1,.88.36c.21.11.43.23.66.37l.63.37a3.25,3.25,0,0,1,.62.51,1.07,1.07,0,0,1,.3.56.81.81,0,0,1-.14.57,1.86,1.86,0,0,1-.65.56,3.29,3.29,0,0,1-1,.37,3.68,3.68,0,0,1-1,.08,3.87,3.87,0,0,1-1-.17,4.06,4.06,0,0,1-.88-.36l-.66-.36-.63-.38a3.33,3.33,0,0,1-.63-.51,1,1,0,0,1-.29-.56.81.81,0,0,1,.13-.57A1.86,1.86,0,0,1,680,602.4Zm3.9,1.47c-.4-.24-.8-.48-1.22-.7a4.07,4.07,0,0,0-.38-.17,2.62,2.62,0,0,0-.38-.09,1.23,1.23,0,0,0-.38,0,1.26,1.26,0,0,0-.38.14.65.65,0,0,0-.24.22.25.25,0,0,0,0,.22.71.71,0,0,0,.16.22,2.5,2.5,0,0,0,.28.22c.38.24.79.47,1.22.7a3.17,3.17,0,0,0,.38.17,2.34,2.34,0,0,0,.38.09,1.23,1.23,0,0,0,.38,0,1.17,1.17,0,0,0,.38-.14.81.81,0,0,0,.25-.22.25.25,0,0,0,0-.22.44.44,0,0,0-.15-.22A2.71,2.71,0,0,0,683.89,603.87Z"/><path class="cls-19" d="M685.41,600.5a5.36,5.36,0,0,1,.55.32,1.35,1.35,0,0,1,.33.28.48.48,0,0,1,.15.29.44.44,0,0,1-.09.3.93.93,0,0,1-.34.3,2.16,2.16,0,0,1-.51.2,2.38,2.38,0,0,1-.53,0,2.1,2.1,0,0,1-.5-.09A2.53,2.53,0,0,1,684,602l-.29-.15a2.85,2.85,0,0,1-.26-.17,1.33,1.33,0,0,1-.33-.27.65.65,0,0,1-.15-.3.44.44,0,0,1,.09-.3.92.92,0,0,1,.34-.29,1.8,1.8,0,0,1,.51-.2,1.87,1.87,0,0,1,.52,0,2.09,2.09,0,0,1,.51.09A2.5,2.5,0,0,1,685.41,600.5Zm-.73,1a1.4,1.4,0,0,0,.35.13.51.51,0,0,0,.29-.06c.09-.05.12-.11.09-.17a.67.67,0,0,0-.21-.2,3.72,3.72,0,0,0-.48-.27,1.4,1.4,0,0,0-.35-.13.43.43,0,0,0-.29.06c-.09,0-.12.11-.09.16a.45.45,0,0,0,.21.2A3.77,3.77,0,0,0,684.68,601.52Zm1.45-2.42a.14.14,0,0,1,0-.11s0-.06.09-.1l.52-.3a.3.3,0,0,1,.3,0l0,0,0,0,1.61,4.52a.14.14,0,0,1,0,.11s0,.07-.1.1l-.51.3a.42.42,0,0,1-.15,0,.28.28,0,0,1-.15,0l0,0,0,0Zm4.74,1.19a4,4,0,0,1,.55.32,1.33,1.33,0,0,1,.33.27.62.62,0,0,1,.15.29.45.45,0,0,1-.09.31,1,1,0,0,1-.34.29,2.16,2.16,0,0,1-.51.2,1.91,1.91,0,0,1-.53,0,2.1,2.1,0,0,1-.5-.09,2,2,0,0,1-.48-.19l-.29-.14-.27-.17a1.49,1.49,0,0,1-.32-.28.67.67,0,0,1-.15-.29.43.43,0,0,1,.08-.3,1.07,1.07,0,0,1,.35-.3,2,2,0,0,1,.51-.2,2.29,2.29,0,0,1,.52,0,2.09,2.09,0,0,1,.51.09A2,2,0,0,1,690.87,600.29Zm-.73,1a1.27,1.27,0,0,0,.35.13.44.44,0,0,0,.29-.06c.09,0,.12-.11.09-.16a.58.58,0,0,0-.21-.2,3.77,3.77,0,0,0-.48-.28,1.4,1.4,0,0,0-.35-.13.49.49,0,0,0-.29.06c-.09.05-.12.11-.1.17a.74.74,0,0,0,.22.2A3.72,3.72,0,0,0,690.14,601.3Z"/><path class="cls-10" d="M669,599.87l-5.31-1.57a7.9,7.9,0,0,0-1.83,6.71l5.87-.53A5.7,5.7,0,0,1,669,599.87Z"/><path class="cls-10" d="M664.34,597.54l5.3,1.56a12.12,12.12,0,0,1,2.47-1.88,17.35,17.35,0,0,1,3.25-1.42l-2.7-3.06a24,24,0,0,0-4.75,2.06A15.76,15.76,0,0,0,664.34,597.54Z"/><path class="cls-10" d="M684.67,594.68l.93-3.39A35.68,35.68,0,0,0,674,592.34l2.71,3.07A25.85,25.85,0,0,1,684.67,594.68Z"/><path class="cls-10" d="M667.94,605.32l-5.89.54a12,12,0,0,0,5.35,6l4.21-2.43A8.62,8.62,0,0,1,667.94,605.32Z"/><path class="cls-10" d="M672.66,610.09l-4.21,2.43a29.19,29.19,0,0,0,10.48,3.09l.93-3.4A21,21,0,0,1,672.66,610.09Z"/><path class="cls-10" d="M681.33,612.34l-.93,3.4A36,36,0,0,0,692,614.68l-2.7-3.07A25.64,25.64,0,0,1,681.33,612.34Z"/><path class="cls-10" d="M693.89,609.8a17.35,17.35,0,0,1-3.25,1.42l2.71,3.07a24.15,24.15,0,0,0,4.74-2.06,15.85,15.85,0,0,0,3.58-2.75l-5.31-1.56A11.52,11.52,0,0,1,693.89,609.8Z"/><path class="cls-10" d="M697,607.16l5.32,1.56a7.9,7.9,0,0,0,1.82-6.71l-5.87.54A5.71,5.71,0,0,1,697,607.16Z"/><path class="cls-10" d="M693.34,596.94l4.22-2.44a29.09,29.09,0,0,0-10.49-3.08l-.93,3.39A21.21,21.21,0,0,1,693.34,596.94Z"/><path class="cls-10" d="M698.07,601.7l5.88-.54a11.93,11.93,0,0,0-5.34-6l-4.22,2.43A8.56,8.56,0,0,1,698.07,601.7Z"/><path class="cls-12" d="M664.34,597.54l5.3,1.56a12.12,12.12,0,0,1,2.47-1.88,17.35,17.35,0,0,1,3.25-1.42l-2.7-3.06a24,24,0,0,0-4.75,2.06A15.76,15.76,0,0,0,664.34,597.54Z"/><path class="cls-12" d="M684.67,594.68l.93-3.39A35.68,35.68,0,0,0,674,592.34l2.71,3.07A25.85,25.85,0,0,1,684.67,594.68Z"/><path class="cls-12" d="M697,607.16l5.32,1.56a7.9,7.9,0,0,0,1.82-6.71l-5.87.54A5.71,5.71,0,0,1,697,607.16Z"/><g class="cls-29"><path d="M693.34,596.94l4.22-2.44a29.09,29.09,0,0,0-10.49-3.08l-.93,3.39A21.21,21.21,0,0,1,693.34,596.94Z"/></g><path class="cls-12" d="M698.07,601.7l5.88-.54a11.93,11.93,0,0,0-5.34-6l-4.22,2.43A8.56,8.56,0,0,1,698.07,601.7Z"/><path class="cls-19" d="M731.69,578.29l-.07-.06-2.3-2.9-1.87,1.08a.34.34,0,0,1-.18,0,.59.59,0,0,1-.19-.05l-.77-.45a.14.14,0,0,1-.08-.11s0-.07.06-.1l3-1.74a.48.48,0,0,1,.18,0,.41.41,0,0,1,.19,0l.67.39a.85.85,0,0,1,.27.27l2.31,2.91a.47.47,0,0,1,.05.1s0,.07-.06.1l-.88.51a.41.41,0,0,1-.16,0A.47.47,0,0,1,731.69,578.29Z"/><path class="cls-19" d="M731.73,572.51a3.19,3.19,0,0,1,1-.37,3.68,3.68,0,0,1,1-.08,3.87,3.87,0,0,1,1,.17,5.78,5.78,0,0,1,.88.36l.67.37.63.38a3.15,3.15,0,0,1,.62.5,1.12,1.12,0,0,1,.29.56.81.81,0,0,1-.13.57,1.82,1.82,0,0,1-.66.56,3.26,3.26,0,0,1-1,.38,4.26,4.26,0,0,1-1,.08,4,4,0,0,1-1-.18,5.21,5.21,0,0,1-.88-.35l-.65-.37-.64-.38a3,3,0,0,1-.62-.51,1,1,0,0,1-.3-.55.85.85,0,0,1,.14-.58A1.87,1.87,0,0,1,731.73,572.51Zm3.9,1.48c-.4-.25-.81-.49-1.22-.71a3.2,3.2,0,0,0-.39-.16,1.25,1.25,0,0,0-.37-.09,1.21,1.21,0,0,0-.38,0,1.17,1.17,0,0,0-.38.14.7.7,0,0,0-.25.22.25.25,0,0,0,0,.22.44.44,0,0,0,.15.22,1.82,1.82,0,0,0,.29.22c.38.24.79.48,1.22.7a2.39,2.39,0,0,0,.37.17,1.39,1.39,0,0,0,.38.09,1.2,1.2,0,0,0,.38,0,1.09,1.09,0,0,0,.38-.14.55.55,0,0,0,.25-.22.28.28,0,0,0,0-.22.48.48,0,0,0-.15-.22A2.43,2.43,0,0,0,735.63,574Z"/><path class="cls-19" d="M737.15,570.62a4.69,4.69,0,0,1,.55.32,1.59,1.59,0,0,1,.33.27.56.56,0,0,1,.14.29.4.4,0,0,1-.08.31,1,1,0,0,1-.35.29,1.6,1.6,0,0,1-.51.2,1.8,1.8,0,0,1-.52.05,3,3,0,0,1-.51-.08,3.19,3.19,0,0,1-.48-.19l-.28-.15-.27-.17a1.49,1.49,0,0,1-.32-.28.54.54,0,0,1-.15-.29.43.43,0,0,1,.08-.3,1,1,0,0,1,.35-.3,1.76,1.76,0,0,1,1-.24,1.81,1.81,0,0,1,.51.08A3.19,3.19,0,0,1,737.15,570.62Zm-.73,1a1.27,1.27,0,0,0,.35.13.36.36,0,0,0,.28-.06c.09-.05.13-.1.1-.16a.55.55,0,0,0-.22-.2,2.75,2.75,0,0,0-.48-.28,1.27,1.27,0,0,0-.35-.13.48.48,0,0,0-.28.06c-.09,0-.13.11-.1.17a.74.74,0,0,0,.22.2A3.15,3.15,0,0,0,736.42,571.63Zm1.44-2.41a.26.26,0,0,1,0-.12s0-.06.1-.1l.52-.29a.24.24,0,0,1,.15,0,.32.32,0,0,1,.14,0l0,0,0,0,1.61,4.51a.22.22,0,0,1,0,.11s0,.07-.1.1l-.51.3a.28.28,0,0,1-.15,0,.24.24,0,0,1-.15,0l0,0a.05.05,0,0,1,0,0Zm4.74,1.18a5.58,5.58,0,0,1,.56.32,2.39,2.39,0,0,1,.33.27.59.59,0,0,1,.14.3.43.43,0,0,1-.08.3,1.06,1.06,0,0,1-.35.29,1.39,1.39,0,0,1-.51.2,1.84,1.84,0,0,1-.52,0,2.26,2.26,0,0,1-.51-.08,2.82,2.82,0,0,1-.48-.19l-.28-.15-.27-.17a1.56,1.56,0,0,1-.33-.28.52.52,0,0,1-.14-.29.38.38,0,0,1,.08-.3,1,1,0,0,1,.35-.29,1.62,1.62,0,0,1,.51-.21,2.24,2.24,0,0,1,1,0A2.72,2.72,0,0,1,742.6,570.4Zm-.73,1a1.37,1.37,0,0,0,.36.12.4.4,0,0,0,.28,0c.09-.06.13-.11.1-.17a.63.63,0,0,0-.22-.2,4.33,4.33,0,0,0-.48-.28,1,1,0,0,0-.35-.12.4.4,0,0,0-.28,0c-.09.06-.13.11-.1.17a.63.63,0,0,0,.22.2A5.3,5.3,0,0,0,741.87,571.42Z"/><path class="cls-10" d="M720.91,569.86l-5.31-1.56a7.94,7.94,0,0,0-1.83,6.71l5.88-.54A5.67,5.67,0,0,1,720.91,569.86Z"/><path class="cls-10" d="M716.28,567.53l5.31,1.57a11.13,11.13,0,0,1,2.46-1.88,17.85,17.85,0,0,1,3.26-1.43l-2.71-3.06a24.51,24.51,0,0,0-4.75,2.06A16.28,16.28,0,0,0,716.28,567.53Z"/><path class="cls-10" d="M736.62,564.67l.93-3.39a36,36,0,0,0-11.63,1.06l2.71,3.07A25.59,25.59,0,0,1,736.62,564.67Z"/><path class="cls-10" d="M719.88,575.32l-5.89.54a12.1,12.1,0,0,0,5.36,6l4.2-2.43A8.76,8.76,0,0,1,719.88,575.32Z"/><path class="cls-10" d="M724.61,580.08l-4.22,2.44a29,29,0,0,0,10.49,3.08l.93-3.39A21.07,21.07,0,0,1,724.61,580.08Z"/><path class="cls-10" d="M733.27,582.34l-.93,3.39A35.47,35.47,0,0,0,744,584.67l-2.71-3.06A25.89,25.89,0,0,1,733.27,582.34Z"/><path class="cls-10" d="M745.84,579.79a17.19,17.19,0,0,1-3.26,1.43l2.71,3.06a24.24,24.24,0,0,0,4.75-2.06,16,16,0,0,0,3.57-2.74l-5.31-1.56A11.42,11.42,0,0,1,745.84,579.79Z"/><path class="cls-10" d="M749,577.15l5.31,1.57a7.93,7.93,0,0,0,1.83-6.72l-5.88.54A5.66,5.66,0,0,1,749,577.15Z"/><path class="cls-10" d="M745.29,566.93l4.21-2.43A29.18,29.18,0,0,0,739,561.41l-.93,3.4A21,21,0,0,1,745.29,566.93Z"/><path class="cls-10" d="M750,571.69l5.88-.53a11.87,11.87,0,0,0-5.34-6.06l-4.21,2.44A8.61,8.61,0,0,1,750,571.69Z"/><g class="cls-29"><path d="M716.28,567.53l5.31,1.57a11.13,11.13,0,0,1,2.46-1.88,17.85,17.85,0,0,1,3.26-1.43l-2.71-3.06a24.51,24.51,0,0,0-4.75,2.06A16.28,16.28,0,0,0,716.28,567.53Z"/><path d="M736.62,564.67l.93-3.39a36,36,0,0,0-11.63,1.06l2.71,3.07A25.59,25.59,0,0,1,736.62,564.67Z"/><path d="M733.27,582.34l-.93,3.39A35.47,35.47,0,0,0,744,584.67l-2.71-3.06A25.89,25.89,0,0,1,733.27,582.34Z"/><path d="M745.84,579.79a17.19,17.19,0,0,1-3.26,1.43l2.71,3.06a24.24,24.24,0,0,0,4.75-2.06,16,16,0,0,0,3.57-2.74l-5.31-1.56A11.42,11.42,0,0,1,745.84,579.79Z"/><path d="M749,577.15l5.31,1.57a7.93,7.93,0,0,0,1.83-6.72l-5.88.54A5.66,5.66,0,0,1,749,577.15Z"/><path d="M745.29,566.93l4.21-2.43A29.18,29.18,0,0,0,739,561.41l-.93,3.4A21,21,0,0,1,745.29,566.93Z"/><path d="M750,571.69l5.88-.53a11.87,11.87,0,0,0-5.34-6.06l-4.21,2.44A8.61,8.61,0,0,1,750,571.69Z"/></g><g class="cls-29"><path d="M512.67,305.24a.7.7,0,0,1-.62-.35.72.72,0,0,1,.26-1l46.45-26.82a.72.72,0,1,1,.72,1.24L513,305.15A.73.73,0,0,1,512.67,305.24Z"/><path d="M512.67,312a.71.71,0,0,1-.62-.36.72.72,0,0,1,.26-1l46.45-26.82a.72.72,0,0,1,1,.27.71.71,0,0,1-.26,1L513,311.85A.64.64,0,0,1,512.67,312Z"/><path d="M512.67,318.65a.7.7,0,0,1-.62-.35.72.72,0,0,1,.26-1l46.45-26.82a.72.72,0,0,1,.72,1.24L513,318.56A.73.73,0,0,1,512.67,318.65Z"/><path d="M512.67,325.36a.71.71,0,0,1-.62-.36.72.72,0,0,1,.26-1l46.45-26.82a.72.72,0,0,1,1,.27.71.71,0,0,1-.26,1L513,325.26A.64.64,0,0,1,512.67,325.36Z"/><path d="M512.67,332.06a.7.7,0,0,1-.62-.35.72.72,0,0,1,.26-1l46.45-26.82a.72.72,0,1,1,.72,1.24L513,332A.73.73,0,0,1,512.67,332.06Z"/><path d="M512.67,338.77a.71.71,0,0,1-.36-1.33l46.45-26.83a.72.72,0,0,1,1,.27.7.7,0,0,1-.26,1L513,338.67A.64.64,0,0,1,512.67,338.77Z"/><path d="M512.67,345.47a.7.7,0,0,1-.62-.35.72.72,0,0,1,.26-1l46.45-26.82a.72.72,0,0,1,.72,1.24L513,345.38A.73.73,0,0,1,512.67,345.47Z"/><path d="M512.67,224.78a.71.71,0,0,1-.62-.36.72.72,0,0,1,.26-1l46.45-26.82a.73.73,0,0,1,1,.26.72.72,0,0,1-.26,1L513,224.68A.64.64,0,0,1,512.67,224.78Z"/><path d="M512.67,231.48a.71.71,0,0,1-.36-1.33l46.45-26.82a.72.72,0,1,1,.72,1.24L513,231.39A.73.73,0,0,1,512.67,231.48Z"/><path d="M512.67,238.19a.71.71,0,0,1-.62-.36.72.72,0,0,1,.26-1L558.76,210a.72.72,0,1,1,.72,1.24L513,238.09A.64.64,0,0,1,512.67,238.19Z"/><path d="M512.67,244.89a.7.7,0,0,1-.62-.35.72.72,0,0,1,.26-1l46.45-26.82a.72.72,0,1,1,.72,1.24L513,244.8A.73.73,0,0,1,512.67,244.89Z"/><path d="M512.67,251.6a.71.71,0,0,1-.36-1.33l46.45-26.83a.72.72,0,0,1,1,.27.7.7,0,0,1-.26,1L513,251.5A.64.64,0,0,1,512.67,251.6Z"/><path d="M512.67,258.3a.7.7,0,0,1-.62-.35.72.72,0,0,1,.26-1l46.45-26.82a.72.72,0,1,1,.72,1.24L513,258.21A.73.73,0,0,1,512.67,258.3Z"/><path d="M512.67,265a.71.71,0,0,1-.36-1.33l46.45-26.82a.71.71,0,1,1,.72,1.23L513,264.91A.64.64,0,0,1,512.67,265Z"/><path d="M512.67,271.72a.71.71,0,0,1-.62-.36.72.72,0,0,1,.26-1l46.45-26.82a.72.72,0,1,1,.72,1.24L513,271.62A.64.64,0,0,1,512.67,271.72Z"/><path d="M512.67,278.42a.71.71,0,0,1-.36-1.33l46.45-26.82a.72.72,0,1,1,.72,1.24L513,278.33A.73.73,0,0,1,512.67,278.42Z"/><path d="M512.67,285.13a.71.71,0,0,1-.62-.36.72.72,0,0,1,.26-1L558.76,257a.73.73,0,0,1,1,.26.72.72,0,0,1-.26,1L513,285A.64.64,0,0,1,512.67,285.13Z"/><path d="M512.67,291.83a.7.7,0,0,1-.62-.35.72.72,0,0,1,.26-1l23.23-13.42a.71.71,0,0,1,.71,1.24L513,291.74A.73.73,0,0,1,512.67,291.83Z"/><path d="M406.48,445.89a.71.71,0,0,1-.62-.36.72.72,0,0,1,.26-1l152.07-87.8a.72.72,0,0,1,1,.27.71.71,0,0,1-.26,1l-152.07,87.8A.81.81,0,0,1,406.48,445.89Z"/><path d="M408.64,454.33A.71.71,0,0,1,408,454a.72.72,0,0,1,.26-1L560.35,365.2a.7.7,0,0,1,1,.26.7.7,0,0,1-.26,1L409,454.23A.64.64,0,0,1,408.64,454.33Z"/><path d="M411.16,462.6a.71.71,0,0,1-.36-1.33l152.07-87.8a.71.71,0,0,1,.71,1.24l-152.07,87.8A.73.73,0,0,1,411.16,462.6Z"/><path d="M413.83,470.85a.71.71,0,0,1-.36-1.33l152.07-87.8a.72.72,0,0,1,1,.26.73.73,0,0,1-.26,1L414.18,470.75A.64.64,0,0,1,413.83,470.85Z"/><path d="M416.92,478.89a.7.7,0,0,1-.61-.35.71.71,0,0,1,.26-1l152.07-87.8a.71.71,0,0,1,.71,1.24L417.28,478.8A.74.74,0,0,1,416.92,478.89Z"/><path d="M466.89,558.74a.71.71,0,0,1-.54-.24c-5.21-5.93-16.48-19.16-21.79-26.8-11.34-17-19.55-31.76-25.11-45.28a.72.72,0,0,1,.38-.94.73.73,0,0,1,.94.39c5.52,13.44,13.69,28.17,25,45,5.27,7.58,16.49,20.76,21.68,26.66a.72.72,0,0,1-.06,1A.73.73,0,0,1,466.89,558.74Z"/><path d="M564.88,427.8a.7.7,0,0,1-.62-.35.72.72,0,0,1,.26-1L581,416.94a.72.72,0,0,1,1,.26.7.7,0,0,1-.26,1l-16.52,9.54A.73.73,0,0,1,564.88,427.8Z"/><path d="M559.18,441.2a.72.72,0,0,1-.36-1.34l26.87-15.52a.71.71,0,0,1,1,.26.72.72,0,0,1-.26,1L559.54,441.1A.68.68,0,0,1,559.18,441.2Z"/><path d="M584,456.83a.71.71,0,0,1-.62-.36.72.72,0,0,1,.26-1L600,446a.72.72,0,0,1,.72,1.24l-16.44,9.47A.7.7,0,0,1,584,456.83Z"/><path d="M579,469.74a.7.7,0,0,1-.61-.35.71.71,0,0,1,.25-1l26.5-15.74a.72.72,0,1,1,.73,1.23l-26.5,15.74A.71.71,0,0,1,579,469.74Z"/><path d="M473,564.92a.71.71,0,0,1-.61-.36.7.7,0,0,1,.26-1l153-88.31a.71.71,0,1,1,.72,1.23l-153,88.31A.65.65,0,0,1,473,564.92Z"/><path d="M479.38,570.84a.71.71,0,0,1-.36-1.33L632,481.2a.7.7,0,0,1,1,.26.7.7,0,0,1-.26,1l-153,88.32A.73.73,0,0,1,479.38,570.84Z"/><path d="M485.58,576.23a.7.7,0,0,1-.62-.35.72.72,0,0,1,.26-1l153-88.31a.71.71,0,1,1,.71,1.24L485.94,576.14A.8.8,0,0,1,485.58,576.23Z"/><path d="M492.84,582.15a.72.72,0,0,1-.36-1.34l153-88.31a.72.72,0,0,1,.72,1.24l-153,88.31A.68.68,0,0,1,492.84,582.15Z"/><path d="M640.13,654.08a.71.71,0,0,1-.36-1.33l29-16.77a.71.71,0,0,1,1,.26.72.72,0,0,1-.26,1l-29,16.76A.7.7,0,0,1,640.13,654.08Z"/><path d="M645.94,657.43a.71.71,0,0,1-.36-1.33l29-16.77a.72.72,0,0,1,.72,1.24l-29,16.76A.64.64,0,0,1,645.94,657.43Z"/><path d="M651.74,660.78a.71.71,0,0,1-.35-1.33l29-16.77a.72.72,0,0,1,1,.27.71.71,0,0,1-.26,1l-29,16.77A.74.74,0,0,1,651.74,660.78Z"/><path d="M692.39,623.91a.71.71,0,0,1-.62-.36.72.72,0,0,1,.26-1l29-16.76a.7.7,0,0,1,1,.26.72.72,0,0,1-.26,1l-29,16.76A.7.7,0,0,1,692.39,623.91Z"/><path d="M698.2,627.26a.71.71,0,0,1-.62-.36.72.72,0,0,1,.26-1l29-16.76a.72.72,0,0,1,.72,1.24l-29,16.76A.64.64,0,0,1,698.2,627.26Z"/><path d="M704,630.61a.71.71,0,0,1-.36-1.33l29-16.77a.72.72,0,0,1,.72,1.24l-29,16.76A.64.64,0,0,1,704,630.61Z"/><path d="M744.65,593.73a.7.7,0,0,1-.62-.35.72.72,0,0,1,.26-1l29-16.76a.71.71,0,0,1,.71,1.23l-29,16.77A.8.8,0,0,1,744.65,593.73Z"/><path d="M750.46,597.08a.7.7,0,0,1-.62-.35.72.72,0,0,1,.26-1l29-16.76a.71.71,0,0,1,.71,1.23l-29,16.77A.73.73,0,0,1,750.46,597.08Z"/><path d="M756.27,600.44a.71.71,0,0,1-.62-.36.72.72,0,0,1,.26-1l29-16.76a.72.72,0,1,1,.72,1.24l-29,16.76A.64.64,0,0,1,756.27,600.44Z"/></g></g><g id="Character"><path class="cls-30" d="M728.91,345c-2.58,4.58-19.09,19.1-20.59,20.76s-3.25,3.18-4.74,4.56c-1.78,1.66-3.18,3.54-5.53,4.48a2.49,2.49,0,0,1-2.08.1c-.32-.17-.57-.46-.89-.64-.5-.28-1.13-.26-1.58-.61-.62-.48-.67-1.48-1.32-1.92a4.47,4.47,0,0,0-1-.38c-.58-.25-1-1.22-1.2-1.77-.13-.3-.25-1-.69-.92a29.83,29.83,0,0,0-3.53,1.1c-2.67.87-4.39,1.06-4.79-.24-.56-1.82,1.54-2.27,4.78-3.65s10-4.2,9.71-4.94-2.54-2.05-3.45-3.7-.6-3.77.61-2.83c.7.54,3.35,1.88,4.53,2.56s3.28,1.94,4.72,1.38,16-18.59,16-18.59,11.61-24.85,14.51-29.95,5.19-8,10-8.16l.6,9.18-1.24,10.36S731,341.26,728.91,345Z"/><path class="cls-31" d="M743.93,301.46s-4.71-1.19-7.72,2.1-4.24,5.81-6.83,11.09-9.5,20.33-9.5,20.33a13.3,13.3,0,0,0,12,5.46l12.72-24.07Z"/><path class="cls-20" d="M734.72,324.57a44,44,0,0,1,.88,11.16c-.34,4.92-3.83,13.94-3.83,13.94s2.75,2.5,10.25,1.33c6.1-1,4-19.36.44-22.93A11.52,11.52,0,0,0,734.72,324.57Z"/><path class="cls-31" d="M777,481.59a45.07,45.07,0,0,1,.7,7.36c.08,4.46.9,6.05,1,9.71.13,4.19-.6,5.76-2.3,8.11s-6.16,4.49-8,.51-1.64-6.58-1-10.69.7-6.59,1.06-9.83c.32-2.86.7-5,.7-5Z"/><path class="cls-30" d="M764.28,446.48l14.71-.27c-.22,9.82-1.78,26.17-2,35.38-.05,1.73,0,13.48-.61,17.05-1,5.36-7.35,4.63-7.69,1.42s.41-16.91.39-18.33c.06-5.91-2.71-21.33-4.16-31.93C764.81,449.27,764.35,447,764.28,446.48Z"/><path class="cls-31" d="M742.66,474s.76,0,.88.66.18,1.9.48,3.11a17.7,17.7,0,0,1,.53,5.83c-.26,1.37-3.39,3.41-5.53,3.77s-5.16,2.48-6.84,4.05a16.31,16.31,0,0,1-9.51,3.74c-3.57,0-6.06-1.19-7.24-3.1s1.07-2.14,5.16-4.79l3.17-2.06c6.47-4.23,8.84-6.49,10.67-10.72Z"/><path class="cls-30" d="M734.38,471.65c.1-3-1.45-25.44-1.45-25.44l12.65,1.42c-3,17.86-3.23,23.94-2.89,26.54h0a2.87,2.87,0,0,1,.08.75c0,3.47-3.93,5.34-7,7.65-1.21.92-4.31,3.73-7.95,5-2.35.8-6.69,1.1-7.25-.33,3.72-2.83,8.77-6.54,11.73-9.78C733.73,475.88,734.27,474.69,734.38,471.65Z"/><path class="cls-19" d="M768.46,340.48a53.48,53.48,0,0,1,9.26,19.07c4.17,16.86-2.39,52.95-2.39,52.95.21,2.44,3,7.26,4,18,1.23,12.72-2.28,46.78-2.28,46.78s-3.36,2.51-8.23.18c0,0-8.91-50.05-10.5-62.7-1.4-11-4.23-34-4.23-34l-6.38,33.91s.89,6.18,1.35,10.9c.72,7.44-6.52,44.78-6.52,44.78s-3.4,1.79-8.21-.16c0,0-3.21-48.24-3.89-57.21-.69-9.22,1.71-30.72,3.48-47.84.53-5.16,3.15-21.08,4.06-25.5Z"/><path class="cls-32" d="M754.14,380.82l-1.52-10.45a25.93,25.93,0,0,1-12.29-4,15.68,15.68,0,0,0,10.29,5.76l1,9.35-3,29.13Z"/><path class="cls-10" d="M737.26,329.33c.16,3.07.77,10.37.77,10.37,12.53,8.48,30.43.78,30.43.78l2.61-17.81s-6.54-9.15-.41-18.8l-9.79-1.93-11.67-1-6.8.61c-3.83,2.81-6.37,8.52-7.6,11.67S731.7,322.78,737.26,329.33Z"/><g class="cls-33"><path class="cls-6" d="M737.26,329.33c.16,3.07.77,10.37.77,10.37,12.53,8.48,30.43.78,30.43.78l2.61-17.81s-6.54-9.15-.41-18.8l-9.79-1.93-11.67-1-6.8.61c-3.83,2.81-6.37,8.52-7.6,11.67S731.7,322.78,737.26,329.33Z"/></g><path class="cls-20" d="M761.85,301.62s10.75.93,12.85,1.94,5.61,7.06,2.48,15.87-6,19.15-5.66,21.23,7.8,12.84,7.8,12.84c-2.17,1.4-4.48,2.86-6.89,3.31l-3.84-8.38.9,8.9s-6.9,1.67-11.83,1.25C757.66,358.58,754,324.43,761.85,301.62Z"/><polygon class="cls-10" points="711.1 337.94 742.82 340.08 758.95 375.83 728.64 373.02 711.1 337.94"/><polygon class="cls-18" points="711.1 337.94 742.82 340.08 758.95 375.83 728.64 373.02 711.1 337.94"/><path class="cls-34" d="M740.45,362.68a7.18,7.18,0,0,0,5.67,4.52,15.78,15.78,0,0,0,8.24-1.53l-1.35-3Z"/><path class="cls-34" d="M721,341.66l-.47-1.1c-.26-.61,1.51-1,3.94-.82l4.68.3c2.43.15,4.62.77,4.88,1.38l.47,1.1Z"/><path class="cls-35" d="M718.05,337.72c-.16-.38.53-.62,1.56-.54l1.85.15s-1-2.39,3.08-2.27,5.47,2.78,5.47,2.78l2,.17a3.58,3.58,0,0,1,2.34.85l.36.67-16.34-1.1S718.21,338.1,718.05,337.72Z"/><path class="cls-36" d="M720.43,338.56c1.49.06,2.12.14,2.52,1.08s.72,1.87.72,1.87l7.23.5s-.6-1.36-.81-1.89-.05-.91,1.1-.83v-.46l-11.31-.66Z"/><path class="cls-37" d="M720.81,341.81l-.47-1.1c-.26-.61,1.51-1,3.95-.83l4.67.3c2.44.15,4.63.77,4.89,1.38l.47,1.11Z"/><path class="cls-31" d="M760.79,300H734.45V276.47a19.22,19.22,0,0,1,19.23-19.22h0a19.21,19.21,0,0,1,19.22,19.22v11.37A12.11,12.11,0,0,1,760.79,300Z"/><path class="cls-30" d="M739.69,268.51c-1.13.47-3.44,2.43-3.48,13.88,0,9.71,3,12.19,4.6,12.92s4.61.4,7.58,0l-.07,4.78A21.2,21.2,0,0,0,746,314.65c6.08-4.71,15.22-12.69,15.22-12.69l.28-13.45s1.7,1.73,4.72-.77c2.5-2.06,3.42-5.63,1.57-7.62a4.24,4.24,0,0,0-6.79,1.17c-6.35,0-9.08-7.09-9.49-11.5C749.24,271.43,743.11,272.78,739.69,268.51Z"/><path class="cls-31" d="M743.16,277c6.4-.94,8.32-7.18,8.32-7.18s3.76-10-6.24-10.6c-15.39-1-13.86,17.78-13.86,17.78Z"/><path class="cls-31" d="M747.22,280a1.2,1.2,0,1,0,1.29-1.15A1.22,1.22,0,0,0,747.22,280Z"/><path class="cls-38" d="M747.11,288.57l-3.29.95a1.67,1.67,0,0,0,2.09,1.23A1.79,1.79,0,0,0,747.11,288.57Z"/><path class="cls-31" d="M737.44,277l2.47-1.61a1.41,1.41,0,0,0-2-.47A1.54,1.54,0,0,0,737.44,277Z"/><path class="cls-31" d="M748.41,275.7l2.59,1.43a1.42,1.42,0,0,0-.53-2A1.54,1.54,0,0,0,748.41,275.7Z"/><path class="cls-31" d="M738,279.72a1.2,1.2,0,1,0,1.29-1.15A1.22,1.22,0,0,0,738,279.72Z"/><polygon class="cls-38" points="743.93 279.06 743.79 286.88 740.02 285.6 743.93 279.06"/><path class="cls-38" d="M748.44,295.62c3.08-.32,9.44-2,10.49-4.43a6.48,6.48,0,0,1-2.3,3.13c-1.93,1.56-8.21,3.22-8.21,3.22Z"/><path class="cls-30" d="M744,357.75a19.82,19.82,0,0,0,6.14-1.78,15,15,0,0,1-3.44-.94,2.14,2.14,0,0,1-1.32-2.6c.17-.43,1.21.09,3.1,0,2.41-.11,4-.53,6.59,0,.95.2,2.26.86,3.11.37,4.75-2.75,17.29-11.62,18.3-12.7h0L771,323.42s-4.59-9.16,1.5-19.86c3.8.65,6.72,1.37,9.55,11.42,3,10.59,7.12,24.35,6.93,28.68s-11.63,8.87-20.2,13.13c-3.61,1.8-9.59,5.24-11.92,6.45-8.11,4.22-12.05,3.81-14.86,1.08C737.46,360,739.17,358.36,744,357.75Z"/><path class="cls-31" d="M772,302.86c7.68.49,8.53,6.39,10.76,12.26,2.09,5.47,4.77,19.86,4.77,19.86s-5.62,5.65-11.63,4.17l-5.34-16.71S764.18,309.53,772,302.86Z"/></g><g id="Character-2" data-name="Character"><g id="Glass"><g id="Magnifying_glass" data-name="Magnifying glass"><path class="cls-19" d="M475.33,467.43h0c.77-1.8,2.72-3.09,5.68-3.45,5.91-.72,13.61,2.56,17.19,7.32,1.79,2.39,2.21,4.69,1.45,6.48h0L450.58,606.32h0c-.95,2.7-3.72,4.67-8.06,5.2-8.27,1-19-3.58-24-10.24-2.63-3.49-3.13-6.85-1.84-9.42h0Z"/><path class="cls-20" d="M498.2,471.3c3.58,4.77,1.69,9.21-4.23,9.93s-13.61-2.56-17.19-7.32S475.09,464.7,481,464,494.62,466.54,498.2,471.3Z"/><path class="cls-10" d="M499.48,430.05a12.47,12.47,0,0,1,10.39,4.43,4,4,0,0,1,.88,3.92h0l-15.91,37.34h0c-.46,1.08-1.64,1.86-3.43,2.08a12.49,12.49,0,0,1-10.4-4.43c-1.08-1.44-1.34-2.83-.87-3.92L496,432.13h0A4,4,0,0,1,499.48,430.05Z"/><path class="cls-13" d="M499.48,430.05a12.47,12.47,0,0,1,10.39,4.43,4,4,0,0,1,.88,3.92h0l-15.91,37.34h0c-.46,1.08-1.64,1.86-3.43,2.08a12.49,12.49,0,0,1-10.4-4.43c-1.08-1.44-1.34-2.83-.87-3.92L496,432.13h0A4,4,0,0,1,499.48,430.05Z"/><path class="cls-13" d="M488.71,449.35l1.11.64s0,0,0,0l.16.1v0l.22.11.23.13c.71.41,1.42.79,2.17,1.14s1.82.85,2.75,1.21a24.26,24.26,0,0,0,2.51.92,9.73,9.73,0,0,0,1.34.4,10.22,10.22,0,0,0,1.46.43c.5.15,1,.27,1.48.37a8.46,8.46,0,0,0,1.09.23l.37.07,7.12-16.71h0a4,4,0,0,0-.88-3.92,9,9,0,0,0-1.5-1.52,54.15,54.15,0,0,1-13.68,2.34Z"/><path class="cls-34" d="M488.18,480.82,436.41,611.33a22.46,22.46,0,0,0,6.1.19c4.33-.53,7.11-2.49,8.06-5.21h0l49.06-128.53c-.77,1.81-2.72,3.08-5.68,3.45A17.48,17.48,0,0,1,488.18,480.82Z"/><path class="cls-20" d="M649.94,275.51c0-1.08-.07-2.14-.16-3.19s-.13-2.09-.24-3.12q-.07-1-.21-2.07c-.18-1.79-.44-3.57-.74-5.25-.13-.78-.27-1.56-.42-2.33s-.3-1.46-.45-2.17c-.45-1.95-.93-3.86-1.48-5.69-.29-.87-.56-1.74-.85-2.59a1.56,1.56,0,0,1-.13-.4c-.31-.85-.61-1.66-.93-2.45s-.73-1.86-1.16-2.73c-.29-.66-.58-1.29-.93-1.92a9.3,9.3,0,0,0-.68-1.38c-.27-.55-.55-1.12-.87-1.65a2.46,2.46,0,0,0-.22-.36c-.26-.48-.56-1-.84-1.43-.19-.32-.4-.6-.58-.9a46,46,0,0,0-4.56-6c-.28-.32-.58-.65-.83-1s-.48-.51-.73-.75-.6-.61-.92-.93a31.19,31.19,0,0,0-2.74-2.46c-.46-.38-.93-.76-1.41-1.1s-1-.71-1.45-1.06a27.83,27.83,0,0,0-2.36-1.53l-.63-.4-.13-.1h0l-14.78-8.7h-.05l-.21-.12a46.9,46.9,0,0,0-23.53-5.95c-12.27,0-26.13,4-40.81,12.47-50.39,29.12-91.27,99.91-91.27,158.13,0,29,10.16,49.46,26.57,59l.16.08v0l14.8,8.66s0,0,0,0l.17.1v0l.22.12.23.13c.71.41,1.41.78,2.16,1.13s1.83.85,2.76,1.21a24.32,24.32,0,0,0,2.51.93,9.73,9.73,0,0,0,1.34.4,8.93,8.93,0,0,0,1.45.42c.5.16,1,.27,1.48.38a8.61,8.61,0,0,0,1.1.23c.63.13,1.31.27,2,.35a1.33,1.33,0,0,0,.45.07c.79.13,1.58.25,2.37.33,13.6,1.42,29.41-2.41,46.33-12.17C609.14,408.69,650,337.87,650,279.67,650,278.27,650,276.89,649.94,275.51ZM483.59,412.88A88.76,88.76,0,0,1,480.51,389c0-55.17,40.36-125.1,88.14-152.68A85.28,85.28,0,0,1,591,227.06a49.32,49.32,0,0,1,11.51-1.46,37.17,37.17,0,0,1,5.83.45l.16.07c9.78,11.56,11.22,30.1,11.22,40,0,55.17-40.33,125.1-88.12,152.67-12.16,7-23.85,10.72-33.88,10.72a23.11,23.11,0,0,1-6.16-.79h0A43.63,43.63,0,0,1,483.59,412.88Z"/><path class="cls-26" d="M636.89,275.75c0,29.31-11.39,62.77-29.23,91.86-.84,1.38-1.69,2.73-2.57,4.09-.74,1.17-1.51,2.34-2.3,3.5-1.67,2.49-3.37,4.94-5.15,7.35-.83,1.14-1.68,2.28-2.55,3.39s-1.89,2.46-2.85,3.67q-2.76,3.48-5.66,6.77c-1.27,1.47-2.57,2.91-3.88,4.3-10.51,11.3-22,20.85-33.94,27.73-2.28,1.32-4.53,2.52-6.78,3.61-8.2,4-16.08,6.31-23.23,6.93-1.31.13-2.6.19-3.84.19-.67,0-1.3,0-1.93-.06h-.08a29.76,29.76,0,0,1-3.62-.37c-.59-.09-1.17-.18-1.73-.31s-1.12-.24-1.66-.41a26.72,26.72,0,0,1-14.32-9.27,23.05,23.05,0,0,0,6.16.79c10,0,21.71-3.7,33.87-10.72,47.8-27.57,88.12-97.5,88.12-152.67,0-9.91-1.43-28.44-11.21-40l-.16-.05c12.46,2,19.55,10.46,23.54,20.26a58.41,58.41,0,0,1,2.72,8.54c0,.16.07.32.11.49.13.52.25,1.06.35,1.58s.2,1,.3,1.55c0,.11,0,.25.08.39.1.56.2,1.11.29,1.64.31,2.05.56,4.05.74,6,0,.55.09,1.08.12,1.6s.07.81.09,1.2c0,.16,0,.33,0,.49,0,.43.06.85.08,1.26,0,.12,0,.23,0,.36,0,.52,0,1.05.05,1.55C636.88,273.92,636.89,274.86,636.89,275.75Z"/><path class="cls-31" d="M492.87,443.45l-13.7-8.06c-16.43-9.6-26.58-30-26.58-59,0-26,8.15-54.42,21.6-80.55l15.62,9c-13.49,26.13-22.42,54.28-22.42,80.24C467.39,413.47,477.06,433.61,492.87,443.45Z"/><path class="cls-19" d="M623.42,220.65l-.12-.1h0l-14.78-8.69h-.05l-.2-.13a47.07,47.07,0,0,0-23.54-5.95c-12.27,0-26.13,4-40.81,12.47-27.93,16.14-52.94,45.08-69.67,77.6L489.73,305l-.34.64c16.79-32.15,41.68-61.27,69.31-78.68,25-15.77,48.77-16,65.35-5.9Z"/></g><path class="cls-39" d="M629,271.07c0,55.17-40.36,125.1-88.14,152.69A85.28,85.28,0,0,1,518.45,433a49.28,49.28,0,0,1-11.51,1.45,33,33,0,0,1-11.69-2c-5.93-5-9.52-12.19-11.66-19.59A88.76,88.76,0,0,1,480.51,389c0-55.17,40.36-125.1,88.14-152.68A85.28,85.28,0,0,1,591,227.06a49.32,49.32,0,0,1,11.51-1.46,32.73,32.73,0,0,1,11.69,2c5.93,5,9.51,12.18,11.66,19.58A89.21,89.21,0,0,1,629,271.07Z"/></g><g id="Boy"><path class="cls-30" d="M441.41,521.5c2.7.6,7.86,1.14,7.86,1.14l3.71-7.85-8.3-3.83Z"/><path class="cls-10" d="M421.14,515.64a54.79,54.79,0,0,0,21,6l4.48-6.72-22.42-15.11Z"/><path class="cls-12" d="M421.14,515.64a54.79,54.79,0,0,0,21,6l4.48-6.72-22.42-15.11Z"/><path class="cls-10" d="M440.77,521.49l3.78.55,2.89-8.57s-3.71-1.78-3.79-1.71S440.77,521.49,440.77,521.49Z"/><path class="cls-14" d="M440.77,521.49l3.78.55,2.89-8.57s-3.71-1.78-3.79-1.71S440.77,521.49,440.77,521.49Z"/><path class="cls-10" d="M390.75,468a9,9,0,0,0-9.18,4.75c-1.25,2.17-1.83,6.67-1.49,9.68.87,7.57,6.54,24.07,6.54,24.07Z"/><path class="cls-14" d="M390.75,468a9,9,0,0,0-9.18,4.75c-1.25,2.17-1.83,6.67-1.49,9.68.87,7.57,6.54,24.07,6.54,24.07Z"/><path class="cls-31" d="M382.65,645.6c-.65.24-1,1.47-1.31,4.46-.18,1.86-.81,4.31,2,5.82a7.19,7.19,0,0,0,6.69-.07c2.45-1.52,3.69-4.33,6.56-6.59,2.53-2,5.67-3.43,7.74-7s1.7-6-2.48-6c-6.72,0-8.73,3.7-12.19,3.78C387.75,640,383.31,645.35,382.65,645.6Z"/><path class="cls-30" d="M382.66,644.12v3c0,1.48,6.28,3.68,8,.31.13-.29.81-4.43.81-4.43Z"/><path class="cls-31" d="M411.78,663.19s-1.2,0-1.67,4.87c-.18,1.86-.62,5.66,0,7s4.07,2,7.92,2.33c2.88.26,5.48,1.65,8.14,3.16a17.62,17.62,0,0,0,8.25,2.27c3.64,0,6.72-.36,9.32-2.42,1.38-1.09,3.13-3.39,1.85-5.13a3.77,3.77,0,0,0-1.94-1c-1.63-.61-3.26-1.16-4.91-1.68a50.46,50.46,0,0,1-7.22-2.77c-3.4-1.67-7.19-3.55-9.75-6.42Z"/><path class="cls-30" d="M411.79,660.67s0,2.24,0,3.52,1.48,3.2,5.4,3.08c2.75-.09,4.68-.82,4.58-3.08l0-3.27Z"/><path class="cls-31" d="M380.9,604a81.61,81.61,0,0,1,3.65-15.72s-1-13.58-1.46-26.45a339.75,339.75,0,0,1,1.1-39.55s43.75-4.15,44.47,11.93-.33,57-.89,64-1.14,13.68-2.63,26.81c-1.29,11.31-3.36,35.86-3.36,35.86a10.6,10.6,0,0,1-10-.25s-3.29-33-3.67-41.11c-.49-10.56,2-16.38,2-16.38s-.93-6.65-2.56-20.3c-1.14-9.65-2.68-20.64-2.68-20.64s-1.49,13.6-2.4,21.18c-.84,7-2.27,12.59-4.38,25.69-1.83,11.37-6.82,35.43-6.82,35.43-5.14,2.75-8.59-.42-8.59-.42S379.47,613.88,380.9,604Z"/><path d="M404.85,562.24l-2.07-13.43s-8.51-2.71-12.84-7.78c0,0,2.31,5.9,10.25,9.08l3.17,11.31.55,9.33Z"/><polygon class="cls-30" points="412.04 464.08 409.99 478.44 397.08 477.99 398.32 461.21 412.04 464.08"/><path class="cls-38" d="M421.31,446.36s3.46,5.08,3.09,5.59-2.86,1-2.86,1Z"/><path class="cls-31" d="M415.89,445.52a4.22,4.22,0,1,1,4.28,4.16A4.22,4.22,0,0,1,415.89,445.52Zm.93,0a3.28,3.28,0,1,0,3.23-3.33A3.29,3.29,0,0,0,416.82,445.51Z"/><path class="cls-30" d="M411.69,432.3c6.87,1.34,8.89,4.32,9.71,15.19.85,11.35-.25,14.94-1.72,16.5-1,1.05-6.59,1.32-9.43.59-3.55-.92-11.59-3.63-15.42-9.29-4.51-6.65-5.81-15.75-1.16-19.57C400.22,430.35,408.89,431.76,411.69,432.3Z"/><path class="cls-38" d="M411.93,464.87c2.95.32,6.93,0,7.75-.88a20.3,20.3,0,0,1-7.35-1.45Z"/><path class="cls-31" d="M422.47,435l-.22.22c-1.35,1.33-3.11,2.18-4.53,3.45a10.62,10.62,0,0,0-3.17,5.23c-.45,1.65-.6,3.61-2.38,4.4,0,0-1.21-4.38-4.9-3.77s-4.15,5.38-1.76,8.23,4.57,1.71,4.57,1.71,0,6.29-2.74,9.89c0,0-3.15,1.07-9-.08-3.59-.7-8.73-5.1-10.93-9.81-4.66-9.95-5.12-19,1.24-21.78.62-4.63,4.22-6.76,8.36-7.78,6.18-1.52,12,2.07,18.15.6a39,39,0,0,1,3.83-1,.73.73,0,0,1,.44,0c.32.15.3.6.22.94a8.14,8.14,0,0,1-1.75,3.34,19,19,0,0,0,6.93-1A8.93,8.93,0,0,1,422.47,435Z"/><path class="cls-31" d="M389.57,435l-4.14-2.35a2.38,2.38,0,1,1,4.14,2.35Z"/><path class="cls-31" d="M412.24,450.8l-.2-4.75a2.38,2.38,0,0,1,.2,4.75Z"/><polygon class="cls-31" points="423.92 444.52 411.2 446.37 411.73 447.25 423.93 445.47 423.92 444.52"/><path class="cls-10" d="M382.82,476c1.51-5.89,3.64-7.82,8.76-8a65.39,65.39,0,0,1,7.89,1c.54,2.49,7,4.18,13.49,2.84,1.93.56,7.06,2,8.67,2.54,4.61,1.67,6.84,6.46,7.14,21.65,0,0,.89,36,0,42.24-11.62,4.53-23.67,4.33-30.33,2.84-13.86-3.11-15.51-8.87-15.51-8.87s.73-14.46,1.2-25.45c-.69-7-1.74-12.27-2.11-17.85A46.55,46.55,0,0,1,382.82,476Z"/><g class="cls-33"><path class="cls-6" d="M382.82,476c1.51-5.89,3.64-7.82,8.76-8a65.39,65.39,0,0,1,7.89,1c.54,2.49,7,4.18,13.49,2.84,1.93.56,7.06,2,8.67,2.54,4.61,1.67,6.84,6.46,7.14,21.65,0,0,.89,36,0,42.24-11.62,4.53-23.67,4.33-30.33,2.84-13.86-3.11-15.51-8.87-15.51-8.87s.73-14.46,1.2-25.45c-.69-7-1.74-12.27-2.11-17.85A46.55,46.55,0,0,1,382.82,476Z"/></g><path class="cls-10" d="M398,465.27l-.1,1.39s.68,1.95,4.6,2.67c6.58,1.23,8.89-.82,8.89-.82l.17-1.18s.63-.26,1.7.56a58.54,58.54,0,0,1,4.55,5.34s-1.25-.37-5.37,1.38a19.6,19.6,0,0,1-12.85.48,7.05,7.05,0,0,1-4.69-5.26C394.75,468.62,396.89,464.78,398,465.27Z"/><path class="cls-26" d="M398,465.27l-.1,1.39s.68,1.95,4.6,2.67c6.58,1.23,8.89-.82,8.89-.82l.17-1.18s.63-.26,1.7.56a58.54,58.54,0,0,1,4.55,5.34s-1.25-.37-5.37,1.38a19.6,19.6,0,0,1-12.85.48,7.05,7.05,0,0,1-4.69-5.26C394.75,468.62,396.89,464.78,398,465.27Z"/><path class="cls-30" d="M421.11,474.09c5.86.74,10.49,2,13.05,7.55,4.33,9.47,9,17.24,12.44,20.9,3.64,3.91,18.58,10.77,21.95,10.23s6.73-4.42,8.46-3.42-1.47,4.76-1.26,5.6,6.32.4,9.2-1.64,4,2.17.22,6.55-10.75,4.72-18.36,3.19-23.15-5.16-29-10c-7.09-5.84-8.35-10.64-11.37-15.87C415.53,486,421.11,474.09,421.11,474.09Z"/><path class="cls-10" d="M420.26,473.94s6.28,0,9.56,2,5.36,6.29,8.08,12.22a78.1,78.1,0,0,0,8.92,14c1.43,1.78,11.85,7.58,11.85,7.58s-1,6.57-3.07,10.82c0,0-10.49-2.63-16.81-6s-15.92-17-15.92-17S416.1,488.66,420.26,473.94Z"/><path class="cls-34" d="M420.26,473.94s6.28,0,9.56,2,5.36,6.29,8.08,12.22a78.1,78.1,0,0,0,8.92,14c1.43,1.78,11.85,7.58,11.85,7.58s-1,6.57-3.07,10.82c0,0-10.49-2.63-16.81-6s-15.92-17-15.92-17S416.1,488.66,420.26,473.94Z"/><path class="cls-10" d="M458,509.42a24.68,24.68,0,0,1-3.28,11,57.34,57.34,0,0,0,5.62,1.21s3.29-3.3,3.11-9.89Z"/><path class="cls-12" d="M458,509.42a24.68,24.68,0,0,1-3.28,11,57.34,57.34,0,0,0,5.62,1.21s3.29-3.3,3.11-9.89Z"/><path class="cls-19" d="M461.23,512.42a.66.66,0,1,1-.65-.66A.66.66,0,0,1,461.23,512.42Z"/></g></g></g></g></svg>