<svg id="Capa_1" data-name="Capa 1" xmlns="http://www.w3.org/2000/svg" viewBox="0 0 738.25 252.64"><defs><style>.cls-1{fill:#02352f;}.cls-2{fill:#18784e;}.cls-3{fill:#e8ad05;}</style></defs><title>LOGO-HORIZONTAL</title><path class="cls-1" d="M260.69,161.68h-7.64V144.12l-16.54-26.93h8.21l12.15,20.24L269,117.19h8.21l-16.55,26.93Z"/><path class="cls-1" d="M299.26,151.5a11.4,11.4,0,0,0,16.55,0q3-3.57,3.05-9.68V117.19h7.51v24.95q0,9.62-5.28,14.8a20.3,20.3,0,0,1-27.11,0q-5.3-5.19-5.29-14.8V117.19h7.51v24.63Q296.2,147.94,299.26,151.5Z"/><path class="cls-1" d="M352,161.68h-7.51V117.19h11.71l13.43,27.94,13.43-27.94h11.64v44.49h-7.51V126.93L371.68,157.8h-4.2L352,126.93Z"/><path class="cls-1" d="M436.54,117.19h9.93v18.27l16.8-18.27h12.28l-17.69,19.67q2.29,3.18,8.46,11.87l9.23,13H464l-13.05-17.56-4.45,5v12.6h-9.93Z"/><path class="cls-1" d="M519.79,161.68l-4.14-9.61H497l-4.14,9.61H482.3l19.22-44.49h9.61l19.22,44.49Zm-13.43-31.25-5.6,12.92h11.13Z"/><path class="cls-1" d="M573.56,161.68l-4.13-9.61H550.78l-4.14,9.61H536.08l19.22-44.49h9.61l19.22,44.49Zm-13.43-31.25-5.6,12.92h11.14Z"/><path class="cls-1" d="M620.66,117.19h12l-13.88,21.45,15,23H621.68L612.2,147l-9.42,14.64h-12l15-22.78-13.94-21.71h11.9l8.47,13.18Z"/><path class="cls-1" d="M270,204.94h7.51v15.21q-6.3,6.94-18,6.94A22.72,22.72,0,0,1,243,220.6a23.59,23.59,0,0,1,.13-33A22.61,22.61,0,0,1,259.47,181q9.6,0,16,5.6l-4,5.73a15.84,15.84,0,0,0-5.25-3.09,20,20,0,0,0-6.14-.86,15.84,15.84,0,0,0-11.33,4.36,15.12,15.12,0,0,0-4.58,11.46q0,7.09,4.45,11.39a15,15,0,0,0,10.79,4.3,19.2,19.2,0,0,0,10.6-2.74Z"/><path class="cls-1" d="M293.71,226.58V182.09h7.51v37.36h20.3v7.13Z"/><path class="cls-1" d="M372.06,220.44a24.39,24.39,0,0,1-33.35,0,23.35,23.35,0,0,1,0-32.84,24.39,24.39,0,0,1,33.35,0,23.37,23.37,0,0,1,0,32.84Zm-5.51-27.85a15.62,15.62,0,0,0-22.34,0,16.62,16.62,0,0,0,0,22.85,15.6,15.6,0,0,0,22.34,0,16.62,16.62,0,0,0,0-22.85Z"/><path class="cls-1" d="M414.12,226.58H394.65V182.09H412a24.76,24.76,0,0,1,7.8,1.09,10.76,10.76,0,0,1,4.87,2.92,11.41,11.41,0,0,1,3.05,7.77q0,5.22-3.31,7.76a15.44,15.44,0,0,1-1.65,1.12l-1.59.73a11.62,11.62,0,0,1,6.58,3.72,10.38,10.38,0,0,1,2.45,7,12,12,0,0,1-3.18,8.21Q423.23,226.58,414.12,226.58Zm-12-26h9.55q8.15,0,8.14-5.54a5.23,5.23,0,0,0-2-4.58c-1.32-.93-3.35-1.4-6.11-1.4h-9.61Zm0,19.09h11.77a12.51,12.51,0,0,0,6.33-1.3c1.47-.87,2.2-2.52,2.2-4.93q0-5.92-9.48-5.92H402.16Z"/><path class="cls-1" d="M451.74,216.46l-4.46,10.12h-8l19.61-44.49h8l19.6,44.49h-8L474,216.46ZM471,209.52l-8.08-18.33-8.09,18.33Z"/><path class="cls-1" d="M499,226.58V182.09h7.51v37.36h20.31v7.13Z"/><path class="cls-2" d="M160.68,26.73a7.46,7.46,0,0,0-5.42,12.66l4.84,5a.4.4,0,0,0,.56,0l5.05-4.75A7.45,7.45,0,0,0,160.68,26.73Z"/><path class="cls-2" d="M179.83,25.79a20.65,20.65,0,0,0-38.23-.55,20.34,20.34,0,0,0,4.24,22.54l11.79,12a3.52,3.52,0,0,0,4.91.1h0l12.25-11.58A20.3,20.3,0,0,0,179.83,25.79ZM171.25,44.6,160.18,55.06,149.52,44.18a15.5,15.5,0,0,1,11.07-26.35h.16a15.51,15.51,0,0,1,10.5,26.77Z"/><path class="cls-2" d="M205.09,160H169.57v5.15h33v32.81a24,24,0,0,1-24,24H142.7a24,24,0,0,1-24-24V165.13h32V160H116.11a2.58,2.58,0,0,0-2.58,2.58v35.38a29.2,29.2,0,0,0,29.17,29.17h35.8a29.2,29.2,0,0,0,29.17-29.17V162.56A2.57,2.57,0,0,0,205.09,160Z"/><path class="cls-3" d="M161,214.34a2.59,2.59,0,0,1-2.58-2.58V77.37a2.58,2.58,0,0,1,5.16,0V211.76A2.59,2.59,0,0,1,161,214.34Z"/><path class="cls-3" d="M143,189.9a2.58,2.58,0,0,1-1.75-4.47l17.55-16.25a2.56,2.56,0,0,1,3.5,0l17.55,16.25a2.58,2.58,0,0,1-3.5,3.78l-15.8-14.63-15.8,14.63A2.55,2.55,0,0,1,143,189.9Z"/><path class="cls-3" d="M143,209.57a2.58,2.58,0,0,1-1.75-4.47l17.55-16.26a2.58,2.58,0,0,1,3.5,0l17.55,16.26a2.58,2.58,0,0,1-3.5,3.78l-15.8-14.64-15.8,14.64A2.55,2.55,0,0,1,143,209.57Z"/><path class="cls-3" d="M158.64,124.09V84.3a25.55,25.55,0,0,1,10.3-20.69c5-3.63,11.38-6.26,19-7.8,1.34-.4,17.66-5.51,24-16.35l4.81-8.26V72.82a25.57,25.57,0,0,1-4.61,14.71,32.43,32.43,0,0,1-21.6,14l-.23,0c-.16,0-17.32,1.46-26.94,15.65Zm52.93-75.92c-8.74,8.68-21.63,12.43-22.29,12.62l-.2.05c-7,1.39-12.7,3.73-17.11,6.93a20.41,20.41,0,0,0-8.18,16.53v24.27c10.64-10.61,24.43-12.06,26-12.2a27.39,27.39,0,0,0,18.1-11.8,20.4,20.4,0,0,0,3.67-11.75Z"/><path class="cls-3" d="M193.52,153.62l-3.16-4.5a28.1,28.1,0,0,0-16.62-10.06,17.79,17.79,0,0,1-12-7.64c-3.21-4.95-4.28-11.47-3.19-19.36l.35-2.56,5.1.71-.35,2.55c-.92,6.64-.1,12,2.42,15.85a12.62,12.62,0,0,0,8.56,5.38A32.93,32.93,0,0,1,191,142.25c4.21-25.42-17.33-33.41-18.3-33.76l-2.42-.86,1.7-4.85,2.43.85c10.3,3.61,27.85,17.59,20.53,44.68Z"/><path class="cls-3" d="M162.57,124.09l-4.71-6.94c-9.67-14.26-26.78-15.64-27-15.65l-.22,0a32.41,32.41,0,0,1-21.6-14,25.5,25.5,0,0,1-4.61-14.71V31.2l4.8,8.26c6.32,10.87,22.63,15.95,24,16.35,7.63,1.54,14,4.17,19,7.8A25.54,25.54,0,0,1,162.57,84.3ZM131.4,96.37c1.58.14,15.38,1.59,26,12.2V84.3a20.39,20.39,0,0,0-8.19-16.53c-4.4-3.2-10.16-5.54-17.11-6.93l-.2-.05c-.65-.19-13.55-3.94-22.29-12.62V72.82a20.36,20.36,0,0,0,3.68,11.75A27.37,27.37,0,0,0,131.4,96.37Z"/><path class="cls-3" d="M127.68,153.57l-1.43-5.26c-7.32-27.09,10.22-41.07,20.53-44.68l2.43-.85,1.7,4.86-2.43.85c-1,.36-22.51,8.35-18.29,33.76A32.89,32.89,0,0,1,146.55,134a12.62,12.62,0,0,0,8.56-5.38c2.52-3.88,3.33-9.21,2.41-15.85l-.35-2.55,5.1-.71.36,2.56c1.09,7.89,0,14.41-3.2,19.36a17.77,17.77,0,0,1-12,7.64,28.19,28.19,0,0,0-16.63,10.06Z"/></svg>