<svg xmlns="http://www.w3.org/2000/svg" viewBox="0 0 600 600"><defs><style>.cls-1{isolation:isolate;}.cls-2{fill:#02352f;}.cls-3{fill:#8b8b8b;}.cls-4{fill:#a4a4a4;}.cls-5,.cls-6{fill:#826752;}.cls-5{mix-blend-mode:overlay;}.cls-6{mix-blend-mode:color;}.cls-7{fill:#2e1403;}.cls-8{fill:#fff;}.cls-9{fill:#2f150c;}.cls-10{fill:#1f0000;}.cls-11,.cls-12,.cls-13,.cls-15{fill:none;stroke-linecap:round;stroke-miterlimit:10;}.cls-11,.cls-12,.cls-13{stroke:#965b39;mix-blend-mode:multiply;}.cls-11,.cls-15{stroke-width:1.1px;}.cls-11,.cls-12{opacity:0.5;}.cls-12,.cls-13{stroke-width:0.82px;}.cls-13{opacity:0.2;}.cls-14{fill:#f2b94d;}.cls-15{stroke:#bf2517;opacity:0.4;}</style></defs><title>ESTEBAN_</title><g class="cls-1"><g id="Capa_1" data-name="Capa 1"><rect class="cls-2" width="604.06" height="604.06"/><path class="cls-3" d="M435.73,509.12c-56.54-20.2-87.06-26.87-91.92-44.91s-6.08-57.15-6.08-57.15h-85.1s-1.21,39.1-6.07,57.15-35.38,24.71-91.92,44.91-56.13,92.52-56.13,92.52H491.86S492.26,529.32,435.73,509.12Z"/><ellipse class="cls-3" cx="157.49" cy="278.06" rx="36.01" ry="45.29" transform="translate(-125.35 129.32) rotate(-32.73)"/><ellipse class="cls-3" cx="438.67" cy="278.06" rx="45.29" ry="35.18" transform="translate(-32.44 496.7) rotate(-57.26)"/><path class="cls-4" d="M426.35,300.71c0,83.85-58.72,129.18-131.17,129.18S164,384.56,164,300.71s58.73-174.47,131.17-174.47S426.35,216.86,426.35,300.71Z"/><path class="cls-5" d="M435.73,509.12c-56.54-20.2-87.06-26.87-91.92-44.91-2.77-10.3-4.36-27.46-5.21-40.29,45.87-13.29,80.07-48.66,86.59-103.67,14.91,2.3,32.35-6.48,43.08-23.16,13.53-21,11.24-46.62-5.1-57.13-12.91-8.3-30.7-4.68-44.28,7.55-18-64.94-66.59-121.27-123.71-121.27-55.79,0-103.45,53.76-122.4,116.78C159.94,234.24,144.6,232.5,133,240c-16.73,10.75-19.33,36.53-5.8,57.57,9.45,14.7,24.27,23.18,38,23.3,6.7,54.68,40.82,89.84,86.53,103.09-.85,12.83-2.44,30-5.21,40.29-4.87,18-35.38,24.71-91.92,44.91s-56.13,92.52-56.13,92.52H491.86S492.26,529.32,435.73,509.12Z"/><path class="cls-6" d="M435.73,509.12c-56.54-20.2-87.06-26.87-91.92-44.91-2.77-10.3-4.36-27.46-5.21-40.29,45.87-13.29,80.07-48.66,86.59-103.67,14.91,2.3,32.35-6.48,43.08-23.16,13.53-21,11.24-46.62-5.1-57.13-12.91-8.3-30.7-4.68-44.28,7.55-18-64.94-66.59-121.27-123.71-121.27-55.79,0-103.45,53.76-122.4,116.78C159.94,234.24,144.6,232.5,133,240c-16.73,10.75-19.33,36.53-5.8,57.57,9.45,14.7,24.27,23.18,38,23.3,6.7,54.68,40.82,89.84,86.53,103.09-.85,12.83-2.44,30-5.21,40.29-4.87,18-35.38,24.71-91.92,44.91s-56.13,92.52-56.13,92.52H491.86S492.26,529.32,435.73,509.12Z"/><path class="cls-7" d="M387.54,94l-18.29.65a10.74,10.74,0,0,0-9.89,7.62l-1,3.37L353,100.52a17.39,17.39,0,0,0-12.64-4.81l-78.78,2.82a17.62,17.62,0,0,0-14.46,8.54l-.4.67h0a14.5,14.5,0,0,0-13.56-8.19L191.65,101a32.87,32.87,0,0,0-26.43,14.79c-6.77,10.4-14.15,27.73-17.42,55.86-6.77,58.3,9.69,108.14,9.69,108.14h14.77s-.52-12.88,3.13-20.17,10.41-12.49,26-26,14.06-50.48,14.06-50.48,101-17.53,151.46,0c1.57,15.61,25.51,35.39,30.71,44.76s20.3,51.92,20.3,51.92H429.4c18.89-105.74-10.86-159.19-25.39-178A19.9,19.9,0,0,0,387.54,94Z"/><path class="cls-8" d="M263.48,295.28c-2.74,13.4-15.38,16.32-29.64,13.4s-24.75-10.56-22-23.95,16.59-22.24,30.85-19.32S266.22,281.89,263.48,295.28Z"/><ellipse class="cls-9" cx="240.52" cy="285.99" rx="16.03" ry="20.3"/><path class="cls-10" d="M214.47,277.58a18.59,18.59,0,0,1,2.07-3.55c.38-.57.83-1.09,1.25-1.65l1.39-1.55A25.71,25.71,0,0,1,226,266a22.75,22.75,0,0,1,8.13-2.32,30.28,30.28,0,0,1,8.45.38,27.1,27.1,0,0,1,14.78,7.77,24.49,24.49,0,0,1,4.59,7c.28.64.47,1.31.71,2s.39,1.33.55,2a18.79,18.79,0,0,1,.54,4.08h-.15a23.94,23.94,0,0,0-2.37-7.69,23.54,23.54,0,0,0-4.69-6.53,27.24,27.24,0,0,0-14.24-7.12,29.33,29.33,0,0,0-8-.45,25.58,25.58,0,0,0-4,.64c-.66.16-1.29.41-1.93.6-.32.11-.64.2-1,.33l-.93.41a26.27,26.27,0,0,0-11.86,10.62Z"/><path class="cls-8" d="M378.65,285.48C381,299,370.32,306.29,356,308.81s-26.9-.76-29.26-14.22,7.29-26.77,21.63-29.28S376.29,272,378.65,285.48Z"/><ellipse class="cls-9" cx="351.85" cy="286" rx="16.03" ry="20.3"/><path class="cls-10" d="M326.56,287a19.26,19.26,0,0,1,.62-4.06c.15-.68.38-1.33.57-2l.72-2a25.87,25.87,0,0,1,4.55-7,22.62,22.62,0,0,1,6.71-5.14,29.78,29.78,0,0,1,8-2.74,27,27,0,0,1,16.59,1.81,24.38,24.38,0,0,1,6.84,4.84c.49.49.92,1,1.38,1.56s.85,1.09,1.25,1.65a18.61,18.61,0,0,1,2,3.6l-.13.07a24.25,24.25,0,0,0-5-6.29,23.64,23.64,0,0,0-6.77-4.36,27.21,27.21,0,0,0-15.86-1.4,29.42,29.42,0,0,0-7.64,2.52,24.77,24.77,0,0,0-3.47,2.06c-.55.38-1,.85-1.57,1.26-.26.22-.53.42-.77.66l-.71.72A26.32,26.32,0,0,0,326.71,287Z"/><path class="cls-11" d="M277.66,287.24l1.56,29.94s-10.93,4.42-10.41,10.15a11.14,11.14,0,0,0,5.2,8.32"/><path class="cls-11" d="M311,287.24l-1.56,29.94s10.93,4.42,10.41,10.15a11.14,11.14,0,0,1-5.2,8.32"/><path class="cls-11" d="M301,335.65s2.26-4.33,8.42-4.16"/><path class="cls-11" d="M289.2,335.65s-2.25-4.33-8.41-4.16"/><path class="cls-12" d="M272.2,366s31.27-9.37,47.65-7.81,20-2.6,22.1-4.51"/><path class="cls-13" d="M279.22,372.44s7.9,4.51,30.2,2.6,29.93-13.71,29.93-13.71"/><path class="cls-14" d="M224.5,478.1s28.62,30.19,73,30.19,67-33.66,67-33.66,9.36,4.16,9,5.21,61.07,13.53,89.87,37.47,35.05,86.75,35.05,86.75H90s5.56-63.5,34-84.67,90.57-35.74,90.57-35.74Z"/><path class="cls-15" d="M217.55,488.16s30,40.08,83.45,39,70.62-40.08,70.62-40.08"/><line class="cls-15" x1="436.13" y1="566.93" x2="441.6" y2="601.98"/><line class="cls-15" x1="146.94" y1="566.93" x2="141.47" y2="601.98"/></g></g></svg>