<svg xmlns="http://www.w3.org/2000/svg" viewBox="0 0 600 600"><defs><style>.cls-1{isolation:isolate;}.cls-2{fill:#e8ad05;}.cls-3{fill:#4a3728;}.cls-4{fill:#8b8b8b;}.cls-5{fill:#a4a4a4;}.cls-6,.cls-7{fill:#cc9667;}.cls-6{mix-blend-mode:overlay;}.cls-7{mix-blend-mode:color;}.cls-8{fill:#fff;}.cls-9{fill:#2f150c;}.cls-10{fill:#1f0000;}.cls-11,.cls-13,.cls-14,.cls-15{fill:none;stroke-linecap:round;stroke-miterlimit:10;}.cls-11{stroke:#965b39;}.cls-11,.cls-13,.cls-14{stroke-width:1.1px;}.cls-12{fill:#36adab;}.cls-13{stroke:#bf2517;opacity:0.6;}.cls-13,.cls-14,.cls-15{mix-blend-mode:multiply;}.cls-14,.cls-15{stroke:#675353;opacity:0.4;}.cls-15{stroke-width:1.23px;}</style></defs><title>ERIKA_</title><g class="cls-1"><g id="Capa_1" data-name="Capa 1"><rect class="cls-2" width="604.06" height="604.06"/><path class="cls-3" d="M207.7,107.89c-60.32,32.78-82.61,85.88-83.93,162.6s20.33,293,20.33,293S195.39,589,316.28,589,490.94,554,490.94,554s21.63-278.25,14.42-353S430.62,50.84,334.24,50.84,207.7,107.89,207.7,107.89Z"/><path class="cls-4" d="M449.05,509.92c-53.4-19.07-82.23-25.38-86.83-42.43s-5.74-54-5.74-54h-80.4s-1.14,36.94-5.74,54-33.42,23.36-86.83,42.43-53,87.41-53,87.41h371.6S502.46,529,449.05,509.92Z"/><path class="cls-4" d="M214.82,273.24c12.78,19.88,10.32,44.23-5.48,54.39s-39,2.28-51.76-17.59-10.32-44.24,5.48-54.4S202,253.36,214.82,273.24Z"/><ellipse class="cls-4" cx="451.84" cy="291.64" rx="42.79" ry="33.24" transform="matrix(0.54, -0.84, 0.84, 0.54, -37.82, 514.01)"/><path class="cls-5" d="M440.2,313c0,79.22-55.48,122-123.92,122S192.36,392.25,192.36,313s55.48-164.82,123.92-164.82S440.2,233.82,440.2,313Z"/><path class="cls-6" d="M449.05,509.92c-53.4-19.07-82.23-25.38-86.83-42.43-2.62-9.73-4.12-25.93-4.92-38.06,43.33-12.55,75.64-46,81.8-97.93,14.09,2.17,30.56-6.12,40.7-21.89,12.78-19.88,10.62-44-4.82-54-12.19-7.83-29-4.42-41.83,7.14-17-61.35-62.91-114.57-116.87-114.57-52.71,0-97.73,50.79-115.64,110.32-12.12-8.29-26.62-9.93-37.58-2.89-15.8,10.16-18.25,34.52-5.48,54.4,8.93,13.88,22.93,21.89,35.95,22,6.32,51.66,38.55,84.88,81.74,97.39-.81,12.13-2.31,28.33-4.93,38.06-4.59,17.05-33.42,23.36-86.83,42.43s-53,87.41-53,87.41h371.6S502.46,529,449.05,509.92Z"/><path class="cls-7" d="M449.05,509.92c-53.4-19.07-82.23-25.38-86.83-42.43-2.62-9.73-4.12-25.93-4.92-38.06,43.33-12.55,75.64-46,81.8-97.93,14.09,2.17,30.56-6.12,40.7-21.89,12.78-19.88,10.62-44-4.82-54-12.19-7.83-29-4.42-41.83,7.14-17-61.35-62.91-114.57-116.87-114.57-52.71,0-97.73,50.79-115.64,110.32-12.12-8.29-26.62-9.93-37.58-2.89-15.8,10.16-18.25,34.52-5.48,54.4,8.93,13.88,22.93,21.89,35.95,22,6.32,51.66,38.55,84.88,81.74,97.39-.81,12.13-2.31,28.33-4.93,38.06-4.59,17.05-33.42,23.36-86.83,42.43s-53,87.41-53,87.41h371.6S502.46,529,449.05,509.92Z"/><path class="cls-3" d="M411.11,107.56c-68.84-59.5-170.63-19.67-188.82,7.87-41.31-4.92-68.85,47.69-66.88,98.34,1.78,45.77,30.79,70.32,30.79,70.32L192.36,313h8.29s13.28-49.59,12.29-48.12c-.69,1,21.93-27.84,24-60.46A125.75,125.75,0,0,0,268,244.26c41.79,35.9,151.45,34.91,151.45,34.91l15.24,32.95,5.49.91,17-61.48S465.67,154.72,411.11,107.56Z"/><path class="cls-8" d="M286.33,317.45c-2.59,12.66-14.53,15.41-28,12.66s-23.38-10-20.79-22.63,15.67-21,29.14-18.25S288.92,304.8,286.33,317.45Z"/><ellipse class="cls-9" cx="264.64" cy="308.67" rx="15.14" ry="19.18"/><path class="cls-10" d="M240,300.72a18.44,18.44,0,0,1,1.94-3.36c.37-.55.79-1,1.19-1.56l1.3-1.48a24.53,24.53,0,0,1,6.44-4.62c4.79-2.49,10.49-2.8,15.7-1.85a25.49,25.49,0,0,1,14,7.36,23.16,23.16,0,0,1,4.33,6.65,26.69,26.69,0,0,1,1.18,3.75,17.37,17.37,0,0,1,.49,3.86h-.15a23,23,0,0,0-2.24-7.27,22.16,22.16,0,0,0-4.43-6.17,25.78,25.78,0,0,0-13.45-6.72,27.65,27.65,0,0,0-7.59-.42,23.75,23.75,0,0,0-3.76.6c-.62.15-1.22.38-1.82.57-.3.1-.61.19-.91.31l-.87.39a24.79,24.79,0,0,0-11.2,10Z"/><path class="cls-8" d="M395.13,308.19c2.23,12.72-7.87,19.66-21.42,22s-25.4-.71-27.63-13.44,6.88-25.28,20.43-27.66S392.9,295.47,395.13,308.19Z"/><path class="cls-9" d="M385,308.68c0,10.59-6.78,19.18-15.14,19.18s-15.14-8.59-15.14-19.18,6.78-19.18,15.14-19.18S385,298.09,385,308.68Z"/><path class="cls-10" d="M345.92,309.6a17.3,17.3,0,0,1,.57-3.85c.14-.64.35-1.25.53-1.88l.67-1.85a24.24,24.24,0,0,1,4.29-6.66c3.55-4.07,8.74-6.46,13.94-7.48a25.5,25.5,0,0,1,15.71,1.73,22.83,22.83,0,0,1,6.46,4.6,26.65,26.65,0,0,1,2.48,3.05,18,18,0,0,1,1.87,3.41l-.14.07a23.12,23.12,0,0,0-4.74-5.95,22.54,22.54,0,0,0-6.39-4.11,25.74,25.74,0,0,0-15-1.32,27.82,27.82,0,0,0-7.22,2.38,24.47,24.47,0,0,0-3.27,1.94c-.52.37-1,.8-1.49,1.2-.24.21-.5.39-.73.62l-.66.68a24.74,24.74,0,0,0-6.75,13.43Z"/><path class="cls-11" d="M303.06,307.62l5.29,27.3L297.9,338s1.23,12.38,17.21,9.67"/><path class="cls-11" d="M299,374.81s7,6.4,16.27,5.91a23.79,23.79,0,0,0,14.7-5.91"/><path class="cls-12" d="M213.27,494.72l27.21-21.64,82,86.87,65.9-83.59,22,12.45s38.36,6.56,63.93,25.57,32.61,86.88,32.61,86.88H122.14S116.23,508.81,213.27,494.72Z"/><polyline class="cls-13" points="231.96 505.42 322.11 573.72 401.77 499.31"/><line class="cls-13" x1="456.19" y1="563.86" x2="464.71" y2="599.27"/><line class="cls-13" x1="187.37" y1="563.86" x2="178.85" y2="599.27"/><path class="cls-14" d="M232.39,150a285.15,285.15,0,0,0,182.17,72.34"/><path class="cls-14" d="M235.7,134c32.6-5,66.25-.07,97.32,11s59.74,28.09,86.55,47.31"/><path class="cls-14" d="M239.9,122a165.25,165.25,0,0,1,171.76,47.45"/><path class="cls-14" d="M217.66,141.84c-24.36,10.65-42.23,34.88-45.21,61.29"/><path class="cls-15" d="M216.27,147c-15.85,24.19-18.9,60.54-7.72,92"/></g></g></svg>