<svg xmlns="http://www.w3.org/2000/svg" viewBox="0 0 600 600"><defs><style>.cls-1{isolation:isolate;}.cls-2{fill:#e8ad05;}.cls-3{fill:#795c34;}.cls-4{fill:#dda99b;}.cls-5{fill:#e5b4a8;}.cls-6{fill:#f2ab91;}.cls-12,.cls-14,.cls-7{fill:none;stroke-linecap:round;stroke-miterlimit:10;}.cls-7{stroke:#f2ab91;opacity:0.6;}.cls-12,.cls-7{stroke-width:1.1px;}.cls-14,.cls-7{mix-blend-mode:multiply;}.cls-8{fill:#594353;}.cls-9{fill:#fff;}.cls-10{fill:#2f150c;}.cls-11{fill:#1f0000;}.cls-12{stroke:#965b39;opacity:0.5;}.cls-13{fill:#f4ebe9;}.cls-14{stroke:#675353;stroke-width:1.23px;opacity:0.3;}</style></defs><title>JENNY</title><g class="cls-1"><g id="Capa_1" data-name="Capa 1"><rect class="cls-2" width="604.06" height="604.06"/><path class="cls-3" d="M335,102.66s-95.72-23-148.17,14.42S105.63,282.9,117.44,341.31C152,512.43,331,430.48,394.63,463.26c23.6,8.52,28.85-20.32,28.85-20.32s-6.07-39.34,15.32-86.55,16.8-91.13,3-142.27-45.89-66.44-45.89-66.44l-23.6,5.46S376.27,130.85,335,102.66Z"/><path class="cls-4" d="M436,509.4C382.61,490.32,353.77,484,349.18,467s-5.74-54-5.74-54H263s-1.14,36.94-5.74,54-33.42,23.35-86.83,42.43-53,87.4-53,87.4H489S489.42,528.48,436,509.4Z"/><ellipse class="cls-4" cx="173.16" cy="291.11" rx="34.02" ry="42.79" transform="translate(-129.92 139.87) rotate(-32.73)"/><path class="cls-4" d="M410.84,273.14c-12.78,19.88-10.62,44,4.82,54s38.32,1.85,51.1-18,10.62-44-4.82-54S423.62,253.26,410.84,273.14Z"/><path class="cls-5" d="M427.16,312.51c0,79.21-55.48,122-123.92,122s-123.92-42.82-123.92-122S234.8,147.68,303.24,147.68,427.16,233.29,427.16,312.51Z"/><path class="cls-6" d="M159.48,507.55c5.73-2.61,8.85-9.6,15.15-9.43a16.57,16.57,0,0,1,14.62,10.23c1.44,3.61,1.52,7.61,2.44,11.39s3.06,7.69,6.76,8.87,7.77-.8,10.71-3.39,5.32-5.85,8.59-8c7.55-4.94,19.09-1.87,23.18,6.17,2.69,5.29,2.26,11.56,3.42,17.38s5.21,12.11,11.15,12c8-.13,13.59-11.7,21.25-9.37,6.69,2,8.34,13.47,15.31,13.09,7.66-.42,7.22-14.14,14.53-16.45,5.68-1.79,10.55,4.76,16.41,5.81,6.07,1.08,11.44-3.92,15.19-8.82s7.67-10.57,13.73-11.74c6.46-1.24,12.47,3.16,18,6.71s13.07,6.4,18.34,2.47c6.75-5,4.32-17.27,11.32-22,5.75-3.84,14.09.08,20.18-3.19,6.85-3.68,6.68-13.65,11.39-19.84a14.38,14.38,0,0,1,25.1,13.2S494,540.53,494,596.8H111.72S105.28,532.16,159.48,507.55Z"/><path class="cls-7" d="M439.72,507.11a17.37,17.37,0,0,1-19.11,18.17c-2.42-.25-4.8-1-7.23-.9s-5.32,2.38-5.47,4.81c-.57,8.85-3.56,17.92-10.08,23.94s-17,8.13-24.52,3.37c-4.94-3.13-9.1-9.1-14.9-8.29-6.93,1-8.93,10.67-15.21,13.75-7.69,3.77-17-4.19-25.11-1.49-8.83,2.94-11,16.62-20.21,18.26-9.9,1.78-16.07-12.14-26-13.44-6.06-.79-11.6,3.33-17.58,4.6A19.76,19.76,0,0,1,234,561.33c-3.18-5.05-4.14-11.69-8.84-15.36-10-7.83-26.36,4.81-36.86-2.35-3.49-2.38-5.37-6.42-7.22-10.21s-4.08-7.75-7.86-9.61-9.45-.35-10.28,3.79"/><path class="cls-3" d="M219,188.18s-13.66,31.06-11.63,67.39c7.58,1.58,156.77-8.42,158.79-7.89s-4.05-32.12-4.05-32.12l16.19,33.17L400.53,245S394,204,370.19,175s-49.56-35-79.4-35S231.62,157.11,219,188.18Z"/><path class="cls-3" d="M401.25,466.32s8.06,14.61,9.91,25.07-26.61,33.57-29.6,69.36,30.37,69.65,64.51,72.34c-4.43-29.1-1.62-56.69,16.1-75s20.17-85.93-44.42-104.82C404.12,461.35,401.25,466.32,401.25,466.32Z"/><polygon class="cls-8" points="427.16 435.56 389.73 465.05 398.09 475.87 434.21 450.31 427.16 435.56"/><path class="cls-3" d="M408.72,229.2s-5.24,32,2.63,51.06S421.84,298,421.84,298l1.31,15.08h0a14.44,14.44,0,0,0,12.29-15.52C433.58,275.89,427.58,235.16,408.72,229.2Z"/><path class="cls-3" d="M196.42,228.3s7.87,31.44,1.61,51.11-9,18.59-9,18.59L189,313.13h0a14.45,14.45,0,0,1-13.54-14.45C175.51,276.9,178.12,235.81,196.42,228.3Z"/><path class="cls-9" d="M270.14,308.8c-2.17,10.63-12.21,12.95-23.53,10.63s-19.64-8.38-17.47-19,13.17-17.65,24.49-15.33S272.31,298.17,270.14,308.8Z"/><path class="cls-10" d="M264.64,301.43c0,8.9-5.69,16.11-12.72,16.11s-12.72-7.21-12.72-16.11,5.69-16.12,12.72-16.12S264.64,292.53,264.64,301.43Z"/><path class="cls-11" d="M231.22,294.74a14.8,14.8,0,0,1,1.59-2.86c.3-.47.66-.89,1-1.33l1.09-1.27a20,20,0,0,1,18.72-5.56A21.36,21.36,0,0,1,265.43,290a19.42,19.42,0,0,1,3.61,5.65,17.81,17.81,0,0,1,1.32,6.44h-.15a19.6,19.6,0,0,0-5.61-11.27,21.56,21.56,0,0,0-11.29-5.64,23.08,23.08,0,0,0-6.37-.36,20,20,0,0,0-3.16.51c-.51.12-1,.32-1.52.47a9.62,9.62,0,0,0-1.49.59,20.8,20.8,0,0,0-9.41,8.41Z"/><path class="cls-9" d="M380.83,301c1.87,10.69-6.61,16.52-18,18.52s-21.34-.6-23.22-11.29S345.4,287,356.78,285,379,290.33,380.83,301Z"/><ellipse class="cls-10" cx="359.56" cy="301.43" rx="12.72" ry="16.11"/><path class="cls-11" d="M339.47,302.2a14.35,14.35,0,0,1,.43-3.25c.11-.54.28-1.06.42-1.6l.55-1.57a20,20,0,0,1,15.37-12,21.48,21.48,0,0,1,13.31,1.51,19.45,19.45,0,0,1,5.44,3.94,17.67,17.67,0,0,1,3.58,5.51l-.13.06a19.67,19.67,0,0,0-9.35-8.44,21.6,21.6,0,0,0-12.57-1.1,23.44,23.44,0,0,0-6.06,2,20.09,20.09,0,0,0-2.75,1.63c-.44.3-.83.67-1.25,1a10,10,0,0,0-1.17,1.09,20.8,20.8,0,0,0-5.67,11.28Z"/><path class="cls-12" d="M293.33,329.59s8.61-6.14,14.26-5.65,10.57,8.36,10.57,8.36"/><path class="cls-13" d="M275.87,362.78s15.79,7.87,33.1,8.12,32.67-8.12,32.67-8.12-10.94,23.61-35.89,22.62S275.87,362.78,275.87,362.78Z"/><path class="cls-14" d="M251.67,156.89a155.34,155.34,0,0,0,2.62,78.59"/><path class="cls-14" d="M285.52,165.08l2.22,53.63"/><path class="cls-14" d="M310.91,157a86.86,86.86,0,0,1,9.63,54.24"/><path class="cls-14" d="M356.14,153.8s-54-24.92-97.56-13.77-78,56.16-78,56.16"/></g></g></svg>