<svg xmlns="http://www.w3.org/2000/svg" viewBox="0 0 600 600"><defs><style>.cls-1{isolation:isolate;}.cls-2{fill:#02352f;}.cls-3{fill:#f2b94d;}.cls-4{fill:#8b8b8b;}.cls-5{fill:#a4a4a4;}.cls-6{fill:#eebda1;mix-blend-mode:overlay;}.cls-7{fill:#ecb8a9;mix-blend-mode:soft-light;}.cls-11,.cls-12,.cls-7{opacity:0.5;}.cls-8{fill:#fff;}.cls-9{fill:#2e631d;}.cls-10{fill:#1f0000;}.cls-11{fill:none;stroke:#965b39;stroke-linecap:round;stroke-miterlimit:10;stroke-width:1.1px;}.cls-12{fill:#ec9d86;}.cls-13{fill:#fcc454;}.cls-14{fill:#ff5069;}</style></defs><title>AN_</title><g class="cls-1"><g id="Capa_1" data-name="Capa 1"><rect class="cls-2" width="604.06" height="604.06"/><path class="cls-3" d="M218.38,448.12s12.61-7.22,75.47-7.22,92,5.58,92,5.58l40-55.41s-64.25-5.24-128.5-5.24S187.56,403.2,187.56,403.2Z"/><path class="cls-4" d="M425,512.38C371.61,493.3,342.77,487,338.18,470s-5.74-54-5.74-54H252s-1.14,36.94-5.74,54-33.42,23.35-86.83,42.43-53,87.4-53,87.4H478S478.42,531.46,425,512.38Z"/><ellipse class="cls-4" cx="162.16" cy="294.09" rx="34.02" ry="42.79" transform="translate(-133.28 134.4) rotate(-32.73)"/><path class="cls-4" d="M399.84,276.12c-12.78,19.88-10.62,44,4.82,54s38.32,1.86,51.1-18,10.62-44-4.82-54S412.62,256.24,399.84,276.12Z"/><path class="cls-5" d="M416.16,315.49c0,79.21-55.48,122-123.92,122s-123.92-42.82-123.92-122S223.8,150.66,292.24,150.66,416.16,236.27,416.16,315.49Z"/><path class="cls-6" d="M425,512.38C371.61,493.3,342.77,487,338.18,470c-2.62-9.74-4.12-25.94-4.92-38.06,43.33-12.56,75.64-46,81.8-97.94,14.09,2.17,30.56-6.12,40.7-21.89,12.78-19.87,10.62-44-4.82-54-12.19-7.84-29-4.43-41.83,7.13-17-61.35-62.91-114.57-116.87-114.57-52.71,0-97.73,50.79-115.64,110.32-12.12-8.29-26.62-9.93-37.58-2.88-15.8,10.16-18.25,34.51-5.48,54.39,8.93,13.88,22.93,21.89,36,22,6.32,51.66,38.55,84.88,81.74,97.4-.81,12.12-2.31,28.32-4.93,38.06-4.59,17.05-33.42,23.35-86.83,42.43s-53,87.4-53,87.4H478S478.42,531.46,425,512.38Z"/><path class="cls-7" d="M425,512.38C371.61,493.3,342.77,487,338.18,470c-2.62-9.74-4.12-25.94-4.92-38.06,43.33-12.56,75.64-46,81.8-97.94,14.09,2.17,30.56-6.12,40.7-21.89,12.78-19.87,10.62-44-4.82-54-12.19-7.84-29-4.43-41.83,7.13-17-61.35-62.91-114.57-116.87-114.57-52.71,0-97.73,50.79-115.64,110.32-12.12-8.29-26.62-9.93-37.58-2.88-15.8,10.16-18.25,34.51-5.48,54.39,8.93,13.88,22.93,21.89,36,22,6.32,51.66,38.55,84.88,81.74,97.4-.81,12.12-2.31,28.32-4.93,38.06-4.59,17.05-33.42,23.35-86.83,42.43s-53,87.4-53,87.4H478S478.42,531.46,425,512.38Z"/><path class="cls-8" d="M265.87,307.5c-2.59,12.65-14.53,15.41-28,12.65s-23.38-10-20.8-22.62,15.68-21,29.15-18.26S268.46,294.84,265.87,307.5Z"/><path class="cls-9" d="M259.33,298.72c0,10.59-6.78,19.18-15.15,19.18S229,309.31,229,298.72s6.78-19.18,15.14-19.18S259.33,288.13,259.33,298.72Z"/><path class="cls-10" d="M219.56,290.77a18.19,18.19,0,0,1,1.94-3.37c.37-.54.79-1,1.19-1.56l1.3-1.47a24.19,24.19,0,0,1,6.43-4.62c4.8-2.49,10.5-2.81,15.71-1.86a25.51,25.51,0,0,1,14,7.37,23.37,23.37,0,0,1,4.33,6.65,26.16,26.16,0,0,1,1.18,3.74,17.37,17.37,0,0,1,.49,3.86H266a22.94,22.94,0,0,0-2.24-7.26,22,22,0,0,0-4.43-6.17,25.75,25.75,0,0,0-13.45-6.72,27.65,27.65,0,0,0-7.59-.43,24.08,24.08,0,0,0-3.77.61c-.61.15-1.21.38-1.82.57-.3.1-.6.18-.9.3l-.87.4a24.79,24.79,0,0,0-11.2,10Z"/><path class="cls-8" d="M374.67,298.24c2.23,12.72-7.87,19.66-21.42,22s-25.4-.72-27.63-13.44,6.88-25.29,20.42-27.66S372.44,285.51,374.67,298.24Z"/><ellipse class="cls-9" cx="349.36" cy="298.72" rx="15.14" ry="19.18"/><path class="cls-10" d="M325.46,299.64a17.3,17.3,0,0,1,.57-3.84c.14-.64.35-1.25.53-1.89l.67-1.85a24.54,24.54,0,0,1,4.29-6.66c3.55-4.07,8.74-6.45,13.94-7.47a25.5,25.5,0,0,1,15.71,1.72,23.23,23.23,0,0,1,6.46,4.6,25.91,25.91,0,0,1,2.48,3.06,17.65,17.65,0,0,1,1.87,3.41l-.14.06a23.07,23.07,0,0,0-4.74-5.94,22.36,22.36,0,0,0-6.39-4.12,25.75,25.75,0,0,0-15-1.32,27.47,27.47,0,0,0-7.22,2.39,23.45,23.45,0,0,0-3.27,1.94c-.52.36-1,.8-1.49,1.19-.24.21-.5.4-.73.62l-.66.68a24.81,24.81,0,0,0-6.75,13.44Z"/><path class="cls-11" d="M283.65,313.85a112.27,112.27,0,0,1,3.55,21.79c.83,12.5-5.09,18.18-5.09,18.18a16.41,16.41,0,0,0,15.19.58"/><path class="cls-11" d="M262.46,376.58c7.52,2.64,16.8,5.46,28,5.41,12.43-.06,22.41-3.26,29.74-7.72"/><path class="cls-12" d="M389.22,333.39c1,6.18-7.68,12.77-19.43,14.7s-22.1-1.51-23.12-7.7,7.68-12.77,19.43-14.71S388.2,327.2,389.22,333.39Z"/><path class="cls-12" d="M194.11,333.39c-1,6.18,7.67,12.77,19.42,14.7s22.1-1.51,23.12-7.7-7.68-12.77-19.43-14.71S195.12,327.2,194.11,333.39Z"/><path class="cls-13" d="M214.61,219.32s37.86,35.41,93.92,33.93,69.34-22.62,69.34-22.62S397,263.09,402,301,345.9,460.27,345.9,460.27s89.5-21.14,107.69-70.81-10-174.07-24.18-210.95S343,90.49,316.4,88s-70.81,42.29-70.81,42.29S205.76,119,179.7,142.61s-57.54,140.64-56.55,205.55S203.3,461.26,240.67,464.7C154.13,356,214.61,219.32,214.61,219.32Z"/><path class="cls-14" d="M176.56,504.9l26.71-8.09,15.41,51.47s52.13,2.62,82.94,33.11C335.39,547,386.86,545,386.86,545l15.08-48.19L421,504s-3.69,48.19,1.56,61.63,23.93,35.85,23.93,35.85H143.28s31.47-19.46,37.38-38.14S176.56,504.9,176.56,504.9Z"/></g></g></svg>