<svg xmlns="http://www.w3.org/2000/svg" viewBox="0 0 1000 800"><defs><style>.cls-1{fill:#f7f7f7;}.cls-2{fill:#b97262;}.cls-3{fill:#b5d6ca;}.cls-4{fill:#5bbcb9;}.cls-5{fill:#1a3151;}.cls-6{fill:#ffe;}.cls-7{fill:#9ea6ad;}.cls-8{fill:#ebb044;}.cls-9{fill:#145566;}.cls-10{fill:#efbfa5;}.cls-11{fill:#3b455a;}.cls-12{fill:#ffffef;}.cls-13{fill:#ece9de;}</style></defs><title>HISTORIAS</title><g id="shadow"><path class="cls-1" d="M462.51,670.63c-23,.07-46.05.66-69,3.37-8.67,1-17.15,3.27-25.84,4.17-17.35,1.81-34.39,5.19-51.8,6.74-14,1.26-28.1,2-42.07,3.59a139.8,139.8,0,0,1-40.63-1.32c-9.62-1.82-19.3-2.85-28.76-5.78-10.59-3.28-22.1-5.62-33.13-5.54-15.74.12-31.06.14-46.11,5.92-5.29,2-11.76,5.38-15.77,9.64-9.19,9.76-10.44,34.12-1.26,44.24,15.45,17,48.43,23.72,70.09,24,23.73.34,46.79-1.52,70.56-2.62,22.09-1,44.12-2.47,66.24-2.42,45.18.1,90.38,0,135.48-3.2,42.37-3,84.85-2,127.32-2,43.55,0,86.81.36,130,6.49,18.84,2.67,38,3.61,57,5.48,17,1.68,33.25,0,50.14-1.58a114.45,114.45,0,0,0,41.15-11.68c10.2-5.17,28.38-21.21,31.51-33.53C896.37,680.12,764,681,743.72,681c-22.73.09-45.64.88-68.35,0-9.55-.39-19-2.36-28.29-4.53s-18.64-1.61-28.06-2.52c-39.28-3.78-78.64-3.23-118-3.23C488.16,670.71,475.33,670.59,462.51,670.63Z"/></g><g id="object"><polygon class="cls-2" points="277.5 348.64 275.74 336.73 280.79 335.76 283.81 343.64 285.98 342.07 286.25 352.44 281.13 354.17 277.5 348.64"/><polygon class="cls-3" points="353.99 410.5 308.44 398.65 287.34 348.9 277.36 352.84 289.25 417.1 341.71 444.13 353.99 410.5"/><polygon class="cls-4" points="744.58 405.32 701.42 436.81 663.78 420.55 658.26 430.71 686.76 450.12 702.74 456.09 744.58 435.95 744.58 405.32"/><path class="cls-5" d="M774.3,208.47l132.17,11a22.23,22.23,0,0,1,20.31,24l-7.08,85.2A22.23,22.23,0,0,1,895.84,349l-21.25-1.64-27,32a1.27,1.27,0,0,1-2.23-.91l2.26-33.3-84.09-7.19a22.23,22.23,0,0,1-20.26-24l7.08-85.13A22.23,22.23,0,0,1,774.3,208.47Z"/><rect class="cls-6" x="825.83" y="188.11" width="4.41" height="105.95" transform="translate(517.45 1045.63) rotate(-85.12)"/><rect class="cls-6" x="833.14" y="212.3" width="4.41" height="126.37" transform="translate(489.86 1084.4) rotate(-85.12)"/><rect class="cls-6" x="830.28" y="245.84" width="4.41" height="126.37" transform="translate(453.82 1112.24) rotate(-85.12)"/><polygon class="cls-7" points="676.25 554.15 678.79 612.9 671.36 712.78 660.25 713.57 646.75 622.85 628.08 546.08 676.25 554.15"/><polygon class="cls-5" points="660.65 718.25 673.09 723.41 678.67 716.97 672.24 711.39 660.22 712.25 660.65 718.25"/><polygon class="cls-7" points="597.61 533.36 595.17 577.77 602.4 709.8 613.53 710.36 630.2 623.76 644.91 528.79 597.61 533.36"/><polygon class="cls-5" points="613.23 715.04 600.9 720.46 595.18 714.14 601.5 708.43 613.53 709.03 613.23 715.04"/><path class="cls-8" d="M662.29,402.55l-34.71-3.72s-19.32,2.06-32.42,47.93c-7.29,25.51-9.51,65.71-10,96.36.82,4.37,5.58,23.52,25.72,20.27,34.59-5.58,53-11.15,68.06-8.36,12.83,2.78,11.74-14.88,10.33-28.36L684.12,485Z"/><path class="cls-2" d="M655.59,359.34c-8.75-1.93-17.76-3.66-26.52-1.92-1.92.38-4,1-5,2.7a7.82,7.82,0,0,0-.81,2.11c-2.21,8.22-5,20.4.39,28a13.69,13.69,0,0,0,3.91,3.52,19.3,19.3,0,0,0,6.47,2.54,35,35,0,0,1-2,6c2,3,11.35,3.38,13.08.48.09-2.5.19-5,.29-7.51a19.17,19.17,0,0,0,3.27-1.7,21.13,21.13,0,0,0,8.15-11.09c1.66-4.86,4-9.48,5.52-14.44.56-1.8,1-3.86,0-5.5s-3.19-2.32-5.15-2.76Z"/><path class="cls-5" d="M626.46,364a27.36,27.36,0,0,1,14.88-3.69c12.3.89,16.8,9.92,17.46,21.23,3.38-4.31,9.74-9.72,10.12-15.26.32-4.54-.31-10.72-2.85-14.63-2.38-3.67-8.45-5.68-12.07-7.8l-10.22-6a5.18,5.18,0,0,0-5.12-.66l-24.16,6.25c-1.54.4-3.31,1-3.88,2.47a5.14,5.14,0,0,0,.07,2.88c.91,4.18,2.67,8.45,3.1,12.68.49,2.46,2,15.07,6.32,13.62,1.28-2.1,1.47-4.67,2.46-6.91A10,10,0,0,1,626.46,364Z"/><polygon class="cls-8" points="627.58 398.83 614.75 402.74 567.89 451.82 565.1 468 587.5 504.99 593.55 491.43 584.06 464.1 599.13 453.5 619.21 408.31 627.58 398.83"/><polygon class="cls-9" points="549.51 702.54 550.42 709.59 537.23 718.45 529.28 712.31 535.42 704.36 548.61 695.5 549.51 702.54"/><polygon class="cls-5" points="549.96 700.18 539.79 610.3 552.03 509.69 549.27 488.28 494.62 486.21 492.64 521.04 501.82 610.44 536.34 704.77 549.96 700.18"/><polygon class="cls-9" points="489.49 386.76 461.99 394.25 430.19 450.59 445.26 464.54 466.45 439.44 489.49 386.76"/><polygon class="cls-5" points="454.51 496.28 454.37 586.97 472.62 703.73 485.76 703.6 492.99 595.63 509.89 487.56 454.51 496.28"/><polygon class="cls-9" points="485.74 709.14 471.6 716.39 464.43 709.35 471.46 702.18 485.67 702.04 485.74 709.14"/><path class="cls-9" d="M557.68,527.12c-.12-3.93-.34-7.21-.37-8.38-.28-10.54-1.22-21.06-2.54-31.53-1.19-9.38-2.68-32.67-4.28-42-1.33-7.7-6-26.91-9.29-34.05-8.3-17.76-5.73-19.4-42.19-24.67-16-2.31-19.75,7.64-32.82,19.1-1.28,1.13-1.21,7.85-1.51,9.63-.53,3.14-1.09,6.27-1.74,9.38-.51,2.45-1.07,4.89-1.7,7.32h0s-11,49.9-18.21,60.5-22.24,25.42,2.82,34.46a89,89,0,0,0,13.54,3.54s20.49-2.28,31-2.2a178.25,178.25,0,0,1,29,2.7c6.39,1.06,12.9,2.62,18.61,5.6,5.44,2.84,9.37,7,14.9,10a2.89,2.89,0,0,0,1.69.49C557.8,546.55,558,535.4,557.68,527.12Z"/><path class="cls-10" d="M533.23,296.43s-5.22-2.59-5.2-3.26.9-10.12.9-10.12l3.43-2,1.44-4s-3.92-6.84-3.2-8.86,5.94,6.89,5.94,6.89l1.92,5.46.49,8.8Z"/><polygon class="cls-10" points="477.56 431.39 488.25 423.25 484.96 418.53 476.41 422.48 475.89 419.53 467.6 427.62 470.35 432.98 477.56 431.39"/><polygon class="cls-9" points="476.2 434.27 467.63 423.07 438.12 440.87 445.4 464.63 476.2 434.27"/><path class="cls-10" d="M499,391.5c1.84.91,6.18,1.24,10.71-.53a2.38,2.38,0,0,0,1.52-2.22,61.15,61.15,0,0,0-.67-8.22c3.4-1.2,7.33-3,7.92-6.54a10.42,10.42,0,0,0-.2-3.38l-2.4-13.86a12.24,12.24,0,0,0-1.44-4.61c-1.52-2.4-4.48-3.46-7.28-3.94-7.16-1.24-15,.31-20.5,5a11.08,11.08,0,0,0-3.46,4.57c-1,2.8-.26,5.9.5,8.78q1.05,4,2.09,8c.81,3.06,2,6.54,4.92,7.69,1.56.6,3.41.43,4.83,1.33C498,385.13,497.67,388.84,499,391.5Z"/><path class="cls-5" d="M457.68,345.43a29.63,29.63,0,0,0-2.31-3.31c-1.83-2.26-4.09-4.2-5.57-6.71s-2-5.92-.23-8.23a9.06,9.06,0,0,1,4.81-2.77,34.94,34.94,0,0,1,18.35-.34c5.72,1.46,10.83,3.87,16.59,1.72,5.4-2,9.31-1.2,15,.82,6.12,2.18,14.32,2.7,19.86,5.78a16.2,16.2,0,0,1,5.59,5.51,24.61,24.61,0,0,1,.07,26,34.87,34.87,0,0,1-3.83,4.83c-2.88,3.13-6.33,7-10.3,8.15-.1-3.55,3.14-14.74.41-17.65-4.33-4.62-14.11-3-19.48-1.87-5.85,1.24-11.07,5.38-16.87,6.27-4.18.64-9.51-1.41-13.06-3.57C462.28,357.41,460.24,349.64,457.68,345.43Z"/><polygon class="cls-9" points="519.21 389.94 547.32 375.16 528.03 296.43 541.32 289.25 574.88 375.16 538.95 418.53 519.21 389.94"/><polygon class="cls-5" points="312.88 707.75 312.27 713.71 323.6 720.89 330.17 715.53 324.81 708.96 313.49 701.78 312.88 707.75"/><polygon class="cls-9" points="312.44 525.74 310.6 543.86 326.78 624.84 312.45 705.76 324.05 709.33 361.53 613.11 363.59 583.7 358.51 522.76 312.44 525.74"/><polygon class="cls-9" points="400.31 531.91 400.68 608.46 385.6 707.05 374.5 706.98 368.11 615.87 353.54 524.7 400.31 531.91"/><polygon class="cls-5" points="374.54 711.65 386.49 717.73 392.53 711.77 386.57 705.74 374.58 705.66 374.54 711.65"/><path class="cls-3" d="M409.66,520.68c-8-24.79-8.86-50.81-11.19-76.63-.69-7.62-1.42-15.41-4.59-22.37-3.64-8-9.66-12.21-16.67-14.51-8.93-2.94-19.46-2.77-28.74-3.33-8.81-.28-16.6,32.82-25.58,48.87-5.51,9.84-11.18,18.53-14.89,29.26-3.57,10.3-7,20.77-9.06,31.48-3.13,16.18-11.14,27.47-3.49,33q1.05.35,2,.69a188.06,188.06,0,0,0,38.74,9.57,155.25,155.25,0,0,0,35.4.67c16.11-1.59,31.73-3.87,45.93-12.27Q413.6,532.87,409.66,520.68Z"/><path class="cls-2" d="M344.16,379.2c5-15.15,27.12-20.42,32.25-2.82,1.55,5.29,2.48,10.9,1.43,16.31s-4.36,10.6-9.4,12.82l-.09,0c.2,1.41.4,2.81.59,4.22a1.21,1.21,0,0,1-.09.88,1.27,1.27,0,0,1-.92.42l-5,.75a5.65,5.65,0,0,1-2.49,0c-1.75-.56-2.48-2.66-2.56-4.5,0-.44,0-.88,0-1.33C347.93,402.58,340.88,389.1,344.16,379.2Z"/><path class="cls-5" d="M371.09,353.34c4-.6,7.49,3.32,11.22,5.38,3.11,1.72,6.63,2.17,9.85,3.59s6.39,4.39,6.45,8.1c3.27-1.7,6.8-3.44,10.46-2.73s7.05,5.06,5.59,8.66c-1.31,3.22-5.51,4-6.91,7.15-2.21,5,3.77,12.81-.31,16.14-1,.8-2.32,1-3.28,1.82-1.2,1-1.58,2.78-2.11,4.34-2.42,7.08-9.56,11.7-16.61,10.76A18.75,18.75,0,0,1,376,405.39c-1.89-5.85,1.25-7.89,1.77-13.39a24,24,0,0,0-5.11-17c-2.46-3-6-5.65-9.7-6-1.51-.15-1,1.12-2.74-.05a7.58,7.58,0,0,1-1.93-3.32C362.36,362.33,365.76,354.13,371.09,353.34Z"/><path class="cls-5" d="M327.32,361.13c-2.09.58-4.36.49-6.35,1.36-3,1.31-2.8,4.41-3.65,7.11-.94,3-2.3,7-4.26,9.3-1.42,1.67-3.41,2.63-5.13,3.92s-3.32,3.19-3.28,5.51,1.52,4.18,1.73,6.38c.27,3.28-.3,5,.71,8.32.52,1.72,1.11,3.56,2.4,4.74,1.72,1.55,4.15,1.52,6.29,1.16s4.35-.95,6.46-.24c4.58,1.54,3.73,6.17,4.94,10.05,1.86,5.9,8.7,9.35,13.94,7.25,4.44-1.78,7-6.94,6.81-12-.1-2.54-1.12-4.92-1.19-7.47s1.32-5.87-.91-7.82a15.37,15.37,0,0,1-1.73-1.27,3.63,3.63,0,0,1-.75-1.61,7.06,7.06,0,0,1,1.17-5.8c.86-1.12,2.1-1.94,2.62-3.29.61-1.55.13-3.35,0-5.06a10.21,10.21,0,0,1,5.45-9.78c2.27-1.05,4.31-1.67,6.29-3.27.31-.24,4.82-4.23,4.93-3.37a9.08,9.08,0,0,0-2-4,18,18,0,0,0-5.13-5.09c-6.64-3.83-7,5.07-12.29,3.9-1.28-.28-2.25-1.46-3.41-2.16-2.18-1.33-4.87-.86-7.1.14S329.67,360.47,327.32,361.13Z"/><polygon class="cls-11" points="762.7 559.86 811.45 543.5 799.09 627.73 803.05 706.49 803.05 706.49 803.05 706.49 803.05 706.49 794.18 706.49 794.18 706.49 794.18 706.49 773.51 636.55 764.24 567.03 764.24 567.03 762.7 559.86"/><polygon class="cls-5" points="793.65 705.44 803.53 705.47 805.81 713.87 805.56 713.94 805.62 713.95 789.03 723.15 781.25 723.79 780.51 714.89 782.65 713.42 793.65 705.44"/><polygon class="cls-11" points="724.78 560.37 735.46 710.36 743.86 711.39 756.48 628.34 775.34 551 724.78 560.37"/><polygon class="cls-5" points="735.04 708.85 722.19 715.66 723.2 721.66 745.9 718.9 744.82 710.26 735.04 708.85"/><path class="cls-4" d="M824.75,584.19c1-24.53-20.89-102.54-20.89-102.54h0a138.4,138.4,0,0,1-5.14-22.26c-.76-5.32-16.7-65.81-15.65-65.88-11,.8-32.16-1.8-40.3,6-.23.23-.45.46-.66.7-6.34,7.23-9.64,21.88-12.64,30.89a241.35,241.35,0,0,0-9,36.3c-1.81,10.76-2.88,21.63-3.64,32.52-.65,9.35-.14,18.65-.45,27.86C716,538,712.94,549,710.66,558.92a173.33,173.33,0,0,1-9.24,29.27c10.9,4.83,23.05,6.13,35,6.18s23.83-1.11,35.76-.93c10.08.16,20.29,1.26,30.17-.76,7.86-1.61,15.11-5.11,22.42-8.49Z"/><path class="cls-5" d="M745.47,367.86c-5,2.47-10.24,8.86-9.92,14.8.16,2.86,1.74,5.09,1.79,8.16.11,6.05,9.28,12.38,3.67,18.22-2.89,3-7.4,3.59-11.55,4A3.11,3.11,0,0,1,728,413a2.14,2.14,0,0,1-1.12-2.07,8.85,8.85,0,0,1,.59-2.41c2.63-8.28-1.35-17.94-1.81-26.38s1.52-17.52,8.43-23c4.63,1.41,8.08,3.37,10.36,7.64Z"/><path class="cls-10" d="M748.58,403.81c-5.71-.72-10.56-4.94-13.22-10s-3.4-11-3.43-16.76c-.09-19.15,23.61-20.44,33.14-6.77C773.37,382.16,765.19,405.9,748.58,403.81Z"/><path class="cls-5" d="M777.28,406.14c-2.95-.83-5.86-1.76-8.14-4.24-3.68-4-4.78-11.59-6.51-16.59-1.83-5.28-4-11-8.78-13.84-3.13-1.86-6.29-1.72-9.72-1.1-2.35.42-2.27,1.32-4.49.45-1.71-.66-3.57-3.29-4.25-4.9a9.92,9.92,0,0,1,.85-8.52,13.85,13.85,0,0,1,9.63-7.27c15.2-3.33,28.43,3.47,35.65,17.53,3.48,6.76,3.51,15,7.07,21.51,2.2,4,5.49,6.29,7.48,10.61,5.18,11.2,14.63,25,16.52,37.24a1.74,1.74,0,0,1-.16,1.33c-.57.74-1.74.2-2.48-.38l-12.87-10.13a23.17,23.17,0,0,1-4.65-4.41c-3.12-4.33-3.2-10.71-7.39-14C782.75,407.62,780,406.92,777.28,406.14Z"/><path class="cls-10" d="M848.44,382.94c2.87.54,10.35-1.46,12.07-4.1,4-6.09-5.44-4.22-8.84-4.3a18.54,18.54,0,0,0,1-3.52c.14-1.11-10,1.77-10.93,2.83-2.33,2.54-1.27,4.45-1.06,7.66C843.24,381.93,845.84,382.45,848.44,382.94Z"/><polygon class="cls-4" points="769.06 444.16 824.22 434.99 849.62 383.48 839.52 375.16 812.65 410.83 784.56 409.63 758.57 410.76 769.06 444.16"/><polygon class="cls-10" points="215.47 556.67 167.2 538.92 177.15 623.47 171.39 696.42 171.23 696.9 171.35 696.92 170.96 701.78 179.47 703.33 179.47 703.33 179.47 703.33 202.47 633.02 213.72 563.8 213.72 563.8 215.47 556.67"/><polygon class="cls-5" points="180.36 701.31 170.49 701.06 167.96 709.39 168.21 709.47 168.15 709.47 184.47 719.14 192.24 720.01 193.22 711.14 191.13 709.6 180.36 701.31"/><polygon class="cls-10" points="248.34 558.13 233.42 707.27 225.04 709.33 214.71 625.16 198.07 547.31 248.34 558.13"/><polygon class="cls-5" points="233.83 706.25 246.49 713.43 245.3 719.4 222.69 715.99 224.02 707.39 233.83 706.25"/><path class="cls-7" d="M271,594.48c3-2.12,3.12-5.81,3.11-9.51a92.55,92.55,0,0,0-2.85-20.79c-3-12.66-6.46-27.91-8-44.31C259.35,477.47,246,449,246,449l-4.32-11.52q-1.29-2.24-2.68-4.43c-5.39-8.47-14.76-22.86-24.78-25.21l-.63-.15c-10.54-2.31-24-1.24-33.56,3.88a33.62,33.62,0,0,0-5,3.56c-4.66,3.75-8.45,5.79-10.46,11.51-1.74,5-2.15,10.39-3.11,15.54-1.95,10.46-3.12,21-4.67,31.56-2.93,19.73-5.41,39.53-8.54,59.23-1.61,10.14-3.23,20.3-4,30.54-.67,9.06-8.84,18.26-13.43,26.38-1.6,2.82,21.35,10.14,23.41,10.62,9.52,2.22,19.64,1.65,29.46,1.69q32.25.15,64.47-2c7.13-.48,15.92-1.84,22.25-5.39C270.59,594.73,270.78,594.61,271,594.48Z"/><path class="cls-3" d="M201.73,406.55s-12.11-3.27-13.78,24.07-4.47,96.5-8.37,115.47-9.76,56.17-9.76,56.17l37.09,1.29,42.4-3.35s-14.5-26.78-16.74-45.74,1.68-90.37-7.81-117.15S213.29,407,201.73,406.55Z"/><polygon class="cls-7" points="256.56 467.43 259.35 470.78 269.39 456.83 229.23 412.21 214.17 407.75 221.42 427.27 256.56 467.43"/><polygon class="cls-10" points="222.99 455.89 214.18 449.17 216.88 445.27 223.94 448.54 224.37 446.1 231.21 452.77 228.94 457.2 222.99 455.89"/><polygon class="cls-7" points="257.52 454.17 257.13 455.04 229.65 449.74 225.6 458.75 259.35 470.78 257.52 454.17"/><path class="cls-5" d="M218.63,384.9c1.83,5.5-.82,11.37-3.15,16.38-2.06,4.45-2.78,7.38,2.46,8.58,3,.68,8.2,1.94,10.79-.32,2-1.72.86-7-.1-9.11-.73-1.61-2.65-2.42-3.34-4a5.75,5.75,0,0,1-.33-2.14,29.39,29.39,0,0,1,1.21-8.79,29.88,29.88,0,0,0,1.52-5.84c.25-2.91-1.81-6.3-2.89-9-2-5-9-11.65-14.88-7.74a8.54,8.54,0,0,0-2.77,3.86,7.2,7.2,0,0,0-.76,2.75c0,3.82,3.44,4.46,5.85,6.28A19.1,19.1,0,0,1,218.63,384.9Z"/><path class="cls-10" d="M207.47,406.37c5.09-1.2,9.07-5.47,11-10.33s2-10.26,1.48-15.46c-1.75-17.31-23.28-16.2-30.57-2.93C183,389.2,192.68,409.86,207.47,406.37Z"/><path class="cls-10" d="M207.47,404.51c-.09,2-.17,3.94-.26,5.91a1.18,1.18,0,0,1-.23.81,1.21,1.21,0,0,1-.93.23l-4.82-.16a5.24,5.24,0,0,1-2.33-.45c-1.54-.82-1.85-2.9-1.61-4.63s.87-3.47.5-5.17c3.32,1.63,6.47-2.06,9.78-.43Z"/><path class="cls-5" d="M200.53,350.58c-5.65,1.92-9.28,7.63-14.8,9.92-3.16,1.31-6.9,1.47-9.48,3.72-5.79,5-1.14,15.62-5.89,21.64-1,1.26-2.32,2.2-3.31,3.45-2.14,2.7-2.42,6.38-2.61,9.81a10.63,10.63,0,0,0,.08,2.39c.74,7.94,12.26,7.43,16.84,6.92,5-.55,3.34-3.34,3.34-3.34l-.18-.23a9.59,9.59,0,0,1,3.37-8.7,12.21,12.21,0,0,0,2.72-2.38c1.48-2.27.06-5.28.28-8,.88-10.89,19.17-8.56,24.33-16.31C221.54,360,211.2,347,200.53,350.58Z"/><path class="cls-9" d="M260.33,200.06,102.86,212.85a1.15,1.15,0,0,0-1,1.27l9.88,117.28a1.15,1.15,0,0,0,1.2,1.09l35.59-2.89,27.26,31.66a1.28,1.28,0,0,0,2.25-.89l-2.27-33,61.56-5c18.87-1.53,32.8-19.15,31.09-39.34l-6.89-81.9A1.16,1.16,0,0,0,260.33,200.06Z"/><polygon class="cls-6" points="242.79 225.23 144.71 233.2 144.37 229.19 242.45 221.22 242.79 225.23"/><polygon class="cls-6" points="245.37 255.83 128.38 265.33 128.04 261.32 245.03 251.82 245.37 255.83"/><polygon class="cls-6" points="247.95 286.43 130.96 295.93 130.62 291.92 247.61 282.41 247.95 286.43"/><path class="cls-3" d="M577.79,240.31c0-34,39-61.5,87.14-61.5s87.13,27.53,87.13,61.5-39,61.51-87.13,61.51c-1.92,0-3.81-.05-5.69-.13a1.33,1.33,0,0,0-1.37,1.57l6.94,37.86a1.33,1.33,0,0,1-2.3,1.14l-45.34-50.38a1.27,1.27,0,0,0-.42-.31C593.27,280.55,577.79,261.71,577.79,240.31Z"/><path class="cls-5" d="M702,247.84c-5,0-5-7.81,0-7.81S707,247.84,702,247.84Z"/><path class="cls-5" d="M666.85,247.84c-5,0-5-7.81,0-7.81S671.88,247.84,666.85,247.84Z"/><path class="cls-5" d="M622.91,247.84c-5,0-5-7.81,0-7.81S628,247.84,622.91,247.84Z"/><polygon class="cls-10" points="141.03 331.32 144.33 319.75 149.34 320.94 148.84 329.37 151.47 328.84 147.43 338.4 142.06 337.86 141.03 331.32"/><polygon class="cls-7" points="185.21 419.22 148.6 389.64 149.88 335.62 139.17 335.09 123.51 398.54 160.17 444.79 185.21 419.22"/><polygon class="cls-8" points="654.93 405.52 678.79 379.74 673.17 309.88 683.65 305.27 697.91 376.14 693.55 393.8 666.8 430.71 654.93 405.52"/><polygon class="cls-2" points="683.65 305.27 683.65 289.25 676.32 284.97 672.8 291.47 672.8 297.99 669 299.56 673.17 309.88 683.65 305.27"/><path class="cls-8" d="M431,154.21,558.5,154a21.38,21.38,0,0,1,21.42,21.33l.15,82.21a21.37,21.37,0,0,1-21.21,21.42l-20.49.16-23.31,32.83a1.22,1.22,0,0,1-2.21-.69l-.54-32.09-81.16,0a21.36,21.36,0,0,1-21.37-21.33l-.16-82.14A21.38,21.38,0,0,1,431,154.21Z"/><rect class="cls-12" x="434.16" y="178.95" width="101.89" height="4.25"/><rect class="cls-12" x="434.15" y="211.33" width="121.52" height="4.25"/><rect class="cls-12" x="434.15" y="243.7" width="121.52" height="4.25"/><path class="cls-4" d="M428.41,265a29.66,29.66,0,0,0-29.81-29.17c0-.52,0-1,0-1.54a36,36,0,0,0-63.47-22.62,33.28,33.28,0,0,0-57.91,21q-1.12-.07-2.28-.06a29.67,29.67,0,0,0-8.22,58,28.72,28.72,0,0,0,27.07,39.55,30.15,30.15,0,0,0,3.58-.28l.51,30.71c0,1.33,1.76,1.83,2.23,1.14l19-27.62A28.7,28.7,0,0,0,359.67,324a32.07,32.07,0,0,0,48.6-28c0-.77-.06-1.53-.13-2.28A29.68,29.68,0,0,0,428.41,265Z"/><path class="cls-13" d="M371.91,269.11c-4.38.07-4.27,6.88.12,6.81S376.3,269,371.91,269.11Z"/><path class="cls-13" d="M341.28,269.61c-4.38.08-4.28,6.88.11,6.81S345.66,269.54,341.28,269.61Z"/><path class="cls-13" d="M303,270.25c-4.38.07-4.28,6.88.11,6.8S307.37,270.17,303,270.25Z"/><polygon class="cls-2" points="398.79 322.07 392.16 312.02 387.74 314.67 390.76 322.55 388.09 322.83 394.81 330.74 399.77 328.61 398.79 322.07"/><polygon class="cls-3" points="377.11 412 409.11 379.97 391.63 328.83 401.7 325.1 435.71 380.91 391.88 435.23 377.11 412"/></g></svg>